<svg width="95" height="95" viewBox="0 0 95 95" fill="none" xmlns="http://www.w3.org/2000/svg">
<path d="M49.9548 27.8543C50.6374 27.1618 51.563 26.7727 52.5281 26.7727C53.4932 26.7727 54.4188 27.1618 55.1013 27.8543L71.4798 44.4786C72.1621 45.1714 72.5455 46.1109 72.5455 47.0905C72.5455 48.0701 72.1621 49.0095 71.4798 49.7023L55.1013 66.3266C54.4149 66.9995 53.4955 67.3719 52.5412 67.3635C51.5869 67.3551 50.674 66.9665 49.9992 66.2816C49.3243 65.5966 48.9416 64.6701 48.9333 63.7014C48.925 62.7328 49.2918 61.7996 49.9548 61.1029L59.8074 50.7847H25.2306C24.2653 50.7847 23.3395 50.3955 22.6569 49.7027C21.9744 49.0099 21.5909 48.0702 21.5909 47.0905C21.5909 46.1107 21.9744 45.171 22.6569 44.4782C23.3395 43.7854 24.2653 43.3962 25.2306 43.3962H59.8074L49.9548 33.0781C49.2725 32.3853 48.8892 31.4458 48.8892 30.4662C48.8892 29.4866 49.2725 28.5471 49.9548 27.8543Z" fill="#F8D432"/>
<circle cx="47.5" cy="47.5" r="44.5" stroke="#F8D432" stroke-width="6"/>
</svg>
