<svg width="205" height="158" viewBox="0 0 205 158" fill="none" xmlns="http://www.w3.org/2000/svg">
<path d="M192.096 6.72218L194.775 8.07226L192.096 6.72218ZM192.591 12.6826C192.163 11.082 193.114 9.4375 194.714 9.00957C196.315 8.58165 197.959 9.53232 198.387 11.133L192.591 12.6826ZM192.036 59.6986L194.765 60.9445L192.036 59.6986ZM177.813 85.7682L175.401 83.9845L177.813 85.7682ZM155.524 101.098L154.25 98.3826H154.25L155.524 101.098ZM124.745 101.97L123.837 104.83L124.745 101.97ZM104.655 93.419L102.531 95.5378L104.655 93.419ZM102.278 61.76L102.454 58.7652L102.278 61.76ZM121.968 77.6954L124.959 77.4526L121.968 77.6954ZM117.865 97.4982L114.908 96.9914V96.9914L117.865 97.4982ZM101.96 133.877L99.6725 131.936L101.96 133.877ZM67.2063 154.043L67.9464 156.95L67.2063 154.043ZM30.935 146.168L29.5895 148.849L30.935 146.168ZM10.8517 134.688L12.7403 132.357V132.357L10.8517 134.688ZM-4.57764e-05 126.056L34.3781 130.316L13.5001 157.958L-4.57764e-05 126.056ZM200.616 23.6307C200.772 25.2802 199.561 26.7437 197.912 26.8995C196.262 27.0553 194.799 25.8443 194.643 24.1948L200.616 23.6307ZM193.064 47.4639C193.451 45.8529 195.071 44.8607 196.682 45.2478C198.293 45.6348 199.285 47.2546 198.898 48.8656L193.064 47.4639ZM191.612 67.7357C190.899 69.2313 189.109 69.8658 187.613 69.1529C186.117 68.4399 185.483 66.6495 186.196 65.1539L191.612 67.7357ZM179.377 78.0267C180.237 76.6105 182.082 76.1595 183.498 77.0195C184.914 77.8795 185.365 79.7246 184.505 81.1409L179.377 78.0267ZM175.089 93.0061C173.832 94.0852 171.938 93.9409 170.859 92.6837C169.779 91.4265 169.924 89.5325 171.181 88.4533L175.089 93.0061ZM160.297 95.4424C161.771 94.6847 163.579 95.2649 164.337 96.7383C165.095 98.2117 164.515 100.02 163.041 100.778L160.297 95.4424ZM148.603 106.384C146.975 106.691 145.406 105.62 145.099 103.992C144.792 102.364 145.863 100.795 147.491 100.488L148.603 106.384ZM132.818 100.706C134.459 100.935 135.604 102.451 135.375 104.092C135.145 105.733 133.629 106.877 131.988 106.648L132.818 100.706ZM122.053 104.279C120.467 103.8 119.57 102.125 120.05 100.539C120.53 98.9535 122.204 98.0567 123.79 98.5364L122.053 104.279ZM120.154 97.4351C121.737 97.9242 122.624 99.604 122.135 101.187C121.646 102.77 119.966 103.657 118.383 103.168L120.154 97.4351ZM114.614 98.5968C114.931 96.9706 116.507 95.9093 118.133 96.2265C119.759 96.5436 120.82 98.119 120.503 99.7453L114.614 98.5968ZM120.72 98.5864C120.428 100.217 118.868 101.302 117.238 101.009C115.607 100.717 114.522 99.1576 114.815 97.5268L120.72 98.5864ZM116.175 91.7393C116.631 90.1465 118.292 89.2252 119.885 89.6814C121.478 90.1377 122.399 91.7988 121.943 93.3916L116.175 91.7393ZM124.604 83.2649C124.32 84.8972 122.766 85.9895 121.133 85.7049C119.501 85.4202 118.409 83.8662 118.694 82.234L124.604 83.2649ZM117.395 72.5375C116.584 71.0925 117.098 69.264 118.543 68.4533C119.988 67.6427 121.817 68.157 122.627 69.602L117.395 72.5375ZM109.997 60.0857C111.581 60.5697 112.473 62.2465 111.99 63.8311C111.506 65.4157 109.829 66.308 108.244 65.8241L109.997 60.0857ZM97.1477 67.0526C96.6742 68.6404 95.0032 69.5437 93.4154 69.0701C91.8277 68.5966 90.9244 66.9256 91.3979 65.3379L97.1477 67.0526ZM96.3968 86.6198C95.6106 85.1614 96.1555 83.3418 97.6139 82.5555C99.0724 81.7693 100.892 82.3142 101.678 83.7727L96.3968 86.6198ZM109.059 93.0036C110.481 93.8546 110.943 95.6969 110.092 97.1185C109.241 98.5401 107.399 99.0027 105.977 98.1517L109.059 93.0036ZM113.013 101.376C111.458 100.804 110.661 99.0797 111.233 97.5247C111.805 95.9696 113.529 95.1727 115.084 95.7446L113.013 101.376ZM117.91 109.791C117.406 111.369 115.717 112.24 114.139 111.736C112.561 111.231 111.69 109.543 112.195 107.965L117.91 109.791ZM104.826 124.621C105.672 123.196 107.513 122.726 108.937 123.572C110.362 124.418 110.832 126.258 109.986 127.683L104.826 124.621ZM96.2704 143.128C94.9444 144.122 93.0641 143.852 92.0708 142.526C91.0774 141.2 91.3471 139.32 92.6731 138.326L96.2704 143.128ZM75.6432 147.971C77.1692 147.325 78.9295 148.039 79.5748 149.565C80.2201 151.091 79.5062 152.852 77.9802 153.497L75.6432 147.971ZM57.653 157.958C55.998 157.88 54.7197 156.475 54.7978 154.82C54.8759 153.165 56.2809 151.886 57.9359 151.965L57.653 157.958ZM40.6986 147.451C42.2224 148.102 42.9303 149.864 42.2796 151.388C41.629 152.912 39.8663 153.62 38.3426 152.969L40.6986 147.451ZM24.41 146.293C22.9241 145.56 22.3137 143.762 23.0467 142.276C23.7798 140.79 25.5785 140.179 27.0644 140.912L24.41 146.293ZM17.1743 135.53C18.5717 136.42 18.983 138.274 18.0928 139.672C17.2027 141.069 15.3482 141.48 13.9508 140.59L17.1743 135.53ZM6.26459 134.815C4.98315 133.765 4.79579 131.875 5.84608 130.593C6.89639 129.312 8.78662 129.125 10.068 130.175L6.26459 134.815ZM4.60927 125.778C5.91667 126.796 6.15147 128.681 5.1337 129.988C4.11592 131.296 2.23099 131.53 0.923584 130.513L4.60927 125.778ZM191.299 2.96233C192.555 1.88185 194.45 2.02419 195.53 3.28027C196.61 4.53634 196.468 6.4305 195.212 7.51098L191.299 2.96233ZM196.549 7.07048C194.896 6.94994 193.655 5.51264 193.775 3.86017C193.896 2.20771 195.333 0.965843 196.985 1.08638L196.549 7.07048ZM202.339 3.77298C203.423 5.02608 203.286 6.92062 202.033 8.00455C200.78 9.08847 198.885 8.95132 197.801 7.69822L202.339 3.77298ZM198.241 9.02219C198.362 7.36973 199.799 6.12792 201.452 6.24852C203.104 6.36912 204.346 7.80647 204.225 9.45893L198.241 9.02219ZM201.526 14.8144C200.27 15.8948 198.376 15.7525 197.296 14.4964C196.215 13.2403 196.358 11.3462 197.614 10.2657L201.526 14.8144ZM196.277 10.7062C197.929 10.8267 199.171 12.264 199.051 13.9165C198.93 15.569 197.493 16.8108 195.84 16.6903L196.277 10.7062ZM190.486 14.0037C189.402 12.7506 189.54 10.8561 190.793 9.77214C192.046 8.68821 193.94 8.82536 195.024 10.0785L190.486 14.0037ZM194.585 8.75449C194.464 10.4069 193.027 11.6488 191.374 11.5282C189.722 11.4076 188.48 9.97021 188.601 8.31775L194.585 8.75449ZM198.387 11.133C199.468 15.1747 200.214 19.372 200.616 23.6307L194.643 24.1948C194.271 20.2582 193.582 16.3911 192.591 12.6826L198.387 11.133ZM198.898 48.8656C197.898 53.0288 196.526 57.0875 194.765 60.9445L189.307 58.4526C190.897 54.97 192.148 51.279 193.064 47.4639L198.898 48.8656ZM194.765 60.9445C193.749 63.1703 192.702 65.4493 191.612 67.7357L186.196 65.1539C187.263 62.9143 188.294 60.6726 189.307 58.4526L194.765 60.9445ZM184.505 81.1409C183.167 83.3445 181.746 85.4951 180.225 87.5519L175.401 83.9845C176.796 82.0973 178.117 80.1016 179.377 78.0267L184.505 81.1409ZM180.225 87.5519C178.724 89.5825 176.975 91.387 175.089 93.0061L171.181 88.4533C172.789 87.0735 174.212 85.5924 175.401 83.9845L180.225 87.5519ZM163.041 100.778C160.921 101.868 158.805 102.873 156.799 103.814L154.25 98.3826C156.247 97.4456 158.28 96.4798 160.297 95.4424L163.041 100.778ZM156.799 103.814C154.257 105.007 151.472 105.843 148.603 106.384L147.491 100.488C149.961 100.023 152.247 99.3223 154.25 98.3826L156.799 103.814ZM131.988 106.648C129.132 106.249 126.371 105.634 123.837 104.83L125.654 99.1111C127.837 99.8046 130.266 100.349 132.818 100.706L131.988 106.648ZM123.837 104.83C123.292 104.656 122.696 104.474 122.053 104.279L123.79 98.5364C124.441 98.7334 125.068 98.9252 125.654 99.1111L123.837 104.83ZM118.383 103.168C117.776 102.98 117.155 102.785 116.526 102.582L118.37 96.8723C118.969 97.0659 119.566 97.2532 120.154 97.4351L118.383 103.168ZM114.508 99.1313C114.544 98.9526 114.58 98.7744 114.614 98.5968L120.503 99.7453C120.466 99.9373 120.427 100.13 120.388 100.323L114.508 99.1313ZM114.815 97.5268C114.847 97.3477 114.878 97.1692 114.908 96.9914L120.822 98.005C120.789 98.1982 120.755 98.3921 120.72 98.5864L114.815 97.5268ZM114.908 96.9914C115.204 95.2671 115.677 93.4781 116.175 91.7393L121.943 93.3916C121.459 95.0802 121.061 96.614 120.822 98.005L114.908 96.9914ZM118.694 82.234C118.972 80.6391 119.081 79.207 118.978 77.9383L124.959 77.4526C125.116 79.3951 124.935 81.3674 124.604 83.2649L118.694 82.234ZM118.978 77.9383C118.806 75.8213 118.237 74.0393 117.395 72.5375L122.627 69.602C123.912 71.8918 124.72 74.5154 124.959 77.4526L118.978 77.9383ZM108.244 65.8241C106.32 65.2366 104.24 64.8808 102.102 64.7548L102.454 58.7652C105.018 58.9163 107.573 59.3455 109.997 60.0857L108.244 65.8241ZM102.102 64.7548C100.114 64.6377 98.9874 64.9839 98.3665 65.3569C97.8041 65.6948 97.4007 66.2043 97.1477 67.0526L91.3979 65.3379C92.01 63.2857 93.2384 61.438 95.277 60.2135C97.257 59.0242 99.7008 58.603 102.454 58.7652L102.102 64.7548ZM101.678 83.7727C103.577 87.2951 105.539 90.0569 106.779 91.3003L102.531 95.5378C100.694 93.6957 98.408 90.3507 96.3968 86.6198L101.678 83.7727ZM106.779 91.3003C107.324 91.8463 108.082 92.4188 109.059 93.0036L105.977 98.1517C104.725 97.4021 103.531 96.5392 102.531 95.5378L106.779 91.3003ZM115.084 95.7446C116.164 96.142 117.27 96.5168 118.37 96.8723L116.526 102.582C115.372 102.209 114.188 101.808 113.013 101.376L115.084 95.7446ZM120.388 100.323C119.765 103.4 118.932 106.591 117.91 109.791L112.195 107.965C113.154 104.964 113.93 101.985 114.508 99.1313L120.388 100.323ZM109.986 127.683C108.251 130.606 106.334 133.36 104.247 135.819L99.6725 131.936C101.508 129.774 103.234 127.304 104.826 124.621L109.986 127.683ZM104.247 135.819C102.067 138.387 99.3112 140.85 96.2704 143.128L92.6731 138.326C95.4675 136.233 97.8618 134.069 99.6725 131.936L104.247 135.819ZM77.9802 153.497C74.5078 154.965 71.0839 156.152 67.9464 156.95L66.4661 151.136C69.257 150.425 72.392 149.346 75.6432 147.971L77.9802 153.497ZM67.9464 156.95C64.4746 157.834 61.0323 158.117 57.653 157.958L57.9359 151.965C60.783 152.099 63.6264 151.859 66.4661 151.136L67.9464 156.95ZM38.3426 152.969C35.3278 151.682 32.3965 150.258 29.5895 148.849L32.2805 143.487C35.0485 144.876 37.8521 146.236 40.6986 147.451L38.3426 152.969ZM29.5895 148.849C27.8624 147.983 26.1564 147.155 24.41 146.293L27.0644 140.912C28.7626 141.75 30.5314 142.609 32.2805 143.487L29.5895 148.849ZM13.9508 140.59C12.2505 139.507 10.5804 138.33 8.963 137.019L12.7403 132.357C14.1539 133.503 15.6342 134.549 17.1743 135.53L13.9508 140.59ZM8.96301 137.019C8.06023 136.287 7.15895 135.548 6.26459 134.815L10.068 130.175C10.9657 130.911 11.8532 131.638 12.7403 132.357L8.96301 137.019ZM189.417 5.37211C189.893 4.42847 190.538 3.61726 191.299 2.96233L195.212 7.51098C195.038 7.66037 194.889 7.84679 194.775 8.07226L189.417 5.37211ZM196.985 1.08638C197.986 1.15935 198.986 1.42609 199.929 1.89934L197.238 7.26206C197.011 7.14809 196.778 7.08723 196.549 7.07048L196.985 1.08638ZM199.929 1.89934C200.872 2.37238 201.683 3.01456 202.339 3.77298L197.801 7.69822C197.652 7.52558 197.465 7.37596 197.238 7.26206L199.929 1.89934ZM204.225 9.45893C204.152 10.4604 203.884 11.4613 203.409 12.4046L198.051 9.70442C198.164 9.47908 198.225 9.24882 198.241 9.02219L204.225 9.45893ZM203.409 12.4046C202.933 13.3482 202.288 14.1594 201.526 14.8144L197.614 10.2657C197.787 10.1163 197.937 9.9299 198.051 9.70442L203.409 12.4046ZM195.84 16.6903C194.84 16.6173 193.84 16.3506 192.897 15.8773L195.588 10.5146C195.815 10.6286 196.047 10.6895 196.277 10.7062L195.84 16.6903ZM192.897 15.8773C191.954 15.4043 191.142 14.7621 190.486 14.0037L195.024 10.0785C195.174 10.2511 195.361 10.4007 195.588 10.5146L192.897 15.8773ZM188.601 8.31775C188.674 7.31631 188.942 6.31534 189.417 5.37211L194.775 8.07226C194.662 8.29761 194.601 8.52786 194.585 8.75449L188.601 8.31775Z" fill="#0AAAB6"/>
<circle cx="7.87705" cy="7.87705" r="7.87705" transform="matrix(-1 0 0 1 204.803 0)" fill="#0AAAB6"/>
</svg>
