<svg width="1920" height="1266" viewBox="0 0 1920 1266" fill="none" xmlns="http://www.w3.org/2000/svg">
<path d="M664.5 276.268C709.929 319.543 869.57 284.925 905.5 324.378C910.45 336.413 888.887 401.15 896 391.355C896 358.638 915.974 425.313 934.997 401.596C953.132 378.986 963.432 378.986 992.725 378.987H993.121C1017.67 378.987 1035.92 364.86 1055.2 352.4C1113.81 314.512 1150.7 258.864 1209.81 220.724C1276.92 177.415 1359.4 137.824 1443.47 137.824C1481.82 137.824 1510.76 147.996 1546.47 160.015C1625.85 186.734 1702.31 211.787 1788.26 196.022C1850.94 184.526 1897.94 131.469 1952.64 104.748C2029.3 67.2987 2095.44 56.7203 2179.79 68.3228C2260.6 79.4395 2339.23 131.203 2407.17 169.435C2467.32 203.285 2480.19 244.349 2479.71 305.298C2479.05 389.322 2442.66 479.743 2372.76 537.668C2295.5 601.692 2191.35 624.507 2093.07 650.294C2023.8 668.467 1955.96 689.845 1890.1 716.447C1861.79 727.877 1806.13 743.131 1791.98 771.713C1765.01 826.2 1847.37 880.655 1893.82 892.922C1952.58 908.442 2035.2 868.845 2085.29 844.838L2085.86 844.564C2185.21 796.949 2286.67 787.417 2397.87 790.554C2493.85 793.261 2598.91 797.767 2687.1 835.772C2740.04 858.589 2800.54 896.069 2804.51 953.841C2810.98 1048.03 2752.59 1121.46 2691.75 1191.65C2656.54 1232.27 2602.6 1252.39 2546.67 1258.22C2463.09 1266.95 2375.34 1261.13 2291.39 1260.74C2099.25 1259.84 1911.78 1216.87 1722.7 1190.4C1565.99 1168.46 1416.35 1129.47 1265.14 1087.82C1232.92 1078.95 1200.82 1074.47 1168.42 1066.89C1154.57 1063.65 1141.77 1057.26 1127.27 1057.26C1010.1 1057.26 888.631 1087.36 788.989 1142.67C750.858 1163.83 713.472 1186.07 674.6 1206.31C659.665 1214.08 643.356 1218.79 629.031 1227.66C618.052 1234.46 607.425 1243.6 594.621 1247.55C545.36 1262.72 475.038 1263.31 427.688 1244.2C397.789 1232.13 389.386 1218.89 379.793 1190.82C369.725 1161.35 358.217 1132.52 337.014 1108.13C295.569 1060.44 225.012 1068.75 163.106 1068.56C63.1929 1068.26 -35.7386 1072.05 -135.421 1078.19C-213.037 1082.97 -291.713 1086.68 -369.313 1079.03C-433.214 1072.72 -524.426 1043.44 -528.806 975.403C-532.021 925.465 -537.333 864.203 -518.111 816.512C-493.264 754.863 -438.181 716.763 -370.708 696.35C-298.442 674.486 -213.544 674.56 -139.606 690.279C-88.4672 701.151 -41.3054 720.92 12.9127 708.073C62.6549 696.286 87.0783 657.409 73.1295 614.497C58.3478 569.023 5.06958 534.882 -38.7018 513.384C-79.8439 493.178 -120.634 470.328 -162.39 451.419C-215.105 427.548 -272.147 410.474 -326.998 391.129C-381.087 372.052 -458.525 340.048 -491.374 294.203C-513.148 263.815 -512.224 225.784 -499.046 192.672C-475.978 134.705 -434.925 130.288 -371.87 130.288C-296.315 130.288 -219.382 126.113 -144.721 138.662C-93.4021 147.287 -45.2074 164.203 2.21777 183.461C51.6104 203.518 94.8205 241.722 148.226 252.963C159.963 255.433 176.52 256.419 188.681 254.428C206.935 251.44 198.911 215.689 198.911 203.977C198.911 176.175 186.229 154.166 177.986 127.776C172.786 111.128 165.163 68.8079 178.451 55.1342C207.273 25.4747 240.96 30.7395 282.61 32.5252C305.742 33.5171 323.663 44.7292 344.221 53.2501C382.318 69.0403 423.163 81.9323 457.448 104.12C499.966 131.637 553.866 156.362 586.251 194.347C617.14 230.577 613.5 227.686 664.5 276.268Z" fill="#0A63B6"/>
<path d="M1686 13.2273L1688.67 14.5774L1686 13.2273ZM1702.98 21.7522L1705.66 23.1023L1702.98 21.7522ZM1689.77 24.2061C1689.35 22.6054 1690.3 20.961 1691.9 20.533C1693.5 20.1051 1695.14 21.0558 1695.57 22.6564L1689.77 24.2061ZM1685.88 117.471L1688.61 118.717L1685.88 117.471ZM1657.89 168.769L1655.48 166.986L1657.89 168.769ZM1614.03 198.935L1612.76 196.22L1614.03 198.935ZM1553.47 200.651L1552.56 203.51L1553.47 200.651ZM1513.93 183.824L1511.81 185.943V185.943L1513.93 183.824ZM1509.26 121.528L1509.43 118.533L1509.26 121.528ZM1548 152.884L1550.99 152.642L1548 152.884ZM1539.93 191.851L1536.97 191.344V191.344L1539.93 191.851ZM1508.63 263.436L1506.34 261.495L1508.63 263.436ZM1440.24 303.117L1440.98 306.024L1440.24 303.117ZM1368.87 287.621L1367.53 290.302L1368.87 287.621ZM1329.35 265.031L1331.24 262.7L1329.35 265.031ZM1308 248.045L1342.38 252.305L1321.5 279.948L1308 248.045ZM1698.22 34.6297C1698.51 36.261 1697.43 37.8184 1695.8 38.1082C1694.16 38.398 1692.61 37.3106 1692.32 35.6792L1698.22 34.6297ZM1694.53 59.0872C1694.51 57.4305 1695.83 56.0686 1697.49 56.0453C1699.15 56.022 1700.51 57.3461 1700.53 59.0028L1694.53 59.0872ZM1698.9 83.4339C1698.65 85.0724 1697.13 86.2012 1695.49 85.9551C1693.85 85.709 1692.72 84.1812 1692.97 82.5428L1698.9 83.4339ZM1687.47 105.343C1688 103.775 1689.7 102.936 1691.27 103.471C1692.84 104.005 1693.68 105.709 1693.14 107.278L1687.47 105.343ZM1682.42 132.037C1681.71 133.533 1679.92 134.167 1678.42 133.454C1676.93 132.741 1676.29 130.951 1677.01 129.455L1682.42 132.037ZM1663.45 155.043C1664.31 153.627 1666.15 153.176 1667.57 154.036C1668.99 154.896 1669.44 156.741 1668.58 158.157L1663.45 155.043ZM1650.64 180.809C1649.38 181.888 1647.49 181.744 1646.41 180.486C1645.33 179.229 1645.47 177.335 1646.73 176.256L1650.64 180.809ZM1624.75 190.388C1626.23 189.63 1628.03 190.21 1628.79 191.684C1629.55 193.157 1628.97 194.966 1627.5 195.723L1624.75 190.388ZM1607.7 204.564C1606.12 205.051 1604.44 204.162 1603.95 202.578C1603.47 200.994 1604.36 199.316 1605.94 198.829L1607.7 204.564ZM1591.39 201.615C1593.04 201.461 1594.5 202.674 1594.65 204.323C1594.81 205.973 1593.59 207.435 1591.94 207.589L1591.39 201.615ZM1576.03 207.786C1574.38 207.679 1573.12 206.252 1573.23 204.599C1573.34 202.946 1574.76 201.692 1576.42 201.798L1576.03 207.786ZM1561.58 199.715C1563.19 200.073 1564.22 201.674 1563.86 203.292C1563.5 204.91 1561.9 205.932 1560.28 205.574L1561.58 199.715ZM1549.01 202.416C1547.42 201.936 1546.53 200.262 1547.01 198.676C1547.49 197.09 1549.16 196.193 1550.75 196.673L1549.01 202.416ZM1543.58 194.501C1545.16 194.99 1546.05 196.67 1545.56 198.253C1545.07 199.836 1543.39 200.722 1541.8 200.233L1543.58 194.501ZM1536.38 194.569C1536.7 192.942 1538.27 191.881 1539.9 192.198C1541.53 192.515 1542.59 194.091 1542.27 195.717L1536.38 194.569ZM1542.69 193.48C1542.4 195.11 1540.84 196.195 1539.21 195.903C1537.58 195.61 1536.49 194.051 1536.78 192.42L1542.69 193.48ZM1539.39 181.319C1539.85 179.726 1541.51 178.804 1543.1 179.261C1544.7 179.717 1545.62 181.378 1545.16 182.971L1539.39 181.319ZM1550.33 163.345C1550.04 164.977 1548.49 166.069 1546.86 165.785C1545.23 165.5 1544.13 163.946 1544.42 162.314L1550.33 163.345ZM1541.53 141.315C1540.72 139.87 1541.24 138.041 1542.68 137.23C1544.13 136.42 1545.96 136.934 1546.77 138.379L1541.53 141.315ZM1523.6 121.01C1525.18 121.494 1526.07 123.17 1525.59 124.755C1525.11 126.34 1523.43 127.232 1521.84 126.748L1523.6 121.01ZM1500.88 125.682C1499.38 126.384 1497.6 125.738 1496.89 124.237C1496.19 122.737 1496.84 120.951 1498.34 120.248L1500.88 125.682ZM1490.02 140.371C1489.82 138.726 1490.99 137.232 1492.64 137.034C1494.28 136.835 1495.78 138.008 1495.97 139.652L1490.02 140.371ZM1501.33 157.606C1501.99 159.126 1501.29 160.892 1499.77 161.552C1498.25 162.211 1496.49 161.513 1495.83 159.993L1501.33 157.606ZM1505.41 177.74C1504.5 176.359 1504.88 174.497 1506.26 173.582C1507.64 172.667 1509.5 173.045 1510.41 174.426L1505.41 177.74ZM1521.11 185.498C1522.53 186.349 1522.99 188.191 1522.14 189.613C1521.29 191.034 1519.45 191.497 1518.03 190.646L1521.11 185.498ZM1531.38 196.756C1529.83 196.185 1529.03 194.46 1529.6 192.905C1530.17 191.35 1531.9 190.553 1533.45 191.125L1531.38 196.756ZM1539.9 206.065C1539.48 207.668 1537.84 208.626 1536.23 208.205C1534.63 207.784 1533.67 206.144 1534.09 204.541L1539.9 206.065ZM1528.52 221.978C1529.11 220.428 1530.84 219.645 1532.39 220.23C1533.94 220.815 1534.72 222.546 1534.14 224.096L1528.52 221.978ZM1526.51 241.436C1525.75 242.913 1523.95 243.5 1522.47 242.748C1521 241.996 1520.41 240.189 1521.16 238.713L1526.51 241.436ZM1511.85 254.338C1512.8 252.982 1514.67 252.652 1516.03 253.603C1517.38 254.554 1517.71 256.425 1516.76 257.782L1511.85 254.338ZM1503.65 272.803C1502.42 273.913 1500.52 273.816 1499.41 272.586C1498.3 271.356 1498.4 269.459 1499.63 268.348L1503.65 272.803ZM1484.05 280.097C1485.44 279.2 1487.3 279.601 1488.2 280.993C1489.09 282.386 1488.69 284.243 1487.3 285.14L1484.05 280.097ZM1469.57 295.135C1468.08 295.867 1466.29 295.254 1465.56 293.767C1464.82 292.28 1465.44 290.482 1466.92 289.751L1469.57 295.135ZM1448.82 297.378C1450.39 296.833 1452.1 297.66 1452.64 299.225C1453.19 300.789 1452.36 302.499 1450.8 303.044L1448.82 297.378ZM1431.34 307.699C1429.69 307.856 1428.22 306.647 1428.07 304.998C1427.91 303.348 1429.12 301.883 1430.77 301.726L1431.34 307.699ZM1412.96 300.94C1414.59 301.219 1415.69 302.77 1415.41 304.403C1415.13 306.036 1413.58 307.133 1411.94 306.854L1412.96 300.94ZM1393.43 301.829C1391.87 301.266 1391.07 299.547 1391.63 297.989C1392.19 296.43 1393.91 295.622 1395.47 296.185L1393.43 301.829ZM1378.54 289.017C1380.04 289.727 1380.68 291.516 1379.97 293.013C1379.26 294.51 1377.47 295.148 1375.97 294.438L1378.54 289.017ZM1357.32 285.264C1355.83 284.531 1355.22 282.732 1355.95 281.246C1356.69 279.76 1358.49 279.15 1359.97 279.883L1357.32 285.264ZM1340.23 269.136C1341.63 270.026 1342.04 271.88 1341.15 273.278C1340.26 274.675 1338.41 275.086 1337.01 274.196L1340.23 269.136ZM1322.17 263.036C1320.89 261.986 1320.7 260.096 1321.75 258.814C1322.8 257.533 1324.69 257.345 1325.97 258.396L1322.17 263.036ZM1315.29 249.79C1316.59 250.807 1316.83 252.692 1315.81 254C1314.79 255.307 1312.91 255.542 1311.6 254.524L1315.29 249.79ZM1686.32 8.02986C1687.58 6.94938 1689.47 7.09172 1690.55 8.3478C1691.63 9.60387 1691.49 11.498 1690.23 12.5785L1686.32 8.02986ZM1694.97 11.0172C1693.32 10.8966 1692.07 9.45931 1692.2 7.80685C1692.32 6.15439 1693.75 4.91252 1695.41 5.03306L1694.97 11.0172ZM1703.96 9.32336C1705.04 10.5765 1704.9 12.471 1703.65 13.5549C1702.4 14.6389 1700.5 14.5017 1699.42 13.2486L1703.96 9.32336ZM1700.98 17.9645C1701.1 16.312 1702.54 15.0702 1704.19 15.1908C1705.85 15.3114 1707.09 16.7488 1706.97 18.4012L1700.98 17.9645ZM1702.66 26.9497C1701.4 28.0302 1699.51 27.8878 1698.43 26.6317C1697.35 25.3757 1697.49 23.4815 1698.75 22.401L1702.66 26.9497ZM1694.01 23.9624C1695.66 24.0829 1696.91 25.5202 1696.78 27.1727C1696.66 28.8251 1695.23 30.067 1693.57 29.9465L1694.01 23.9624ZM1685.02 25.6562C1683.94 24.4031 1684.08 22.5085 1685.33 21.4246C1686.58 20.3407 1688.48 20.4778 1689.56 21.7309L1685.02 25.6562ZM1688 17.0151C1687.88 18.6675 1686.44 19.9093 1684.79 19.7887C1683.13 19.6681 1681.89 18.2308 1682.01 16.5783L1688 17.0151ZM1695.57 22.6564C1696.62 26.5778 1697.5 30.5767 1698.22 34.6297L1692.32 35.6792C1691.63 31.7909 1690.78 27.9589 1689.77 24.2061L1695.57 22.6564ZM1700.53 59.0028C1700.65 67.1611 1700.11 75.3624 1698.9 83.4339L1692.97 82.5428C1694.13 74.8027 1694.64 66.9279 1694.53 59.0872L1700.53 59.0028ZM1693.14 107.278C1691.82 111.176 1690.31 114.997 1688.61 118.717L1683.15 116.225C1684.76 112.693 1686.2 109.059 1687.47 105.343L1693.14 107.278ZM1688.61 118.717C1686.61 123.094 1684.56 127.56 1682.42 132.037L1677.01 129.455C1679.12 125.026 1681.15 120.596 1683.15 116.225L1688.61 118.717ZM1668.58 158.157C1665.98 162.431 1663.23 166.588 1660.3 170.553L1655.48 166.986C1658.28 163.19 1660.93 159.188 1663.45 155.043L1668.58 158.157ZM1660.3 170.553C1657.5 174.344 1654.22 177.739 1650.64 180.809L1646.73 176.256C1650.03 173.425 1652.99 170.354 1655.48 166.986L1660.3 170.553ZM1627.5 195.723C1623.37 197.843 1619.25 199.801 1615.31 201.651L1612.76 196.22C1616.69 194.374 1620.73 192.455 1624.75 190.388L1627.5 195.723ZM1615.31 201.651C1612.89 202.787 1610.34 203.753 1607.7 204.564L1605.94 198.829C1608.33 198.092 1610.62 197.224 1612.76 196.22L1615.31 201.651ZM1591.94 207.589C1586.68 208.08 1581.31 208.126 1576.03 207.786L1576.42 201.798C1581.4 202.12 1586.46 202.074 1591.39 201.615L1591.94 207.589ZM1560.28 205.574C1557.61 204.985 1555.03 204.294 1552.56 203.51L1554.38 197.792C1556.66 198.518 1559.07 199.162 1561.58 199.715L1560.28 205.574ZM1552.56 203.51C1551.47 203.163 1550.28 202.8 1549.01 202.416L1550.75 196.673C1552.02 197.059 1553.24 197.432 1554.38 197.792L1552.56 203.51ZM1541.8 200.233C1540.62 199.867 1539.41 199.487 1538.19 199.092L1540.03 193.382C1541.22 193.768 1542.41 194.14 1543.58 194.501L1541.8 200.233ZM1536.17 195.641C1536.24 195.283 1536.31 194.925 1536.38 194.569L1542.27 195.717C1542.2 196.088 1542.12 196.46 1542.05 196.833L1536.17 195.641ZM1536.78 192.42C1536.85 192.06 1536.91 191.702 1536.97 191.344L1542.89 192.358C1542.82 192.731 1542.76 193.105 1542.69 193.48L1536.78 192.42ZM1536.97 191.344C1537.53 188.113 1538.42 184.716 1539.39 181.319L1545.16 182.971C1544.2 186.318 1543.38 189.459 1542.89 192.358L1536.97 191.344ZM1544.42 162.314C1544.99 159.029 1545.24 155.95 1545.01 153.127L1550.99 152.642C1551.28 156.138 1550.95 159.757 1550.33 163.345L1544.42 162.314ZM1545.01 153.127C1544.64 148.565 1543.41 144.651 1541.53 141.315L1546.77 138.379C1549.08 142.503 1550.56 147.259 1550.99 152.642L1545.01 153.127ZM1521.84 126.748C1517.82 125.518 1513.49 124.782 1509.08 124.522L1509.43 118.533C1514.27 118.818 1519.07 119.627 1523.6 121.01L1521.84 126.748ZM1509.08 124.522C1505.38 124.304 1502.74 124.811 1500.88 125.682L1498.34 120.248C1501.36 118.834 1505.06 118.275 1509.43 118.533L1509.08 124.522ZM1495.97 139.652C1496.63 145.113 1498.65 151.416 1501.33 157.606L1495.83 159.993C1493.02 153.521 1490.77 146.626 1490.02 140.371L1495.97 139.652ZM1510.41 174.426C1512.56 177.665 1514.53 180.176 1516.06 181.706L1511.81 185.943C1509.89 184.014 1507.66 181.137 1505.41 177.74L1510.41 174.426ZM1516.06 181.706C1517.35 183 1519.05 184.267 1521.11 185.498L1518.03 190.646C1515.7 189.251 1513.56 187.693 1511.81 185.943L1516.06 181.706ZM1533.45 191.125C1535.63 191.924 1537.84 192.674 1540.03 193.382L1538.19 199.092C1535.94 198.367 1533.65 197.59 1531.38 196.756L1533.45 191.125ZM1542.05 196.833C1541.43 199.86 1540.72 202.947 1539.9 206.065L1534.09 204.541C1534.88 201.529 1535.58 198.553 1536.17 195.641L1542.05 196.833ZM1534.14 224.096C1531.91 229.995 1529.36 235.836 1526.51 241.436L1521.16 238.713C1523.91 233.323 1526.37 227.686 1528.52 221.978L1534.14 224.096ZM1516.76 257.782C1514.9 260.444 1512.95 262.986 1510.92 265.378L1506.34 261.495C1508.24 259.257 1510.08 256.863 1511.85 254.338L1516.76 257.782ZM1510.92 265.378C1508.77 267.903 1506.32 270.386 1503.65 272.803L1499.63 268.348C1502.14 266.078 1504.4 263.785 1506.34 261.495L1510.92 265.378ZM1487.3 285.14C1481.64 288.787 1475.62 292.16 1469.57 295.135L1466.92 289.751C1472.78 286.871 1478.6 283.61 1484.05 280.097L1487.3 285.14ZM1450.8 303.044C1447.41 304.223 1444.12 305.226 1440.98 306.024L1439.5 300.21C1442.45 299.459 1445.58 298.508 1448.82 297.378L1450.8 303.044ZM1440.98 306.024C1437.76 306.846 1434.54 307.392 1431.34 307.699L1430.77 301.726C1433.67 301.448 1436.59 300.952 1439.5 300.21L1440.98 306.024ZM1411.94 306.854C1405.64 305.775 1399.46 304.003 1393.43 301.829L1395.47 296.185C1401.25 298.27 1407.08 299.934 1412.96 300.94L1411.94 306.854ZM1375.97 294.438C1373.11 293.082 1370.3 291.691 1367.53 290.302L1370.22 284.939C1372.96 286.317 1375.74 287.686 1378.54 289.017L1375.97 294.438ZM1367.53 290.302C1364.12 288.591 1360.73 286.947 1357.32 285.264L1359.97 279.883C1363.34 281.543 1366.79 283.217 1370.22 284.939L1367.53 290.302ZM1337.01 274.196C1333.74 272.114 1330.55 269.861 1327.46 267.362L1331.24 262.7C1334.12 265.034 1337.13 267.156 1340.23 269.136L1337.01 274.196ZM1327.46 267.362C1325.7 265.929 1323.93 264.48 1322.17 263.036L1325.97 258.396C1327.74 259.842 1329.49 261.28 1331.24 262.7L1327.46 267.362ZM1683.32 11.8773C1684.08 10.3679 1685.11 9.07398 1686.32 8.02986L1690.23 12.5785C1689.61 13.1171 1689.07 13.7862 1688.67 14.5774L1683.32 11.8773ZM1695.41 5.03306C1697 5.14944 1698.6 5.57469 1700.11 6.33208L1697.42 11.6948C1696.62 11.2967 1695.79 11.0773 1694.97 11.0172L1695.41 5.03306ZM1700.11 6.33208C1701.62 7.08913 1702.91 8.11443 1703.96 9.32336L1699.42 13.2486C1698.88 12.6254 1698.21 12.0927 1697.42 11.6948L1700.11 6.33208ZM1706.97 18.4012C1706.85 19.9969 1706.42 21.5936 1705.66 23.1023L1700.31 20.4021C1700.7 19.6113 1700.92 18.7853 1700.98 17.9645L1706.97 18.4012ZM1705.66 23.1023C1704.9 24.6116 1703.87 25.9055 1702.66 26.9497L1698.75 22.401C1699.37 21.8624 1699.91 21.1933 1700.31 20.4021L1705.66 23.1023ZM1693.57 29.9465C1691.98 29.8301 1690.38 29.4048 1688.87 28.6475L1691.56 23.2847C1692.36 23.6828 1693.19 23.9022 1694.01 23.9624L1693.57 29.9465ZM1688.87 28.6475C1687.36 27.8904 1686.07 26.8651 1685.02 25.6562L1689.56 21.7309C1690.1 22.3541 1690.77 22.8868 1691.56 23.2847L1688.87 28.6475ZM1682.01 16.5783C1682.13 14.9827 1682.56 13.3859 1683.32 11.8773L1688.67 14.5774C1688.28 15.3682 1688.06 16.1942 1688 17.0151L1682.01 16.5783Z" fill="#0AAAB6"/>
<circle cx="15.5" cy="15.5" r="15.5" transform="matrix(-1 0 0 1 1711 0)" fill="#0AAAB6"/>
<path d="M607.616 1013.26L606.27 1010.58L607.616 1013.26ZM596.18 1009.49L593.501 1010.84L596.18 1009.49ZM599.963 998.074L598.618 995.393L599.963 998.074ZM608.316 1011.76C608.744 1010.16 607.793 1008.52 606.193 1008.09C604.592 1007.66 602.948 1008.61 602.52 1010.21L608.316 1011.76ZM611.504 1095.23L608.775 1096.47L611.504 1095.23ZM636.575 1141.18L638.987 1139.4L636.575 1141.18ZM675.862 1168.2L677.137 1165.49L675.862 1168.2ZM730.115 1169.74L731.023 1172.6H731.023L730.115 1169.74ZM765.527 1154.67L767.651 1156.79L765.527 1154.67ZM769.718 1098.86L769.541 1095.87L769.718 1098.86ZM735.01 1126.95L732.02 1126.71L735.01 1126.95ZM742.243 1161.86L745.199 1161.35V1161.35L742.243 1161.86ZM770.279 1225.98L772.566 1224.04L770.279 1225.98ZM831.538 1261.53L830.798 1264.43L831.538 1261.53ZM895.472 1247.65L896.817 1250.33L895.472 1247.65ZM930.872 1227.41L928.983 1225.08L930.872 1227.41ZM950 1212.19L915.622 1216.45L936.5 1244.1L950 1212.19ZM600.136 1020.97C599.847 1022.6 600.934 1024.15 602.565 1024.44C604.197 1024.73 605.754 1023.65 606.044 1022.02L600.136 1020.97ZM604.063 1042.93C604.087 1041.28 602.762 1039.92 601.106 1039.89C599.449 1039.87 598.087 1041.19 598.064 1042.85L604.063 1042.93ZM599.531 1064.79C599.777 1066.42 601.305 1067.55 602.943 1067.31C604.582 1067.06 605.71 1065.53 605.464 1063.89L599.531 1064.79ZM610.378 1084.26C609.844 1082.7 608.139 1081.86 606.571 1082.39C605.003 1082.93 604.164 1084.63 604.699 1086.2L610.378 1084.26ZM614.317 1108.41C615.03 1109.91 616.82 1110.54 618.316 1109.83C619.812 1109.12 620.446 1107.32 619.733 1105.83L614.317 1108.41ZM631.863 1128.72C631.003 1127.31 629.158 1126.86 627.742 1127.72C626.325 1128.58 625.874 1130.42 626.734 1131.84L631.863 1128.72ZM642.867 1152.2C644.124 1153.28 646.018 1153.14 647.097 1151.88C648.176 1150.62 648.032 1148.73 646.775 1147.65L642.867 1152.2ZM666.403 1160.27C664.929 1159.51 663.121 1160.09 662.363 1161.56C661.605 1163.04 662.185 1164.85 663.659 1165.6L666.403 1160.27ZM688.487 1175.27C690.115 1175.58 691.684 1174.51 691.99 1172.88C692.297 1171.25 691.226 1169.68 689.598 1169.38L688.487 1175.27ZM716.202 1169.78C714.561 1170.01 713.416 1171.52 713.646 1173.16C713.875 1174.8 715.391 1175.95 717.032 1175.72L716.202 1169.78ZM734.199 1171.62C735.785 1171.14 736.681 1169.47 736.202 1167.88C735.722 1166.29 734.047 1165.4 732.462 1165.88L734.199 1171.62ZM738.884 1163.93C737.301 1164.42 736.414 1166.1 736.903 1167.68C737.392 1169.27 739.072 1170.15 740.655 1169.66L738.884 1163.93ZM745.728 1164.23C745.41 1162.61 743.835 1161.54 742.209 1161.86C740.583 1162.18 739.521 1163.75 739.839 1165.38L745.728 1164.23ZM739.462 1163.37C739.755 1165 741.314 1166.09 742.945 1165.79C744.576 1165.5 745.661 1163.94 745.368 1162.31L739.462 1163.37ZM743.023 1152.34C742.567 1150.74 740.905 1149.82 739.313 1150.28C737.72 1150.73 736.799 1152.4 737.255 1153.99L743.023 1152.34ZM732.618 1136.38C732.903 1138.01 734.457 1139.1 736.089 1138.82C737.721 1138.53 738.813 1136.98 738.529 1135.34L732.618 1136.38ZM741.077 1116.74C741.888 1115.3 741.373 1113.47 739.928 1112.66C738.483 1111.85 736.655 1112.36 735.844 1113.8L741.077 1116.74ZM756.781 1098.1C755.196 1098.58 754.304 1100.26 754.788 1101.84C755.272 1103.43 756.949 1104.32 758.533 1103.84L756.781 1098.1ZM777.086 1102.87C778.586 1103.57 780.372 1102.92 781.075 1101.42C781.778 1099.92 781.131 1098.14 779.631 1097.43L777.086 1102.87ZM787.262 1115.78C787.461 1114.13 786.288 1112.64 784.643 1112.44C782.999 1112.24 781.504 1113.42 781.306 1115.06L787.262 1115.78ZM776.53 1131.06C775.871 1132.58 776.569 1134.34 778.089 1135C779.609 1135.66 781.376 1134.96 782.035 1133.44L776.53 1131.06ZM773.422 1149.39C774.337 1148.01 773.96 1146.15 772.578 1145.23C771.197 1144.32 769.336 1144.69 768.42 1146.08L773.422 1149.39ZM758.941 1155.9C757.519 1156.75 757.056 1158.59 757.907 1160.01C758.758 1161.43 760.601 1161.9 762.022 1161.05L758.941 1155.9ZM750.006 1166.54C751.561 1165.97 752.358 1164.25 751.786 1162.69C751.214 1161.14 749.49 1160.34 747.935 1160.91L750.006 1166.54ZM741.968 1174.67C742.389 1176.27 744.029 1177.23 745.632 1176.81C747.235 1176.39 748.193 1174.75 747.772 1173.15L741.968 1174.67ZM752.75 1188.73C752.166 1187.18 750.435 1186.4 748.885 1186.99C747.334 1187.57 746.552 1189.3 747.137 1190.85L752.75 1188.73ZM753.987 1206.42C754.739 1207.89 756.546 1208.48 758.022 1207.73C759.499 1206.98 760.086 1205.17 759.334 1203.69L753.987 1206.42ZM767.652 1217.65C766.701 1216.3 764.83 1215.97 763.473 1216.92C762.116 1217.87 761.787 1219.74 762.738 1221.1L767.652 1217.65ZM774.534 1234.6C775.764 1235.71 777.661 1235.62 778.771 1234.39C779.881 1233.16 779.784 1231.26 778.554 1230.15L774.534 1234.6ZM792.468 1240.64C791.076 1239.75 789.219 1240.15 788.321 1241.54C787.424 1242.93 787.825 1244.79 789.218 1245.69L792.468 1240.64ZM805.13 1254.66C806.617 1255.39 808.415 1254.78 809.146 1253.29C809.877 1251.8 809.264 1250 807.777 1249.27L805.13 1254.66ZM823.955 1256.09C822.39 1255.55 820.68 1256.37 820.135 1257.94C819.59 1259.5 820.417 1261.21 821.981 1261.76L823.955 1256.09ZM839.487 1265.94C841.136 1266.1 842.601 1264.89 842.758 1263.24C842.916 1261.59 841.707 1260.13 840.057 1259.97L839.487 1265.94ZM855.93 1259.27C854.297 1259.55 853.2 1261.1 853.48 1262.73C853.759 1264.36 855.31 1265.46 856.943 1265.18L855.93 1259.27ZM873.578 1260.67C875.137 1260.1 875.944 1258.39 875.382 1256.83C874.82 1255.27 873.101 1254.46 871.542 1255.02L873.578 1260.67ZM886.674 1248.61C885.177 1249.32 884.539 1251.11 885.249 1252.61C885.959 1254.11 887.748 1254.74 889.245 1254.03L886.674 1248.61ZM905.961 1245.81C907.447 1245.08 908.057 1243.28 907.324 1241.8C906.591 1240.31 904.793 1239.7 903.307 1240.43L905.961 1245.81ZM920.957 1230.82C919.559 1231.71 919.148 1233.57 920.038 1234.97C920.928 1236.36 922.783 1236.77 924.18 1235.88L920.957 1230.82ZM937.507 1225.87C938.789 1224.81 938.976 1222.92 937.926 1221.64C936.875 1220.36 934.985 1220.17 933.704 1221.22L937.507 1225.87ZM943.281 1213.51C941.973 1214.53 941.739 1216.41 942.756 1217.72C943.774 1219.03 945.659 1219.26 946.966 1218.25L943.281 1213.51ZM611.311 996.956C610.055 995.876 608.161 996.018 607.08 997.274C606 998.53 606.142 1000.42 607.398 1001.5L611.311 996.956ZM603.383 1000.18C605.036 1000.06 606.278 998.623 606.157 996.971C606.036 995.318 604.599 994.076 602.947 994.197L603.383 1000.18ZM595.074 998.147C593.99 999.401 594.127 1001.3 595.38 1002.38C596.633 1003.46 598.527 1003.33 599.611 1002.07L595.074 998.147ZM598.285 1006.07C598.164 1004.42 596.727 1003.18 595.075 1003.3C593.422 1003.42 592.18 1004.85 592.301 1006.51L598.285 1006.07ZM596.268 1014.38C597.524 1015.46 599.418 1015.32 600.499 1014.06C601.579 1012.8 601.437 1010.91 600.181 1009.83L596.268 1014.38ZM604.196 1011.15C602.543 1011.27 601.301 1012.71 601.422 1014.36C601.542 1016.02 602.98 1017.26 604.632 1017.14L604.196 1011.15ZM612.505 1013.19C613.589 1011.93 613.452 1010.04 612.199 1008.96C610.946 1007.87 609.051 1008.01 607.967 1009.26L612.505 1013.19ZM609.294 1005.26C609.415 1006.92 610.852 1008.16 612.504 1008.04C614.157 1007.92 615.399 1006.48 615.278 1004.83L609.294 1005.26ZM602.52 1010.21C601.578 1013.74 600.783 1017.33 600.136 1020.97L606.044 1022.02C606.661 1018.54 607.42 1015.12 608.316 1011.76L602.52 1010.21ZM598.064 1042.85C597.961 1050.17 598.442 1057.54 599.531 1064.79L605.464 1063.89C604.426 1056.98 603.965 1049.94 604.063 1042.93L598.064 1042.85ZM604.699 1086.2C605.891 1089.7 607.249 1093.13 608.775 1096.47L614.233 1093.98C612.793 1090.83 611.509 1087.58 610.378 1084.26L604.699 1086.2ZM608.775 1096.47C610.565 1100.4 612.405 1104.4 614.317 1108.41L619.733 1105.83C617.843 1101.86 616.02 1097.9 614.233 1093.98L608.775 1096.47ZM626.734 1131.84C629.063 1135.67 631.53 1139.4 634.163 1142.96L638.987 1139.4C636.479 1136.01 634.114 1132.43 631.863 1128.72L626.734 1131.84ZM634.163 1142.96C636.69 1146.38 639.648 1149.44 642.867 1152.2L646.775 1147.65C643.835 1145.13 641.202 1142.39 638.987 1139.4L634.163 1142.96ZM663.659 1165.6C667.357 1167.51 671.055 1169.26 674.588 1170.92L677.137 1165.49C673.613 1163.83 669.998 1162.12 666.403 1160.27L663.659 1165.6ZM674.588 1170.92C678.863 1172.92 683.581 1174.35 688.487 1175.27L689.598 1169.38C685.092 1168.53 680.872 1167.24 677.137 1165.49L674.588 1170.92ZM717.032 1175.72C721.951 1175.03 726.692 1173.98 731.023 1172.6L729.207 1166.88C725.225 1168.15 720.817 1169.13 716.202 1169.78L717.032 1175.72ZM731.023 1172.6C732.001 1172.29 733.063 1171.96 734.199 1171.62L732.462 1165.88C731.317 1166.22 730.224 1166.56 729.207 1166.88L731.023 1172.6ZM740.655 1169.66C741.718 1169.34 742.803 1168.99 743.9 1168.64L742.056 1162.93C740.988 1163.28 739.928 1163.61 738.884 1163.93L740.655 1169.66ZM745.918 1165.19C745.853 1164.87 745.79 1164.55 745.728 1164.23L739.839 1165.38C739.904 1165.71 739.97 1166.05 740.038 1166.38L745.918 1165.19ZM745.368 1162.31C745.31 1161.99 745.254 1161.67 745.199 1161.35L739.286 1162.36C739.343 1162.7 739.402 1163.03 739.462 1163.37L745.368 1162.31ZM745.199 1161.35C744.7 1158.44 743.895 1155.38 743.023 1152.34L737.255 1153.99C738.113 1156.98 738.844 1159.78 739.286 1162.36L745.199 1161.35ZM738.529 1135.34C738.018 1132.42 737.798 1129.69 738 1127.19L732.02 1126.71C731.763 1129.88 732.055 1133.15 732.618 1136.38L738.529 1135.34ZM738 1127.19C738.329 1123.15 739.423 1119.69 741.077 1116.74L735.844 1113.8C733.748 1117.54 732.415 1121.84 732.02 1126.71L738 1127.19ZM758.533 1103.84C762.115 1102.74 765.962 1102.09 769.894 1101.86L769.541 1095.87C765.184 1096.12 760.863 1096.85 756.781 1098.1L758.533 1103.84ZM769.894 1101.86C773.173 1101.66 775.482 1102.12 777.086 1102.87L779.631 1097.43C776.865 1096.14 773.49 1095.64 769.541 1095.87L769.894 1101.86ZM781.306 1115.06C780.72 1119.91 778.928 1125.53 776.53 1131.06L782.035 1133.44C784.555 1127.63 786.581 1121.42 787.262 1115.78L781.306 1115.06ZM768.42 1146.08C766.504 1148.97 764.75 1151.2 763.403 1152.55L767.651 1156.79C769.396 1155.04 771.401 1152.44 773.422 1149.39L768.42 1146.08ZM763.403 1152.55C762.27 1153.68 760.767 1154.8 758.941 1155.9L762.022 1161.05C764.125 1159.79 766.064 1158.38 767.651 1156.79L763.403 1152.55ZM747.935 1160.91C745.995 1161.63 744.016 1162.3 742.056 1162.93L743.9 1168.64C745.913 1167.99 747.971 1167.29 750.006 1166.54L747.935 1160.91ZM740.038 1166.38C740.588 1169.1 741.233 1171.87 741.968 1174.67L747.772 1173.15C747.065 1170.45 746.446 1167.79 745.918 1165.19L740.038 1166.38ZM747.137 1190.85C749.134 1196.15 751.426 1201.39 753.987 1206.42L759.334 1203.69C756.88 1198.88 754.676 1193.84 752.75 1188.73L747.137 1190.85ZM762.738 1221.1C764.415 1223.49 766.167 1225.77 767.992 1227.92L772.566 1224.04C770.871 1222.04 769.232 1219.91 767.652 1217.65L762.738 1221.1ZM767.992 1227.92C769.923 1230.2 772.127 1232.43 774.534 1234.6L778.554 1230.15C776.309 1228.12 774.297 1226.08 772.566 1224.04L767.992 1227.92ZM789.218 1245.69C794.297 1248.96 799.699 1251.99 805.13 1254.66L807.777 1249.27C802.539 1246.7 797.34 1243.78 792.468 1240.64L789.218 1245.69ZM821.981 1261.76C825.021 1262.82 827.979 1263.72 830.798 1264.43L832.278 1258.62C829.647 1257.95 826.854 1257.1 823.955 1256.09L821.981 1261.76ZM830.798 1264.43C833.704 1265.17 836.602 1265.67 839.487 1265.94L840.057 1259.97C837.469 1259.72 834.875 1259.28 832.278 1258.62L830.798 1264.43ZM856.943 1265.18C862.609 1264.21 868.168 1262.62 873.578 1260.67L871.542 1255.02C866.379 1256.89 861.169 1258.37 855.93 1259.27L856.943 1265.18ZM889.245 1254.03C891.81 1252.82 894.336 1251.57 896.817 1250.33L894.126 1244.96C891.668 1246.2 889.184 1247.42 886.674 1248.61L889.245 1254.03ZM896.817 1250.33C899.87 1248.79 902.901 1247.32 905.961 1245.81L903.307 1240.43C900.295 1241.92 897.201 1243.42 894.126 1244.96L896.817 1250.33ZM924.18 1235.88C927.116 1234.01 929.987 1231.99 932.761 1229.74L928.983 1225.08C926.414 1227.16 923.732 1229.06 920.957 1230.82L924.18 1235.88ZM932.761 1229.74C934.346 1228.46 935.929 1227.16 937.507 1225.87L933.704 1221.22C932.123 1222.52 930.553 1223.81 928.983 1225.08L932.761 1229.74ZM614.078 1000.5C613.377 999.11 612.429 997.918 611.311 996.956L607.398 1001.5C607.928 1001.96 608.381 1002.53 608.72 1003.2L614.078 1000.5ZM602.947 994.197C601.477 994.304 600.007 994.696 598.618 995.393L601.309 1000.76C601.982 1000.42 602.685 1000.23 603.383 1000.18L602.947 994.197ZM598.618 995.393C597.229 996.09 596.037 997.034 595.074 998.147L599.611 1002.07C600.068 1001.54 600.636 1001.09 601.309 1000.76L598.618 995.393ZM592.301 1006.51C592.408 1007.98 592.801 1009.45 593.501 1010.84L598.859 1008.14C598.521 1007.46 598.336 1006.76 598.285 1006.07L592.301 1006.51ZM593.501 1010.84C594.201 1012.23 595.15 1013.42 596.268 1014.38L600.181 1009.83C599.651 1009.37 599.198 1008.81 598.859 1008.14L593.501 1010.84ZM604.632 1017.14C606.101 1017.03 607.572 1016.64 608.961 1015.94L606.27 1010.58C605.597 1010.92 604.894 1011.1 604.196 1011.15L604.632 1017.14ZM608.961 1015.94C610.35 1015.24 611.542 1014.3 612.505 1013.19L607.967 1009.26C607.511 1009.79 606.943 1010.24 606.27 1010.58L608.961 1015.94ZM615.278 1004.83C615.171 1003.36 614.778 1001.89 614.078 1000.5L608.72 1003.2C609.058 1003.87 609.243 1004.57 609.294 1005.26L615.278 1004.83Z" fill="#F2786A"/>
<circle cx="602.885" cy="1003.88" r="13.8846" fill="#F2786A"/>
</svg>
