<svg width="393" height="448" viewBox="0 0 393 448" fill="none" xmlns="http://www.w3.org/2000/svg">
<path d="M193.569 89.1884C210.069 104.925 268.051 92.3363 281.101 106.683C282.899 111.059 275.067 134.6 277.65 131.038C277.65 119.141 284.905 143.386 291.814 134.762C298.401 126.54 302.142 126.54 312.781 126.541H312.925C321.839 126.541 328.471 121.404 335.471 116.873C356.758 103.095 370.159 82.8597 391.626 68.9905C416.002 53.242 445.957 38.8452 476.491 38.8452C490.42 38.8452 500.931 42.5438 513.9 46.9144C542.731 56.6307 570.502 65.7408 601.72 60.0078C624.485 55.8275 641.556 36.5341 661.422 26.8176C689.264 13.1995 713.289 9.35282 743.923 13.5719C773.274 17.6143 801.833 36.4376 826.508 50.34C848.355 62.649 853.029 77.5813 852.854 99.7448C852.614 130.299 839.4 163.179 814.01 184.243C785.948 207.524 748.122 215.821 712.425 225.198C687.268 231.806 662.629 239.58 638.706 249.253C628.427 253.41 608.211 258.957 603.071 269.35C593.274 289.164 623.189 308.965 640.057 313.426C661.399 319.07 691.407 304.671 709.6 295.941L709.808 295.841C745.893 278.527 782.741 275.061 823.13 276.201C857.991 277.186 896.147 278.824 928.178 292.644C947.408 300.941 969.38 314.571 970.821 335.578C973.171 369.828 951.965 396.532 929.866 422.056C917.078 436.826 897.488 444.14 877.174 446.263C846.819 449.436 814.948 447.319 784.455 447.177C714.67 446.851 646.584 431.225 577.907 421.599C520.991 413.621 466.643 399.442 411.723 384.298C400.02 381.071 388.362 379.442 376.595 376.686C371.564 375.507 366.915 373.184 361.649 373.184C319.091 373.184 274.974 384.131 238.784 404.243C224.935 411.939 211.356 420.026 197.238 427.384C191.813 430.211 185.89 431.924 180.687 435.149C176.699 437.621 172.84 440.947 168.189 442.381C150.298 447.899 124.757 448.113 107.559 441.163C96.7 436.775 93.6477 431.959 90.1638 421.751C86.507 411.037 82.3273 400.553 74.6263 391.682C59.5735 374.343 33.9471 377.362 11.4628 377.295C-24.8257 377.186 -60.7576 378.565 -96.9622 380.796C-125.153 382.534 -153.728 383.884 -181.912 381.101C-205.121 378.809 -238.249 368.16 -239.84 343.419C-241.008 325.26 -242.937 302.983 -235.956 285.641C-226.931 263.223 -206.925 249.368 -182.419 241.945C-156.172 233.995 -125.337 234.022 -98.4822 239.738C-79.9087 243.691 -62.7795 250.88 -43.0875 246.208C-25.0211 241.922 -16.1505 227.785 -21.2167 212.181C-26.5854 195.645 -45.9361 183.23 -61.8338 175.413C-76.7767 168.065 -91.5918 159.756 -106.758 152.88C-125.904 144.199 -146.621 137.991 -166.543 130.956C-186.188 124.019 -214.314 112.381 -226.245 95.7102C-234.153 84.66 -233.817 70.8305 -229.031 58.7898C-220.653 37.7111 -205.742 36.1048 -182.841 36.1048C-155.399 36.1048 -127.457 34.5865 -100.34 39.1497C-81.701 42.2862 -64.1967 48.4376 -46.9718 55.4404C-29.0324 62.7337 -13.3385 76.626 6.05846 80.7137C10.3212 81.612 16.335 81.9705 20.7516 81.2466C27.3814 80.1599 24.4671 67.1597 24.4671 62.9006C24.4671 52.791 19.8611 44.7876 16.8672 35.1913C14.9785 29.1376 12.2099 13.7483 17.036 8.77607C27.5045 -2.00921 39.7396 -0.0947403 54.8666 0.554631C63.2682 0.915295 69.7772 4.99244 77.244 8.09095C91.0809 13.8328 105.916 18.5208 118.368 26.5892C133.811 36.5953 153.387 45.5861 165.149 59.3988C176.368 72.5734 175.046 71.5222 193.569 89.1884Z" fill="#0A63B6"/>
</svg>
