<svg width="1920" height="1212" viewBox="0 0 1920 1212" fill="none" xmlns="http://www.w3.org/2000/svg">
<mask id="mask0_150_9" style="mask-type:alpha" maskUnits="userSpaceOnUse" x="0" y="179" width="1920" height="1003">
<rect y="179" width="1920" height="1003" fill="#F2786A"/>
</mask>
<g mask="url(#mask0_150_9)">
<rect y="179" width="1920" height="1035" fill="#F2786A"/>
<path fill-rule="evenodd" clip-rule="evenodd" d="M685.7 925.63C690.944 937.325 692.439 951.409 689.829 965.312C687.227 979.236 680.79 991.367 671.93 999.657C663.207 1007.79 650.685 1013.31 636.509 1010.05C622.164 1006.75 612.405 995.941 607.218 984.356C601.975 972.661 600.473 958.591 603.083 944.688C605.685 930.764 612.122 918.632 620.982 910.343C629.711 902.2 642.226 896.691 656.402 899.954C670.748 903.253 680.506 914.059 685.693 925.643L685.7 925.63ZM663.133 932.186C660.001 925.206 655.973 922.531 653.043 921.85C649.951 921.153 644.978 921.908 639.385 927.124C633.953 932.209 629.232 940.499 627.288 950.929C625.33 961.385 626.677 970.962 629.759 977.852C632.891 984.832 636.926 987.495 639.863 988.163C642.947 988.873 647.921 988.118 653.514 982.902C658.946 977.817 663.666 969.526 665.611 959.096C667.569 948.64 666.215 939.076 663.133 932.186ZM659.927 1034.4C672.764 1036.78 684.871 1042.9 694.392 1051.83C704.946 1061.73 709.403 1075.32 711.936 1091.07C714.466 1106.91 715.446 1127.66 716.652 1154.07L718.085 1184.99C718.415 1191.77 718.655 1197.18 718.671 1201.39C718.698 1205.54 718.524 1209.49 717.543 1212.92C711.056 1236.01 683.208 1246.68 658.227 1234.83C654.343 1232.84 650.694 1230.43 647.367 1227.66C642.689 1223.9 638.075 1220.07 633.528 1216.18L633.314 1216C629.172 1212.38 624.914 1208.87 620.547 1205.49C608.33 1196.35 594.512 1189.36 579.909 1184.93C574.594 1183.43 569.247 1182.07 563.875 1180.88L563.609 1180.81C556.41 1179.08 550.645 1177.72 546.176 1176.47C541.966 1175.43 537.856 1173.92 533.944 1171.97C509.595 1158.87 501.69 1130.11 516.449 1111.2C518.629 1108.38 521.724 1105.91 525.069 1103.46C528.47 1100.98 532.979 1097.98 538.629 1094.21L564.378 1077.05C586.383 1062.38 603.661 1050.84 617.922 1043.52C632.112 1036.23 645.682 1031.76 659.927 1034.4ZM677.84 1066.7C672.294 1061.49 665.24 1057.92 657.761 1056.54C652.379 1055.54 644.888 1056.77 631.669 1063.55C618.621 1070.26 602.34 1081.1 579.602 1096.25L554.642 1112.89C548.761 1116.82 544.61 1119.59 541.58 1121.79C539.864 1122.92 538.305 1124.23 536.93 1125.7C530.127 1134.42 534.05 1147.17 544.461 1152.78C545.054 1153.09 546.605 1153.75 550.703 1154.87C556.272 1156.35 561.857 1157.73 567.456 1159.03L567.959 1159.15C575.969 1161.06 580.605 1162.16 585.125 1163.53C602.932 1168.93 619.782 1177.45 634.679 1188.6C638.476 1191.44 642.111 1194.52 648.411 1199.85L648.793 1200.17C654.696 1205.17 658.85 1208.67 662.069 1211.2C665.388 1213.83 666.864 1214.71 667.455 1214.99C678.136 1220.06 690.739 1215.65 693.736 1205C694.101 1203.02 694.231 1201 694.124 1198.95C694.03 1193.69 693.838 1188.43 693.55 1183.15L692.167 1153.19C690.915 1125.9 689.978 1106.36 687.652 1091.87C685.286 1077.2 681.832 1070.45 677.84 1066.7ZM732.326 986.807C741.978 976.466 754.209 969.326 766.73 966.633C779.136 963.946 793.623 965.404 804.781 975.005C815.809 984.491 818.788 997.837 817.401 1009.69C815.995 1021.74 810.016 1034.12 800.341 1044.46C790.688 1054.8 778.464 1061.93 765.936 1064.64C753.531 1067.32 739.044 1065.87 727.886 1056.27C716.864 1046.77 713.886 1033.42 715.266 1021.58C716.693 1009.53 722.651 997.154 732.326 986.807ZM789.133 990.686C786.855 988.716 782.319 987.043 774.835 988.67C767.48 990.264 758.952 994.846 751.696 1002.61C744.44 1010.37 740.544 1019.07 739.697 1026.48C738.794 1034.07 741.133 1038.52 743.548 1040.59C745.811 1042.55 750.347 1044.23 757.832 1042.6C765.202 1041.01 773.714 1036.42 780.97 1028.66C788.233 1020.89 792.122 1012.2 792.984 1004.8C793.872 997.204 791.533 992.75 789.133 990.686ZM569.251 984.676C563.383 975.331 553.816 967.123 541.384 964.988C528.9 962.844 518.352 967.663 511.325 974.934C504.269 982.223 499.989 992.583 499.257 1004.15C498.54 1015.72 501.472 1027.26 507.38 1036.68C513.248 1046.02 522.822 1054.22 535.247 1056.37C547.731 1058.51 558.279 1053.69 565.306 1046.42C572.361 1039.13 576.657 1028.78 577.374 1017.2C578.091 1005.63 575.159 994.091 569.251 984.676ZM548.341 994.278C551.34 999.065 553.331 1005.84 552.869 1013.38C552.393 1020.9 549.614 1026.81 546.162 1030.36C542.711 1033.95 539.391 1034.56 537.067 1034.17C534.677 1033.76 531.335 1031.92 528.289 1027.08C525.291 1022.29 523.307 1015.5 523.761 1007.98C524.237 1000.45 527.017 994.546 530.469 990.994C533.92 987.409 537.239 986.799 539.563 987.189C541.954 987.597 545.296 989.435 548.341 994.278ZM820.555 1106.18C811.462 1097.44 799.175 1094.61 788.177 1095.41C777.092 1096.23 766.065 1100.69 757.16 1108.14C748.277 1115.59 742.482 1125.18 740.777 1135.18C739.084 1145.14 741.452 1156.5 750.577 1165.28C759.663 1174.03 771.95 1176.86 782.948 1176.06C794.033 1175.24 805.06 1170.78 813.965 1163.33C822.864 1155.9 828.658 1146.3 830.349 1136.3C832.041 1126.33 829.673 1114.98 820.548 1106.19L820.555 1106.18ZM774.778 1125.62C780.558 1120.78 787.205 1118.35 792.831 1117.94C798.537 1117.53 802.007 1119.15 803.743 1120.81C805.442 1122.44 806.911 1125.49 806.082 1130.4C805.252 1135.28 802.15 1141 796.363 1145.86C790.574 1150.68 783.926 1153.11 778.294 1153.53C772.588 1153.95 769.134 1152.33 767.382 1150.66C765.683 1149.03 764.215 1145.98 765.043 1141.07C765.873 1136.19 768.975 1130.47 774.763 1125.61L774.778 1125.62Z" fill="#0AAAB6"/>
<path fill-rule="evenodd" clip-rule="evenodd" d="M685.7 925.63C690.944 937.325 692.439 951.409 689.829 965.312C687.227 979.236 680.79 991.367 671.93 999.657C663.207 1007.79 650.685 1013.31 636.509 1010.05C622.164 1006.75 612.405 995.941 607.218 984.356C601.975 972.661 600.473 958.591 603.083 944.688C605.685 930.764 612.122 918.632 620.982 910.343C629.711 902.2 642.226 896.691 656.402 899.954C670.748 903.253 680.506 914.059 685.693 925.643L685.7 925.63ZM663.133 932.186C660.001 925.206 655.973 922.531 653.043 921.85C649.951 921.153 644.978 921.908 639.385 927.124C633.953 932.209 629.232 940.499 627.288 950.929C625.33 961.385 626.677 970.962 629.759 977.852C632.891 984.832 636.926 987.495 639.863 988.163C642.947 988.873 647.921 988.118 653.514 982.902C658.946 977.817 663.666 969.526 665.611 959.096C667.569 948.64 666.215 939.076 663.133 932.186ZM659.927 1034.4C672.764 1036.78 684.871 1042.9 694.392 1051.83C704.946 1061.73 709.403 1075.32 711.936 1091.07C714.466 1106.91 715.446 1127.66 716.652 1154.07L718.085 1184.99C718.415 1191.77 718.655 1197.18 718.671 1201.39C718.698 1205.54 718.524 1209.49 717.543 1212.92C711.056 1236.01 683.208 1246.68 658.227 1234.83C654.343 1232.84 650.694 1230.43 647.367 1227.66C642.689 1223.9 638.075 1220.07 633.528 1216.18L633.314 1216C629.172 1212.38 624.914 1208.87 620.547 1205.49C608.33 1196.35 594.512 1189.36 579.909 1184.93C574.594 1183.43 569.247 1182.07 563.875 1180.88L563.609 1180.81C556.41 1179.08 550.645 1177.72 546.176 1176.47C541.966 1175.43 537.856 1173.92 533.944 1171.97C509.595 1158.87 501.69 1130.11 516.449 1111.2C518.629 1108.38 521.724 1105.91 525.069 1103.46C528.47 1100.98 532.979 1097.98 538.629 1094.21L564.378 1077.05C586.383 1062.38 603.661 1050.84 617.922 1043.52C632.112 1036.23 645.682 1031.76 659.927 1034.4ZM677.84 1066.7C672.294 1061.49 665.24 1057.92 657.761 1056.54C652.379 1055.54 644.888 1056.77 631.669 1063.55C618.621 1070.26 602.34 1081.1 579.602 1096.25L554.642 1112.89C548.761 1116.82 544.61 1119.59 541.58 1121.79C539.864 1122.92 538.305 1124.23 536.93 1125.7C530.127 1134.42 534.05 1147.17 544.461 1152.78C545.054 1153.09 546.605 1153.75 550.703 1154.87C556.272 1156.35 561.857 1157.73 567.456 1159.03L567.959 1159.15C575.969 1161.06 580.605 1162.16 585.125 1163.53C602.932 1168.93 619.782 1177.45 634.679 1188.6C638.476 1191.44 642.111 1194.52 648.411 1199.85L648.793 1200.17C654.696 1205.17 658.85 1208.67 662.069 1211.2C665.388 1213.83 666.864 1214.71 667.455 1214.99C678.136 1220.06 690.739 1215.65 693.736 1205C694.101 1203.02 694.231 1201 694.124 1198.95C694.03 1193.69 693.838 1188.43 693.55 1183.15L692.167 1153.19C690.915 1125.9 689.978 1106.36 687.652 1091.87C685.286 1077.2 681.832 1070.45 677.84 1066.7ZM732.326 986.807C741.978 976.466 754.209 969.326 766.73 966.633C779.136 963.946 793.623 965.404 804.781 975.005C815.809 984.491 818.788 997.837 817.401 1009.69C815.995 1021.74 810.016 1034.12 800.341 1044.46C790.688 1054.8 778.464 1061.93 765.936 1064.64C753.531 1067.32 739.044 1065.87 727.886 1056.27C716.864 1046.77 713.886 1033.42 715.266 1021.58C716.693 1009.53 722.651 997.154 732.326 986.807ZM789.133 990.686C786.855 988.716 782.319 987.043 774.835 988.67C767.48 990.264 758.952 994.846 751.696 1002.61C744.44 1010.37 740.544 1019.07 739.697 1026.48C738.794 1034.07 741.133 1038.52 743.548 1040.59C745.811 1042.55 750.347 1044.23 757.832 1042.6C765.202 1041.01 773.714 1036.42 780.97 1028.66C788.233 1020.89 792.122 1012.2 792.984 1004.8C793.872 997.204 791.533 992.75 789.133 990.686ZM569.251 984.676C563.383 975.331 553.816 967.123 541.384 964.988C528.9 962.844 518.352 967.663 511.325 974.934C504.269 982.223 499.989 992.583 499.257 1004.15C498.54 1015.72 501.472 1027.26 507.38 1036.68C513.248 1046.02 522.822 1054.22 535.247 1056.37C547.731 1058.51 558.279 1053.69 565.306 1046.42C572.361 1039.13 576.657 1028.78 577.374 1017.2C578.091 1005.63 575.159 994.091 569.251 984.676ZM548.341 994.278C551.34 999.065 553.331 1005.84 552.869 1013.38C552.393 1020.9 549.614 1026.81 546.162 1030.36C542.711 1033.95 539.391 1034.56 537.067 1034.17C534.677 1033.76 531.335 1031.92 528.289 1027.08C525.291 1022.29 523.307 1015.5 523.761 1007.98C524.237 1000.45 527.017 994.546 530.469 990.994C533.92 987.409 537.239 986.799 539.563 987.189C541.954 987.597 545.296 989.435 548.341 994.278ZM820.555 1106.18C811.462 1097.44 799.175 1094.61 788.177 1095.41C777.092 1096.23 766.065 1100.69 757.16 1108.14C748.277 1115.59 742.482 1125.18 740.777 1135.18C739.084 1145.14 741.452 1156.5 750.577 1165.28C759.663 1174.03 771.95 1176.86 782.948 1176.06C794.033 1175.24 805.06 1170.78 813.965 1163.33C822.864 1155.9 828.658 1146.3 830.349 1136.3C832.041 1126.33 829.673 1114.98 820.548 1106.19L820.555 1106.18ZM774.778 1125.62C780.558 1120.78 787.205 1118.35 792.831 1117.94C798.537 1117.53 802.007 1119.15 803.743 1120.81C805.442 1122.44 806.911 1125.49 806.082 1130.4C805.252 1135.28 802.15 1141 796.363 1145.86C790.574 1150.68 783.926 1153.11 778.294 1153.53C772.588 1153.95 769.134 1152.33 767.382 1150.66C765.683 1149.03 764.215 1145.98 765.043 1141.07C765.873 1136.19 768.975 1130.47 774.763 1125.61L774.778 1125.62Z" fill="#0AAAB6"/>
<path fill-rule="evenodd" clip-rule="evenodd" d="M685.7 925.63C690.944 937.325 692.439 951.409 689.829 965.312C687.227 979.236 680.79 991.367 671.93 999.657C663.207 1007.79 650.685 1013.31 636.509 1010.05C622.164 1006.75 612.405 995.941 607.218 984.356C601.975 972.661 600.473 958.591 603.083 944.688C605.685 930.764 612.122 918.632 620.982 910.343C629.711 902.2 642.226 896.691 656.402 899.954C670.748 903.253 680.506 914.059 685.693 925.643L685.7 925.63ZM663.133 932.186C660.001 925.206 655.973 922.531 653.043 921.85C649.951 921.153 644.978 921.908 639.385 927.124C633.953 932.209 629.232 940.499 627.288 950.929C625.33 961.385 626.677 970.962 629.759 977.852C632.891 984.832 636.926 987.495 639.863 988.163C642.947 988.873 647.921 988.118 653.514 982.902C658.946 977.817 663.666 969.526 665.611 959.096C667.569 948.64 666.215 939.076 663.133 932.186ZM659.927 1034.4C672.764 1036.78 684.871 1042.9 694.392 1051.83C704.946 1061.73 709.403 1075.32 711.936 1091.07C714.466 1106.91 715.446 1127.66 716.652 1154.07L718.085 1184.99C718.415 1191.77 718.655 1197.18 718.671 1201.39C718.698 1205.54 718.524 1209.49 717.543 1212.92C711.056 1236.01 683.208 1246.68 658.227 1234.83C654.343 1232.84 650.694 1230.43 647.367 1227.66C642.689 1223.9 638.075 1220.07 633.528 1216.18L633.314 1216C629.172 1212.38 624.914 1208.87 620.547 1205.49C608.33 1196.35 594.512 1189.36 579.909 1184.93C574.594 1183.43 569.247 1182.07 563.875 1180.88L563.609 1180.81C556.41 1179.08 550.645 1177.72 546.176 1176.47C541.966 1175.43 537.856 1173.92 533.944 1171.97C509.595 1158.87 501.69 1130.11 516.449 1111.2C518.629 1108.38 521.724 1105.91 525.069 1103.46C528.47 1100.98 532.979 1097.98 538.629 1094.21L564.378 1077.05C586.383 1062.38 603.661 1050.84 617.922 1043.52C632.112 1036.23 645.682 1031.76 659.927 1034.4ZM677.84 1066.7C672.294 1061.49 665.24 1057.92 657.761 1056.54C652.379 1055.54 644.888 1056.77 631.669 1063.55C618.621 1070.26 602.34 1081.1 579.602 1096.25L554.642 1112.89C548.761 1116.82 544.61 1119.59 541.58 1121.79C539.864 1122.92 538.305 1124.23 536.93 1125.7C530.127 1134.42 534.05 1147.17 544.461 1152.78C545.054 1153.09 546.605 1153.75 550.703 1154.87C556.272 1156.35 561.857 1157.73 567.456 1159.03L567.959 1159.15C575.969 1161.06 580.605 1162.16 585.125 1163.53C602.932 1168.93 619.782 1177.45 634.679 1188.6C638.476 1191.44 642.111 1194.52 648.411 1199.85L648.793 1200.17C654.696 1205.17 658.85 1208.67 662.069 1211.2C665.388 1213.83 666.864 1214.71 667.455 1214.99C678.136 1220.06 690.739 1215.65 693.736 1205C694.101 1203.02 694.231 1201 694.124 1198.95C694.03 1193.69 693.838 1188.43 693.55 1183.15L692.167 1153.19C690.915 1125.9 689.978 1106.36 687.652 1091.87C685.286 1077.2 681.832 1070.45 677.84 1066.7ZM732.326 986.807C741.978 976.466 754.209 969.326 766.73 966.633C779.136 963.946 793.623 965.404 804.781 975.005C815.809 984.491 818.788 997.837 817.401 1009.69C815.995 1021.74 810.016 1034.12 800.341 1044.46C790.688 1054.8 778.464 1061.93 765.936 1064.64C753.531 1067.32 739.044 1065.87 727.886 1056.27C716.864 1046.77 713.886 1033.42 715.266 1021.58C716.693 1009.53 722.651 997.154 732.326 986.807ZM789.133 990.686C786.855 988.716 782.319 987.043 774.835 988.67C767.48 990.264 758.952 994.846 751.696 1002.61C744.44 1010.37 740.544 1019.07 739.697 1026.48C738.794 1034.07 741.133 1038.52 743.548 1040.59C745.811 1042.55 750.347 1044.23 757.832 1042.6C765.202 1041.01 773.714 1036.42 780.97 1028.66C788.233 1020.89 792.122 1012.2 792.984 1004.8C793.872 997.204 791.533 992.75 789.133 990.686ZM569.251 984.676C563.383 975.331 553.816 967.123 541.384 964.988C528.9 962.844 518.352 967.663 511.325 974.934C504.269 982.223 499.989 992.583 499.257 1004.15C498.54 1015.72 501.472 1027.26 507.38 1036.68C513.248 1046.02 522.822 1054.22 535.247 1056.37C547.731 1058.51 558.279 1053.69 565.306 1046.42C572.361 1039.13 576.657 1028.78 577.374 1017.2C578.091 1005.63 575.159 994.091 569.251 984.676ZM548.341 994.278C551.34 999.065 553.331 1005.84 552.869 1013.38C552.393 1020.9 549.614 1026.81 546.162 1030.36C542.711 1033.95 539.391 1034.56 537.067 1034.17C534.677 1033.76 531.335 1031.92 528.289 1027.08C525.291 1022.29 523.307 1015.5 523.761 1007.98C524.237 1000.45 527.017 994.546 530.469 990.994C533.92 987.409 537.239 986.799 539.563 987.189C541.954 987.597 545.296 989.435 548.341 994.278ZM820.555 1106.18C811.462 1097.44 799.175 1094.61 788.177 1095.41C777.092 1096.23 766.065 1100.69 757.16 1108.14C748.277 1115.59 742.482 1125.18 740.777 1135.18C739.084 1145.14 741.452 1156.5 750.577 1165.28C759.663 1174.03 771.95 1176.86 782.948 1176.06C794.033 1175.24 805.06 1170.78 813.965 1163.33C822.864 1155.9 828.658 1146.3 830.349 1136.3C832.041 1126.33 829.673 1114.98 820.548 1106.19L820.555 1106.18ZM774.778 1125.62C780.558 1120.78 787.205 1118.35 792.831 1117.94C798.537 1117.53 802.007 1119.15 803.743 1120.81C805.442 1122.44 806.911 1125.49 806.082 1130.4C805.252 1135.28 802.15 1141 796.363 1145.86C790.574 1150.68 783.926 1153.11 778.294 1153.53C772.588 1153.95 769.134 1152.33 767.382 1150.66C765.683 1149.03 764.215 1145.98 765.043 1141.07C765.873 1136.19 768.975 1130.47 774.763 1125.61L774.778 1125.62Z" fill="#0AAAB6"/>
<path fill-rule="evenodd" clip-rule="evenodd" d="M685.7 925.63C690.944 937.325 692.439 951.409 689.829 965.312C687.227 979.236 680.79 991.367 671.93 999.657C663.207 1007.79 650.685 1013.31 636.509 1010.05C622.164 1006.75 612.405 995.941 607.218 984.356C601.975 972.661 600.473 958.591 603.083 944.688C605.685 930.764 612.122 918.632 620.982 910.343C629.711 902.2 642.226 896.691 656.402 899.954C670.748 903.253 680.506 914.059 685.693 925.643L685.7 925.63ZM663.133 932.186C660.001 925.206 655.973 922.531 653.043 921.85C649.951 921.153 644.978 921.908 639.385 927.124C633.953 932.209 629.232 940.499 627.288 950.929C625.33 961.385 626.677 970.962 629.759 977.852C632.891 984.832 636.926 987.495 639.863 988.163C642.947 988.873 647.921 988.118 653.514 982.902C658.946 977.817 663.666 969.526 665.611 959.096C667.569 948.64 666.215 939.076 663.133 932.186ZM659.927 1034.4C672.764 1036.78 684.871 1042.9 694.392 1051.83C704.946 1061.73 709.403 1075.32 711.936 1091.07C714.466 1106.91 715.446 1127.66 716.652 1154.07L718.085 1184.99C718.415 1191.77 718.655 1197.18 718.671 1201.39C718.698 1205.54 718.524 1209.49 717.543 1212.92C711.056 1236.01 683.208 1246.68 658.227 1234.83C654.343 1232.84 650.694 1230.43 647.367 1227.66C642.689 1223.9 638.075 1220.07 633.528 1216.18L633.314 1216C629.172 1212.38 624.914 1208.87 620.547 1205.49C608.33 1196.35 594.512 1189.36 579.909 1184.93C574.594 1183.43 569.247 1182.07 563.875 1180.88L563.609 1180.81C556.41 1179.08 550.645 1177.72 546.176 1176.47C541.966 1175.43 537.856 1173.92 533.944 1171.97C509.595 1158.87 501.69 1130.11 516.449 1111.2C518.629 1108.38 521.724 1105.91 525.069 1103.46C528.47 1100.98 532.979 1097.98 538.629 1094.21L564.378 1077.05C586.383 1062.38 603.661 1050.84 617.922 1043.52C632.112 1036.23 645.682 1031.76 659.927 1034.4ZM677.84 1066.7C672.294 1061.49 665.24 1057.92 657.761 1056.54C652.379 1055.54 644.888 1056.77 631.669 1063.55C618.621 1070.26 602.34 1081.1 579.602 1096.25L554.642 1112.89C548.761 1116.82 544.61 1119.59 541.58 1121.79C539.864 1122.92 538.305 1124.23 536.93 1125.7C530.127 1134.42 534.05 1147.17 544.461 1152.78C545.054 1153.09 546.605 1153.75 550.703 1154.87C556.272 1156.35 561.857 1157.73 567.456 1159.03L567.959 1159.15C575.969 1161.06 580.605 1162.16 585.125 1163.53C602.932 1168.93 619.782 1177.45 634.679 1188.6C638.476 1191.44 642.111 1194.52 648.411 1199.85L648.793 1200.17C654.696 1205.17 658.85 1208.67 662.069 1211.2C665.388 1213.83 666.864 1214.71 667.455 1214.99C678.136 1220.06 690.739 1215.65 693.736 1205C694.101 1203.02 694.231 1201 694.124 1198.95C694.03 1193.69 693.838 1188.43 693.55 1183.15L692.167 1153.19C690.915 1125.9 689.978 1106.36 687.652 1091.87C685.286 1077.2 681.832 1070.45 677.84 1066.7ZM732.326 986.807C741.978 976.466 754.209 969.326 766.73 966.633C779.136 963.946 793.623 965.404 804.781 975.005C815.809 984.491 818.788 997.837 817.401 1009.69C815.995 1021.74 810.016 1034.12 800.341 1044.46C790.688 1054.8 778.464 1061.93 765.936 1064.64C753.531 1067.32 739.044 1065.87 727.886 1056.27C716.864 1046.77 713.886 1033.42 715.266 1021.58C716.693 1009.53 722.651 997.154 732.326 986.807ZM789.133 990.686C786.855 988.716 782.319 987.043 774.835 988.67C767.48 990.264 758.952 994.846 751.696 1002.61C744.44 1010.37 740.544 1019.07 739.697 1026.48C738.794 1034.07 741.133 1038.52 743.548 1040.59C745.811 1042.55 750.347 1044.23 757.832 1042.6C765.202 1041.01 773.714 1036.42 780.97 1028.66C788.233 1020.89 792.122 1012.2 792.984 1004.8C793.872 997.204 791.533 992.75 789.133 990.686ZM569.251 984.676C563.383 975.331 553.816 967.123 541.384 964.988C528.9 962.844 518.352 967.663 511.325 974.934C504.269 982.223 499.989 992.583 499.257 1004.15C498.54 1015.72 501.472 1027.26 507.38 1036.68C513.248 1046.02 522.822 1054.22 535.247 1056.37C547.731 1058.51 558.279 1053.69 565.306 1046.42C572.361 1039.13 576.657 1028.78 577.374 1017.2C578.091 1005.63 575.159 994.091 569.251 984.676ZM548.341 994.278C551.34 999.065 553.331 1005.84 552.869 1013.38C552.393 1020.9 549.614 1026.81 546.162 1030.36C542.711 1033.95 539.391 1034.56 537.067 1034.17C534.677 1033.76 531.335 1031.92 528.289 1027.08C525.291 1022.29 523.307 1015.5 523.761 1007.98C524.237 1000.45 527.017 994.546 530.469 990.994C533.92 987.409 537.239 986.799 539.563 987.189C541.954 987.597 545.296 989.435 548.341 994.278ZM820.555 1106.18C811.462 1097.44 799.175 1094.61 788.177 1095.41C777.092 1096.23 766.065 1100.69 757.16 1108.14C748.277 1115.59 742.482 1125.18 740.777 1135.18C739.084 1145.14 741.452 1156.5 750.577 1165.28C759.663 1174.03 771.95 1176.86 782.948 1176.06C794.033 1175.24 805.06 1170.78 813.965 1163.33C822.864 1155.9 828.658 1146.3 830.349 1136.3C832.041 1126.33 829.673 1114.98 820.548 1106.19L820.555 1106.18ZM774.778 1125.62C780.558 1120.78 787.205 1118.35 792.831 1117.94C798.537 1117.53 802.007 1119.15 803.743 1120.81C805.442 1122.44 806.911 1125.49 806.082 1130.4C805.252 1135.28 802.15 1141 796.363 1145.86C790.574 1150.68 783.926 1153.11 778.294 1153.53C772.588 1153.95 769.134 1152.33 767.382 1150.66C765.683 1149.03 764.215 1145.98 765.043 1141.07C765.873 1136.19 768.975 1130.47 774.763 1125.61L774.778 1125.62Z" fill="#0AAAB6"/>
<path d="M1630.52 801.849C1619.7 812.674 1613.56 827.293 1613.39 842.583C1604.72 844.365 1596.57 848.073 1589.53 853.432C1582.49 858.791 1576.76 865.664 1572.74 873.541C1568.73 881.417 1566.54 890.096 1566.34 898.933C1566.14 907.769 1567.93 916.537 1571.59 924.586C1575.24 932.635 1580.66 939.758 1587.45 945.427C1594.23 951.096 1602.21 955.166 1610.79 957.334C1619.36 959.502 1628.32 959.713 1636.99 957.952C1645.66 956.191 1653.82 952.502 1660.87 947.159C1660.91 947.148 1660.96 947.144 1661 947.147L1786.41 1050.89L1786.42 1051.06C1782.48 1058.97 1780.37 1067.67 1780.24 1076.5C1780.12 1085.34 1781.99 1094.09 1785.72 1102.11C1789.44 1110.13 1794.93 1117.2 1801.77 1122.81C1808.6 1128.42 1816.61 1132.42 1825.21 1134.51C1833.81 1136.6 1842.76 1136.74 1851.42 1134.9C1860.07 1133.06 1868.2 1129.3 1875.2 1123.89C1882.2 1118.49 1887.89 1111.58 1891.86 1103.68C1895.82 1095.77 1897.95 1087.08 1898.1 1078.24C1906.76 1076.46 1914.92 1072.75 1921.95 1067.39C1928.99 1062.04 1934.73 1055.16 1938.74 1047.29C1942.76 1039.41 1944.95 1030.73 1945.15 1021.89C1945.35 1013.06 1943.55 1004.29 1939.9 996.241C1936.24 988.192 1930.82 981.069 1924.03 975.4C1917.25 969.73 1909.27 965.661 1900.69 963.493C1892.12 961.324 1883.16 961.113 1874.49 962.874C1865.82 964.636 1857.66 968.325 1850.61 973.667C1850.57 973.675 1850.53 973.679 1850.48 973.68L1725.07 869.868L1725.05 869.705C1731.4 857.176 1733.06 842.793 1729.73 829.15C1726.4 815.508 1718.3 803.506 1706.89 795.308C1695.48 787.111 1681.51 783.258 1667.5 784.446C1653.5 785.633 1640.38 791.782 1630.51 801.784L1630.52 801.849ZM1691.55 816.779C1697.87 821.326 1702.35 827.973 1704.21 835.527C1706.06 843.082 1705.16 851.049 1701.66 857.999C1698.96 863.295 1698.13 869.354 1699.33 875.177C1700.53 881 1703.68 886.242 1708.26 890.037L1833.75 993.925C1838.34 997.705 1844.08 999.81 1850.03 999.895C1855.98 999.979 1861.78 998.038 1866.48 994.39C1870.69 991.199 1875.6 989.071 1880.81 988.187C1886.01 987.304 1891.35 987.691 1896.37 989.316C1901.4 990.941 1905.95 993.755 1909.65 997.519C1913.35 1001.28 1916.08 1005.88 1917.61 1010.93C1919.15 1015.98 1919.43 1021.32 1918.45 1026.5C1917.47 1031.69 1915.25 1036.56 1911.98 1040.7C1908.71 1044.84 1904.49 1048.13 1899.67 1050.29C1894.85 1052.44 1889.58 1053.4 1884.31 1053.09C1882.42 1052.97 1880.53 1053.26 1878.77 1053.95C1877 1054.63 1875.41 1055.69 1874.09 1057.05C1872.77 1058.4 1871.77 1060.03 1871.14 1061.81C1870.51 1063.6 1870.28 1065.5 1870.46 1067.38C1870.53 1068.05 1870.64 1068.71 1870.81 1069.37C1872.09 1074.48 1872.12 1079.82 1870.9 1084.94C1869.67 1090.07 1867.22 1094.82 1863.76 1098.8C1860.3 1102.77 1855.93 1105.86 1851.02 1107.78C1846.11 1109.71 1840.81 1110.42 1835.57 1109.86C1830.32 1109.3 1825.29 1107.48 1820.9 1104.56C1816.52 1101.64 1812.9 1097.71 1810.36 1093.09C1807.82 1088.47 1806.43 1083.31 1806.32 1078.04C1806.21 1072.78 1807.37 1067.56 1809.71 1062.84C1812.41 1057.54 1813.23 1051.48 1812.03 1045.66C1810.83 1039.84 1807.68 1034.6 1803.1 1030.8L1677.62 926.912C1673.03 923.148 1667.3 921.051 1661.37 920.965C1655.43 920.88 1649.65 922.81 1644.95 926.441C1640.75 929.632 1635.83 931.76 1630.63 932.644C1625.42 933.527 1620.08 933.14 1615.06 931.515C1610.04 929.89 1605.48 927.076 1601.78 923.312C1598.09 919.549 1595.35 914.947 1593.82 909.9C1592.29 904.853 1592 899.51 1592.98 894.327C1593.96 889.144 1596.18 884.274 1599.45 880.133C1602.72 875.992 1606.95 872.703 1611.76 870.545C1616.58 868.388 1621.85 867.427 1627.12 867.743C1629.18 867.87 1631.24 867.51 1633.13 866.691C1635.02 865.872 1636.7 864.618 1638.01 863.031C1639.33 861.445 1640.25 859.57 1640.71 857.56C1641.16 855.55 1641.13 853.461 1640.62 851.464C1638.93 844.933 1639.3 838.038 1641.68 831.723C1644.06 825.408 1648.33 819.983 1653.92 816.191C1659.51 812.398 1666.13 810.425 1672.88 810.541C1679.64 810.656 1686.19 812.855 1691.64 816.836L1691.55 816.779Z" fill="#F8D432" fill-opacity="0.9"/>
</g>
<path d="M-123.203 86.9824C-422.371 14.5704 -722.726 56.8107 -835.507 86.9824L-971 195H2486V130.989C2401.87 165.829 2191.32 210.503 2022.23 110.486C1810.86 -14.5346 1566.97 165.495 1381.93 153.993C1196.88 142.491 1093.13 66.9789 894.928 86.9824C736.363 102.985 633.75 122.988 602.264 130.989C485.095 146.492 175.965 159.394 -123.203 86.9824Z" fill="#F2786A"/>
<path d="M-297.203 1103.98C-596.371 1031.57 -896.726 1073.81 -1009.51 1103.98L-1145 1212H2312V1147.99C2227.87 1182.83 2017.32 1227.5 1848.23 1127.49C1636.86 1002.47 1392.97 1182.5 1207.93 1170.99C1022.88 1159.49 919.135 1083.98 720.928 1103.98C562.363 1119.99 459.75 1139.99 428.264 1147.99C311.095 1163.49 1.96521 1176.39 -297.203 1103.98Z" fill="white"/>
<path fill-rule="evenodd" clip-rule="evenodd" d="M1534.67 285.618C1547.88 285.62 1561.76 290.155 1573.73 298.474C1585.73 306.795 1594.43 317.966 1598.5 329.795C1602.47 341.428 1602.39 355.533 1593.35 367.488C1584.2 379.588 1569.92 384.206 1556.84 384.197C1543.63 384.195 1529.77 379.672 1517.79 371.353C1505.79 363.032 1497.09 351.861 1493.03 340.032C1489.05 328.388 1489.14 314.294 1498.18 302.339C1507.33 290.239 1521.6 285.621 1534.68 285.63L1534.67 285.618ZM1531.33 309.607C1523.45 309.607 1519.23 312.267 1517.36 314.735C1515.4 317.348 1514.02 322.344 1516.56 329.804C1519.06 337.058 1524.87 344.994 1533.86 351.223C1542.87 357.475 1552.44 360.248 1560.22 360.256C1568.11 360.255 1572.31 357.584 1574.18 355.104C1576.14 352.502 1577.53 347.507 1574.98 340.046C1572.48 332.793 1566.68 324.856 1557.69 318.628C1548.68 312.376 1539.11 309.614 1531.33 309.607ZM1626.12 355.739C1633.76 344.67 1644.62 335.867 1657.03 330.682C1670.79 324.932 1685.45 326.472 1701.33 330.736C1717.29 335.035 1737.22 342.869 1762.57 352.878L1792.25 364.569C1798.78 367.123 1803.96 369.177 1807.93 370.938C1811.84 372.664 1815.48 374.493 1818.3 376.862C1837.28 392.705 1835.59 423.396 1813.92 441.89C1810.41 444.701 1806.6 447.116 1802.59 449.075C1797.09 451.889 1791.54 454.614 1785.96 457.247L1785.71 457.374C1780.56 459.742 1775.47 462.267 1770.44 464.946C1756.7 472.579 1744.3 482.626 1733.99 494.492C1730.33 498.855 1726.81 503.313 1723.42 507.86L1723.24 508.081C1718.58 514.122 1714.87 518.97 1711.82 522.647C1709.07 526.167 1705.91 529.394 1702.43 532.25C1679.85 549.622 1649.47 544.926 1637.91 523.069C1636.17 519.828 1635.15 515.874 1634.26 511.697C1633.36 507.452 1632.43 501.945 1631.27 495.044L1625.98 463.589C1621.45 436.705 1617.88 415.59 1617 399.089C1616.12 382.667 1617.63 368.021 1626.12 355.739ZM1664.04 352.517C1656.81 355.538 1650.48 360.667 1646.03 367.116C1642.82 371.753 1640.82 379.318 1641.63 394.613C1642.45 409.714 1645.78 429.594 1650.45 457.37L1655.59 487.865C1656.8 495.051 1657.66 500.125 1658.45 503.9C1658.79 505.991 1659.37 508.01 1660.17 509.923C1665.51 520.002 1679.15 521.688 1688.81 514.264C1689.36 513.84 1690.63 512.657 1693.41 509.277C1697.14 504.662 1700.8 499.994 1704.38 495.275L1704.71 494.855C1709.88 488.127 1712.87 484.232 1716.06 480.56C1728.64 466.089 1743.75 453.839 1760.51 444.531C1764.78 442.157 1769.21 440.038 1776.87 436.361L1777.34 436.139C1784.53 432.696 1789.58 430.269 1793.31 428.308C1797.18 426.294 1798.63 425.277 1799.14 424.84C1808.41 416.937 1809.57 403.221 1800.82 395.91C1799.11 394.734 1797.26 393.756 1795.29 392.992C1790.3 390.864 1785.27 388.823 1780.19 386.871L1751.42 375.529C1725.23 365.196 1706.46 357.834 1691.85 353.91C1677.06 349.946 1669.25 350.346 1664.04 352.517ZM1611.86 267.577C1606.2 254.137 1604.63 239.623 1607.38 226.711C1610.08 213.912 1617.55 200.903 1631.28 194.459C1644.85 188.09 1658.66 190.918 1669.22 197.224C1679.96 203.627 1689.08 214.472 1694.74 227.935C1700.4 241.375 1701.95 255.878 1699.22 268.801C1696.52 281.6 1689.04 294.609 1675.31 301.053C1661.74 307.41 1647.93 304.582 1637.37 298.288C1626.64 291.863 1617.51 281.04 1611.86 267.577ZM1639.44 215.79C1636.62 217.101 1633.14 220.661 1631.52 228.386C1629.92 235.975 1630.63 245.928 1634.88 256.025C1639.12 266.122 1645.67 273.459 1652.27 277.379C1659.03 281.429 1664.2 281.108 1667.17 279.711C1669.97 278.411 1673.45 274.851 1675.08 267.126C1676.69 259.526 1675.96 249.584 1671.72 239.487C1667.47 229.378 1660.93 222.053 1654.33 218.122C1647.56 214.083 1642.39 214.404 1639.44 215.79ZM1541.15 420.038C1529.89 421.614 1518.14 427.149 1510.89 437.94C1503.61 448.775 1503.7 460.728 1507.58 470.404C1511.46 480.113 1519.4 488.51 1529.97 494.077C1540.56 499.634 1552.65 501.744 1563.99 500.16C1575.25 498.584 1586.99 493.037 1594.25 482.258C1601.53 471.423 1601.44 459.47 1597.56 449.794C1593.68 440.085 1585.75 431.678 1575.16 426.121C1564.58 420.564 1552.49 418.454 1541.15 420.038ZM1541.37 443.753C1547.14 442.952 1554.35 443.94 1561.24 447.551C1568.12 451.174 1572.5 456.278 1574.39 461.023C1576.31 465.781 1575.48 469.16 1574.14 471.181C1572.74 473.257 1569.61 475.625 1563.77 476.446C1558 477.246 1550.78 476.247 1543.9 472.647C1537.02 469.024 1532.64 463.92 1530.75 459.175C1528.83 454.417 1529.66 451.038 1531 449.017C1532.39 446.941 1535.53 444.573 1541.37 443.753ZM1761.3 234.96C1749.25 239.826 1741.42 250.187 1737.53 260.867C1733.63 271.637 1733.19 283.889 1736.44 295.406C1739.7 306.901 1746.28 316.397 1754.96 322.218C1763.63 328.015 1775.3 330.576 1787.41 325.701C1799.47 320.847 1807.3 310.486 1811.19 299.806C1815.09 289.036 1815.53 276.784 1812.28 265.267C1809.04 253.762 1802.45 244.265 1793.76 238.456C1785.09 232.658 1773.42 230.097 1761.31 234.972L1761.3 234.96ZM1760.3 286.212C1758.18 278.733 1758.7 271.458 1760.69 265.995C1762.7 260.453 1765.69 257.875 1767.98 256.944C1770.23 256.033 1773.72 255.938 1777.99 258.789C1782.23 261.627 1786.3 266.959 1788.43 274.45C1790.53 281.929 1790.01 289.204 1788.03 294.678C1786.02 300.22 1783.05 302.787 1780.74 303.73C1778.49 304.64 1775 304.736 1770.73 301.884C1766.49 299.046 1762.42 293.714 1760.29 286.223L1760.3 286.212Z" fill="#0AAAB6"/>
<path fill-rule="evenodd" clip-rule="evenodd" d="M1534.67 285.618C1547.88 285.62 1561.76 290.155 1573.73 298.474C1585.73 306.795 1594.43 317.966 1598.5 329.795C1602.47 341.428 1602.39 355.533 1593.35 367.488C1584.2 379.588 1569.92 384.206 1556.84 384.197C1543.63 384.195 1529.77 379.672 1517.79 371.353C1505.79 363.032 1497.09 351.861 1493.03 340.032C1489.05 328.388 1489.14 314.294 1498.18 302.339C1507.33 290.239 1521.6 285.621 1534.68 285.63L1534.67 285.618ZM1531.33 309.607C1523.45 309.607 1519.23 312.267 1517.36 314.735C1515.4 317.348 1514.02 322.344 1516.56 329.804C1519.06 337.058 1524.87 344.994 1533.86 351.223C1542.87 357.475 1552.44 360.248 1560.22 360.256C1568.11 360.255 1572.31 357.584 1574.18 355.104C1576.14 352.502 1577.53 347.507 1574.98 340.046C1572.48 332.793 1566.68 324.856 1557.69 318.628C1548.68 312.376 1539.11 309.614 1531.33 309.607ZM1626.12 355.739C1633.76 344.67 1644.62 335.867 1657.03 330.682C1670.79 324.932 1685.45 326.472 1701.33 330.736C1717.29 335.035 1737.22 342.869 1762.57 352.878L1792.25 364.569C1798.78 367.123 1803.96 369.177 1807.93 370.938C1811.84 372.664 1815.48 374.493 1818.3 376.862C1837.28 392.705 1835.59 423.396 1813.92 441.89C1810.41 444.701 1806.6 447.116 1802.59 449.075C1797.09 451.889 1791.54 454.614 1785.96 457.247L1785.71 457.374C1780.56 459.742 1775.47 462.267 1770.44 464.946C1756.7 472.579 1744.3 482.626 1733.99 494.492C1730.33 498.855 1726.81 503.313 1723.42 507.86L1723.24 508.081C1718.58 514.122 1714.87 518.97 1711.82 522.647C1709.07 526.167 1705.91 529.394 1702.43 532.25C1679.85 549.622 1649.47 544.926 1637.91 523.069C1636.17 519.828 1635.15 515.874 1634.26 511.697C1633.36 507.452 1632.43 501.945 1631.27 495.044L1625.98 463.589C1621.45 436.705 1617.88 415.59 1617 399.089C1616.12 382.667 1617.63 368.021 1626.12 355.739ZM1664.04 352.517C1656.81 355.538 1650.48 360.667 1646.03 367.116C1642.82 371.753 1640.82 379.318 1641.63 394.613C1642.45 409.714 1645.78 429.594 1650.45 457.37L1655.59 487.865C1656.8 495.051 1657.66 500.125 1658.45 503.9C1658.79 505.991 1659.37 508.01 1660.17 509.923C1665.51 520.002 1679.15 521.688 1688.81 514.264C1689.36 513.84 1690.63 512.657 1693.41 509.277C1697.14 504.662 1700.8 499.994 1704.38 495.275L1704.71 494.855C1709.88 488.127 1712.87 484.232 1716.06 480.56C1728.64 466.089 1743.75 453.839 1760.51 444.531C1764.78 442.157 1769.21 440.038 1776.87 436.361L1777.34 436.139C1784.53 432.696 1789.58 430.269 1793.31 428.308C1797.18 426.294 1798.63 425.277 1799.14 424.84C1808.41 416.937 1809.57 403.221 1800.82 395.91C1799.11 394.734 1797.26 393.756 1795.29 392.992C1790.3 390.864 1785.27 388.823 1780.19 386.871L1751.42 375.529C1725.23 365.196 1706.46 357.834 1691.85 353.91C1677.06 349.946 1669.25 350.346 1664.04 352.517ZM1611.86 267.577C1606.2 254.137 1604.63 239.623 1607.38 226.711C1610.08 213.912 1617.55 200.903 1631.28 194.459C1644.85 188.09 1658.66 190.918 1669.22 197.224C1679.96 203.627 1689.08 214.472 1694.74 227.935C1700.4 241.375 1701.95 255.878 1699.22 268.801C1696.52 281.6 1689.04 294.609 1675.31 301.053C1661.74 307.41 1647.93 304.582 1637.37 298.288C1626.64 291.863 1617.51 281.04 1611.86 267.577ZM1639.44 215.79C1636.62 217.101 1633.14 220.661 1631.52 228.386C1629.92 235.975 1630.63 245.928 1634.88 256.025C1639.12 266.122 1645.67 273.459 1652.27 277.379C1659.03 281.429 1664.2 281.108 1667.17 279.711C1669.97 278.411 1673.45 274.851 1675.08 267.126C1676.69 259.526 1675.96 249.584 1671.72 239.487C1667.47 229.378 1660.93 222.053 1654.33 218.122C1647.56 214.083 1642.39 214.404 1639.44 215.79ZM1541.15 420.038C1529.89 421.614 1518.14 427.149 1510.89 437.94C1503.61 448.775 1503.7 460.728 1507.58 470.404C1511.46 480.113 1519.4 488.51 1529.97 494.077C1540.56 499.634 1552.65 501.744 1563.99 500.16C1575.25 498.584 1586.99 493.037 1594.25 482.258C1601.53 471.423 1601.44 459.47 1597.56 449.794C1593.68 440.085 1585.75 431.678 1575.16 426.121C1564.58 420.564 1552.49 418.454 1541.15 420.038ZM1541.37 443.753C1547.14 442.952 1554.35 443.94 1561.24 447.551C1568.12 451.174 1572.5 456.278 1574.39 461.023C1576.31 465.781 1575.48 469.16 1574.14 471.181C1572.74 473.257 1569.61 475.625 1563.77 476.446C1558 477.246 1550.78 476.247 1543.9 472.647C1537.02 469.024 1532.64 463.92 1530.75 459.175C1528.83 454.417 1529.66 451.038 1531 449.017C1532.39 446.941 1535.53 444.573 1541.37 443.753ZM1761.3 234.96C1749.25 239.826 1741.42 250.187 1737.53 260.867C1733.63 271.637 1733.19 283.889 1736.44 295.406C1739.7 306.901 1746.28 316.397 1754.96 322.218C1763.63 328.015 1775.3 330.576 1787.41 325.701C1799.47 320.847 1807.3 310.486 1811.19 299.806C1815.09 289.036 1815.53 276.784 1812.28 265.267C1809.04 253.762 1802.45 244.265 1793.76 238.456C1785.09 232.658 1773.42 230.097 1761.31 234.972L1761.3 234.96ZM1760.3 286.212C1758.18 278.733 1758.7 271.458 1760.69 265.995C1762.7 260.453 1765.69 257.875 1767.98 256.944C1770.23 256.033 1773.72 255.938 1777.99 258.789C1782.23 261.627 1786.3 266.959 1788.43 274.45C1790.53 281.929 1790.01 289.204 1788.03 294.678C1786.02 300.22 1783.05 302.787 1780.74 303.73C1778.49 304.64 1775 304.736 1770.73 301.884C1766.49 299.046 1762.42 293.714 1760.29 286.223L1760.3 286.212Z" fill="#0AAAB6"/>
<path fill-rule="evenodd" clip-rule="evenodd" d="M1534.67 285.618C1547.88 285.62 1561.76 290.155 1573.73 298.474C1585.73 306.795 1594.43 317.966 1598.5 329.795C1602.47 341.428 1602.39 355.533 1593.35 367.488C1584.2 379.588 1569.92 384.206 1556.84 384.197C1543.63 384.195 1529.77 379.672 1517.79 371.353C1505.79 363.032 1497.09 351.861 1493.03 340.032C1489.05 328.388 1489.14 314.294 1498.18 302.339C1507.33 290.239 1521.6 285.621 1534.68 285.63L1534.67 285.618ZM1531.33 309.607C1523.45 309.607 1519.23 312.267 1517.36 314.735C1515.4 317.348 1514.02 322.344 1516.56 329.804C1519.06 337.058 1524.87 344.994 1533.86 351.223C1542.87 357.475 1552.44 360.248 1560.22 360.256C1568.11 360.255 1572.31 357.584 1574.18 355.104C1576.14 352.502 1577.53 347.507 1574.98 340.046C1572.48 332.793 1566.68 324.856 1557.69 318.628C1548.68 312.376 1539.11 309.614 1531.33 309.607ZM1626.12 355.739C1633.76 344.67 1644.62 335.867 1657.03 330.682C1670.79 324.932 1685.45 326.472 1701.33 330.736C1717.29 335.035 1737.22 342.869 1762.57 352.878L1792.25 364.569C1798.78 367.123 1803.96 369.177 1807.93 370.938C1811.84 372.664 1815.48 374.493 1818.3 376.862C1837.28 392.705 1835.59 423.396 1813.92 441.89C1810.41 444.701 1806.6 447.116 1802.59 449.075C1797.09 451.889 1791.54 454.614 1785.96 457.247L1785.71 457.374C1780.56 459.742 1775.47 462.267 1770.44 464.946C1756.7 472.579 1744.3 482.626 1733.99 494.492C1730.33 498.855 1726.81 503.313 1723.42 507.86L1723.24 508.081C1718.58 514.122 1714.87 518.97 1711.82 522.647C1709.07 526.167 1705.91 529.394 1702.43 532.25C1679.85 549.622 1649.47 544.926 1637.91 523.069C1636.17 519.828 1635.15 515.874 1634.26 511.697C1633.36 507.452 1632.43 501.945 1631.27 495.044L1625.98 463.589C1621.45 436.705 1617.88 415.59 1617 399.089C1616.12 382.667 1617.63 368.021 1626.12 355.739ZM1664.04 352.517C1656.81 355.538 1650.48 360.667 1646.03 367.116C1642.82 371.753 1640.82 379.318 1641.63 394.613C1642.45 409.714 1645.78 429.594 1650.45 457.37L1655.59 487.865C1656.8 495.051 1657.66 500.125 1658.45 503.9C1658.79 505.991 1659.37 508.01 1660.17 509.923C1665.51 520.002 1679.15 521.688 1688.81 514.264C1689.36 513.84 1690.63 512.657 1693.41 509.277C1697.14 504.662 1700.8 499.994 1704.38 495.275L1704.71 494.855C1709.88 488.127 1712.87 484.232 1716.06 480.56C1728.64 466.089 1743.75 453.839 1760.51 444.531C1764.78 442.157 1769.21 440.038 1776.87 436.361L1777.34 436.139C1784.53 432.696 1789.58 430.269 1793.31 428.308C1797.18 426.294 1798.63 425.277 1799.14 424.84C1808.41 416.937 1809.57 403.221 1800.82 395.91C1799.11 394.734 1797.26 393.756 1795.29 392.992C1790.3 390.864 1785.27 388.823 1780.19 386.871L1751.42 375.529C1725.23 365.196 1706.46 357.834 1691.85 353.91C1677.06 349.946 1669.25 350.346 1664.04 352.517ZM1611.86 267.577C1606.2 254.137 1604.63 239.623 1607.38 226.711C1610.08 213.912 1617.55 200.903 1631.28 194.459C1644.85 188.09 1658.66 190.918 1669.22 197.224C1679.96 203.627 1689.08 214.472 1694.74 227.935C1700.4 241.375 1701.95 255.878 1699.22 268.801C1696.52 281.6 1689.04 294.609 1675.31 301.053C1661.74 307.41 1647.93 304.582 1637.37 298.288C1626.64 291.863 1617.51 281.04 1611.86 267.577ZM1639.44 215.79C1636.62 217.101 1633.14 220.661 1631.52 228.386C1629.92 235.975 1630.63 245.928 1634.88 256.025C1639.12 266.122 1645.67 273.459 1652.27 277.379C1659.03 281.429 1664.2 281.108 1667.17 279.711C1669.97 278.411 1673.45 274.851 1675.08 267.126C1676.69 259.526 1675.96 249.584 1671.72 239.487C1667.47 229.378 1660.93 222.053 1654.33 218.122C1647.56 214.083 1642.39 214.404 1639.44 215.79ZM1541.15 420.038C1529.89 421.614 1518.14 427.149 1510.89 437.94C1503.61 448.775 1503.7 460.728 1507.58 470.404C1511.46 480.113 1519.4 488.51 1529.97 494.077C1540.56 499.634 1552.65 501.744 1563.99 500.16C1575.25 498.584 1586.99 493.037 1594.25 482.258C1601.53 471.423 1601.44 459.47 1597.56 449.794C1593.68 440.085 1585.75 431.678 1575.16 426.121C1564.58 420.564 1552.49 418.454 1541.15 420.038ZM1541.37 443.753C1547.14 442.952 1554.35 443.94 1561.24 447.551C1568.12 451.174 1572.5 456.278 1574.39 461.023C1576.31 465.781 1575.48 469.16 1574.14 471.181C1572.74 473.257 1569.61 475.625 1563.77 476.446C1558 477.246 1550.78 476.247 1543.9 472.647C1537.02 469.024 1532.64 463.92 1530.75 459.175C1528.83 454.417 1529.66 451.038 1531 449.017C1532.39 446.941 1535.53 444.573 1541.37 443.753ZM1761.3 234.96C1749.25 239.826 1741.42 250.187 1737.53 260.867C1733.63 271.637 1733.19 283.889 1736.44 295.406C1739.7 306.901 1746.28 316.397 1754.96 322.218C1763.63 328.015 1775.3 330.576 1787.41 325.701C1799.47 320.847 1807.3 310.486 1811.19 299.806C1815.09 289.036 1815.53 276.784 1812.28 265.267C1809.04 253.762 1802.45 244.265 1793.76 238.456C1785.09 232.658 1773.42 230.097 1761.31 234.972L1761.3 234.96ZM1760.3 286.212C1758.18 278.733 1758.7 271.458 1760.69 265.995C1762.7 260.453 1765.69 257.875 1767.98 256.944C1770.23 256.033 1773.72 255.938 1777.99 258.789C1782.23 261.627 1786.3 266.959 1788.43 274.45C1790.53 281.929 1790.01 289.204 1788.03 294.678C1786.02 300.22 1783.05 302.787 1780.74 303.73C1778.49 304.64 1775 304.736 1770.73 301.884C1766.49 299.046 1762.42 293.714 1760.29 286.223L1760.3 286.212Z" fill="#0AAAB6"/>
<path fill-rule="evenodd" clip-rule="evenodd" d="M1534.67 285.618C1547.88 285.62 1561.76 290.155 1573.73 298.474C1585.73 306.795 1594.43 317.966 1598.5 329.795C1602.47 341.428 1602.39 355.533 1593.35 367.488C1584.2 379.588 1569.92 384.206 1556.84 384.197C1543.63 384.195 1529.77 379.672 1517.79 371.353C1505.79 363.032 1497.09 351.861 1493.03 340.032C1489.05 328.388 1489.14 314.294 1498.18 302.339C1507.33 290.239 1521.6 285.621 1534.68 285.63L1534.67 285.618ZM1531.33 309.607C1523.45 309.607 1519.23 312.267 1517.36 314.735C1515.4 317.348 1514.02 322.344 1516.56 329.804C1519.06 337.058 1524.87 344.994 1533.86 351.223C1542.87 357.475 1552.44 360.248 1560.22 360.256C1568.11 360.255 1572.31 357.584 1574.18 355.104C1576.14 352.502 1577.53 347.507 1574.98 340.046C1572.48 332.793 1566.68 324.856 1557.69 318.628C1548.68 312.376 1539.11 309.614 1531.33 309.607ZM1626.12 355.739C1633.76 344.67 1644.62 335.867 1657.03 330.682C1670.79 324.932 1685.45 326.472 1701.33 330.736C1717.29 335.035 1737.22 342.869 1762.57 352.878L1792.25 364.569C1798.78 367.123 1803.96 369.177 1807.93 370.938C1811.84 372.664 1815.48 374.493 1818.3 376.862C1837.28 392.705 1835.59 423.396 1813.92 441.89C1810.41 444.701 1806.6 447.116 1802.59 449.075C1797.09 451.889 1791.54 454.614 1785.96 457.247L1785.71 457.374C1780.56 459.742 1775.47 462.267 1770.44 464.946C1756.7 472.579 1744.3 482.626 1733.99 494.492C1730.33 498.855 1726.81 503.313 1723.42 507.86L1723.24 508.081C1718.58 514.122 1714.87 518.97 1711.82 522.647C1709.07 526.167 1705.91 529.394 1702.43 532.25C1679.85 549.622 1649.47 544.926 1637.91 523.069C1636.17 519.828 1635.15 515.874 1634.26 511.697C1633.36 507.452 1632.43 501.945 1631.27 495.044L1625.98 463.589C1621.45 436.705 1617.88 415.59 1617 399.089C1616.12 382.667 1617.63 368.021 1626.12 355.739ZM1664.04 352.517C1656.81 355.538 1650.48 360.667 1646.03 367.116C1642.82 371.753 1640.82 379.318 1641.63 394.613C1642.45 409.714 1645.78 429.594 1650.45 457.37L1655.59 487.865C1656.8 495.051 1657.66 500.125 1658.45 503.9C1658.79 505.991 1659.37 508.01 1660.17 509.923C1665.51 520.002 1679.15 521.688 1688.81 514.264C1689.36 513.84 1690.63 512.657 1693.41 509.277C1697.14 504.662 1700.8 499.994 1704.38 495.275L1704.71 494.855C1709.88 488.127 1712.87 484.232 1716.06 480.56C1728.64 466.089 1743.75 453.839 1760.51 444.531C1764.78 442.157 1769.21 440.038 1776.87 436.361L1777.34 436.139C1784.53 432.696 1789.58 430.269 1793.31 428.308C1797.18 426.294 1798.63 425.277 1799.14 424.84C1808.41 416.937 1809.57 403.221 1800.82 395.91C1799.11 394.734 1797.26 393.756 1795.29 392.992C1790.3 390.864 1785.27 388.823 1780.19 386.871L1751.42 375.529C1725.23 365.196 1706.46 357.834 1691.85 353.91C1677.06 349.946 1669.25 350.346 1664.04 352.517ZM1611.86 267.577C1606.2 254.137 1604.63 239.623 1607.38 226.711C1610.08 213.912 1617.55 200.903 1631.28 194.459C1644.85 188.09 1658.66 190.918 1669.22 197.224C1679.96 203.627 1689.08 214.472 1694.74 227.935C1700.4 241.375 1701.95 255.878 1699.22 268.801C1696.52 281.6 1689.04 294.609 1675.31 301.053C1661.74 307.41 1647.93 304.582 1637.37 298.288C1626.64 291.863 1617.51 281.04 1611.86 267.577ZM1639.44 215.79C1636.62 217.101 1633.14 220.661 1631.52 228.386C1629.92 235.975 1630.63 245.928 1634.88 256.025C1639.12 266.122 1645.67 273.459 1652.27 277.379C1659.03 281.429 1664.2 281.108 1667.17 279.711C1669.97 278.411 1673.45 274.851 1675.08 267.126C1676.69 259.526 1675.96 249.584 1671.72 239.487C1667.47 229.378 1660.93 222.053 1654.33 218.122C1647.56 214.083 1642.39 214.404 1639.44 215.79ZM1541.15 420.038C1529.89 421.614 1518.14 427.149 1510.89 437.94C1503.61 448.775 1503.7 460.728 1507.58 470.404C1511.46 480.113 1519.4 488.51 1529.97 494.077C1540.56 499.634 1552.65 501.744 1563.99 500.16C1575.25 498.584 1586.99 493.037 1594.25 482.258C1601.53 471.423 1601.44 459.47 1597.56 449.794C1593.68 440.085 1585.75 431.678 1575.16 426.121C1564.58 420.564 1552.49 418.454 1541.15 420.038ZM1541.37 443.753C1547.14 442.952 1554.35 443.94 1561.24 447.551C1568.12 451.174 1572.5 456.278 1574.39 461.023C1576.31 465.781 1575.48 469.16 1574.14 471.181C1572.74 473.257 1569.61 475.625 1563.77 476.446C1558 477.246 1550.78 476.247 1543.9 472.647C1537.02 469.024 1532.64 463.92 1530.75 459.175C1528.83 454.417 1529.66 451.038 1531 449.017C1532.39 446.941 1535.53 444.573 1541.37 443.753ZM1761.3 234.96C1749.25 239.826 1741.42 250.187 1737.53 260.867C1733.63 271.637 1733.19 283.889 1736.44 295.406C1739.7 306.901 1746.28 316.397 1754.96 322.218C1763.63 328.015 1775.3 330.576 1787.41 325.701C1799.47 320.847 1807.3 310.486 1811.19 299.806C1815.09 289.036 1815.53 276.784 1812.28 265.267C1809.04 253.762 1802.45 244.265 1793.76 238.456C1785.09 232.658 1773.42 230.097 1761.31 234.972L1761.3 234.96ZM1760.3 286.212C1758.18 278.733 1758.7 271.458 1760.69 265.995C1762.7 260.453 1765.69 257.875 1767.98 256.944C1770.23 256.033 1773.72 255.938 1777.99 258.789C1782.23 261.627 1786.3 266.959 1788.43 274.45C1790.53 281.929 1790.01 289.204 1788.03 294.678C1786.02 300.22 1783.05 302.787 1780.74 303.73C1778.49 304.64 1775 304.736 1770.73 301.884C1766.49 299.046 1762.42 293.714 1760.29 286.223L1760.3 286.212Z" fill="#0AAAB6"/>
<path d="M258.54 225.851C249.77 215.28 237.218 208.561 223.566 207.128C222.699 199.233 220.068 191.635 215.867 184.897C211.666 178.159 206.003 172.454 199.299 168.206C192.595 163.957 185.021 161.274 177.14 160.355C169.258 159.436 161.271 160.305 153.771 162.898C146.271 165.491 139.45 169.74 133.814 175.331C128.179 180.922 123.873 187.712 121.217 195.196C118.56 202.68 117.622 210.666 118.47 218.563C119.318 226.46 121.932 234.064 126.117 240.812C126.123 240.851 126.123 240.89 126.117 240.929L22.8834 344.333H22.7365C15.9951 340.144 8.39794 337.528 0.508545 336.678C-7.38085 335.829 -15.36 336.769 -22.8371 339.428C-30.3141 342.087 -37.0972 346.396 -42.6831 352.037C-48.2691 357.678 -52.5146 364.505 -55.1047 372.012C-57.6948 379.519 -58.5631 387.514 -57.6451 395.403C-56.7271 403.292 -54.0464 410.873 -49.8018 417.583C-45.5573 424.294 -39.8578 429.961 -33.1262 434.166C-26.3945 438.371 -18.8035 441.005 -10.9161 441.872C-10.0494 449.767 -7.41798 457.365 -3.21712 464.103C0.983743 470.841 6.64628 476.546 13.3505 480.794C20.0546 485.043 27.6284 487.726 35.51 488.645C43.3916 489.564 51.3787 488.695 58.879 486.102C66.3792 483.51 73.2001 479.26 78.8356 473.669C84.4711 468.078 88.7767 461.288 91.433 453.804C94.0893 446.32 95.0281 438.334 94.1798 430.437C93.3315 422.54 90.7178 414.936 86.5327 408.188C86.5298 408.149 86.5298 408.11 86.5327 408.071L189.825 304.667H189.972C200.639 311.392 213.356 314.08 225.828 312.245C238.301 310.41 249.708 304.174 257.99 294.661C266.273 285.149 270.886 272.986 270.998 260.369C271.109 247.751 266.712 235.509 258.599 225.851H258.54ZM240.084 279.154C235.491 284.419 229.174 287.872 222.266 288.896C215.359 289.919 208.313 288.445 202.393 284.739C197.887 281.877 192.54 280.636 187.235 281.221C181.929 281.806 176.981 284.182 173.204 287.958L69.8385 391.42C66.0754 395.207 63.7125 400.163 63.1387 405.474C62.565 410.784 63.8145 416.131 66.6817 420.636C69.1817 424.661 70.6722 429.232 71.0259 433.958C71.3797 438.685 70.5863 443.427 68.7134 447.78C66.8405 452.133 63.9436 455.968 60.2698 458.959C56.596 461.949 52.2542 464.006 47.6146 464.953C42.975 465.901 38.1752 465.712 33.6245 464.401C29.0739 463.091 24.9072 460.699 21.4799 457.428C18.0526 454.158 15.4663 450.106 13.9415 445.619C12.4167 441.132 11.9987 436.342 12.723 431.658C12.986 429.98 12.8826 428.264 12.4198 426.63C11.9569 424.995 11.1457 423.481 10.0419 422.19C8.9381 420.9 7.56798 419.864 6.02587 419.154C4.48376 418.444 2.8063 418.077 1.10899 418.079C0.504236 418.084 -0.0993421 418.133 -0.696978 418.226C-5.37167 418.945 -10.1508 418.524 -14.6279 416.998C-19.1049 415.471 -23.1474 412.885 -26.4114 409.459C-29.6754 406.033 -32.0644 401.869 -33.3751 397.32C-34.6857 392.771 -34.8794 387.973 -33.9394 383.333C-32.9995 378.694 -30.9539 374.35 -27.9766 370.672C-24.9992 366.993 -21.1783 364.089 -16.8388 362.207C-12.4993 360.324 -7.76972 359.518 -3.05228 359.858C1.66516 360.198 6.23081 361.673 10.2563 364.158C14.7632 367.02 20.1096 368.261 25.4152 367.676C30.7207 367.091 35.6691 364.715 39.4454 360.94L142.811 257.477C146.56 253.694 148.914 248.749 149.488 243.452C150.061 238.154 148.82 232.819 145.968 228.32C143.468 224.295 141.978 219.724 141.624 214.998C141.27 210.271 142.063 205.529 143.936 201.176C145.809 196.823 148.706 192.988 152.38 189.997C156.054 187.007 160.396 184.95 165.035 184.003C169.675 183.055 174.475 183.244 179.025 184.555C183.576 185.865 187.743 188.257 191.17 191.528C194.597 194.798 197.183 198.85 198.708 203.337C200.233 207.824 200.651 212.614 199.927 217.298C199.641 219.127 199.791 220.998 200.364 222.758C200.938 224.519 201.918 226.118 203.226 227.428C204.534 228.737 206.133 229.718 207.891 230.292C209.65 230.866 211.519 231.016 213.347 230.73C219.326 229.762 225.459 230.668 230.904 233.324C236.349 235.981 240.84 240.257 243.761 245.568C246.683 250.88 247.892 256.965 247.223 262.991C246.554 269.017 244.04 274.688 240.025 279.228L240.084 279.154Z" fill="#F8D432" fill-opacity="0.9"/>
<path d="M1544.19 14.974L1546.87 16.3241L1544.19 14.974ZM1533.06 17.0887C1532.63 15.488 1533.59 13.8435 1535.19 13.4156C1536.79 12.9877 1538.43 13.9384 1538.86 15.539L1533.06 17.0887ZM1530.54 91.3558L1533.27 92.6018L1530.54 91.3558ZM1508.21 132.291L1505.79 130.507L1505.79 130.507L1508.21 132.291ZM1473.21 156.363L1471.93 153.647L1471.93 153.647L1473.21 156.363ZM1424.88 157.732L1423.97 160.591L1423.97 160.591L1424.88 157.732ZM1393.33 144.304L1391.21 146.423L1391.21 146.423L1393.33 144.304ZM1389.6 94.5927L1389.78 91.5979L1389.78 91.5979L1389.6 94.5927ZM1420.52 119.615L1423.51 119.372L1423.51 119.372L1420.52 119.615ZM1414.07 150.709L1411.12 150.203L1411.12 150.203L1414.07 150.709ZM1389.1 207.833L1386.81 205.891L1386.81 205.891L1389.1 207.833ZM1334.53 239.497L1335.27 242.405L1335.27 242.405L1334.53 239.497ZM1277.57 227.132L1276.23 229.813L1277.57 227.132ZM1246.04 209.106L1247.93 206.775L1247.93 206.775L1246.04 209.106ZM1229 195.551L1263.38 199.811L1242.5 227.453L1229 195.551ZM1540.99 25.1439C1541.28 26.7752 1540.19 28.3326 1538.56 28.6225C1536.93 28.9123 1535.37 27.8248 1535.08 26.1935L1540.99 25.1439ZM1536.84 44.7751C1536.82 43.1184 1538.14 41.7565 1539.8 41.7332C1541.45 41.7098 1542.82 43.034 1542.84 44.6906L1536.84 44.7751ZM1541.53 64.2848C1541.28 65.9232 1539.75 67.052 1538.12 66.8059C1536.48 66.5598 1535.35 65.0321 1535.6 63.3936L1541.53 64.2848ZM1531.23 81.4824C1531.77 79.9141 1533.47 79.0758 1535.04 79.61C1536.61 80.1442 1537.45 81.8487 1536.91 83.4171L1531.23 81.4824ZM1528.33 103.24C1527.62 104.735 1525.83 105.37 1524.33 104.657C1522.83 103.944 1522.2 102.154 1522.91 100.658L1528.33 103.24ZM1512.12 121.023C1512.98 119.607 1514.83 119.156 1516.24 120.016C1517.66 120.876 1518.11 122.721 1517.25 124.137L1512.12 121.023ZM1502.81 142.358C1501.56 143.437 1499.66 143.293 1498.58 142.035C1497.5 140.778 1497.65 138.884 1498.91 137.805L1502.81 142.358ZM1481.48 149.003C1482.96 148.245 1484.77 148.825 1485.52 150.299C1486.28 151.772 1485.7 153.581 1484.23 154.338L1481.48 149.003ZM1462.02 162.982C1460.39 163.288 1458.83 162.217 1458.52 160.589C1458.21 158.961 1459.28 157.392 1460.91 157.085L1462.02 162.982ZM1437.32 157.44C1438.96 157.669 1440.1 159.185 1439.87 160.826C1439.64 162.467 1438.13 163.612 1436.49 163.382L1437.32 157.44ZM1421.15 159.72C1419.56 159.24 1418.66 157.566 1419.14 155.98C1419.62 154.394 1421.3 153.497 1422.88 153.977L1421.15 159.72ZM1417.16 152.245C1418.75 152.734 1419.63 154.414 1419.14 155.997C1418.65 157.58 1416.97 158.466 1415.39 157.977L1417.16 152.245ZM1410.65 152.762C1410.97 151.136 1412.54 150.074 1414.17 150.392C1415.79 150.709 1416.85 152.284 1416.54 153.91L1410.65 152.762ZM1416.87 152.116C1416.58 153.747 1415.02 154.832 1413.39 154.539C1411.76 154.246 1410.68 152.687 1410.97 151.056L1416.87 152.116ZM1413.06 142.138C1413.52 140.545 1415.18 139.624 1416.77 140.08C1418.37 140.536 1419.29 142.197 1418.83 143.79L1413.06 142.138ZM1422.97 128.066C1422.69 129.698 1421.13 130.791 1419.5 130.506C1417.87 130.221 1416.78 128.667 1417.06 127.035L1422.97 128.066ZM1414.83 110.679C1414.02 109.234 1414.53 107.405 1415.98 106.595C1417.42 105.784 1419.25 106.298 1420.06 107.743L1414.83 110.679ZM1401.22 93.5998C1402.8 94.0837 1403.7 95.7606 1403.21 97.3452C1402.73 98.9298 1401.05 99.8221 1399.47 99.3382L1401.22 93.5998ZM1383.17 98.4564C1381.67 99.1591 1379.89 98.5125 1379.19 97.0121C1378.48 95.5116 1379.13 93.7256 1380.63 93.0228L1383.17 98.4564ZM1373.64 109.702C1373.45 108.057 1374.62 106.563 1376.26 106.364C1377.91 106.166 1379.4 107.338 1379.6 108.983L1373.64 109.702ZM1383.83 123.141C1384.49 124.661 1383.79 126.428 1382.27 127.087C1380.75 127.746 1378.99 127.048 1378.33 125.528L1383.83 123.141ZM1386.03 139.784C1385.11 138.403 1385.49 136.541 1386.87 135.626C1388.25 134.711 1390.11 135.089 1391.03 136.47L1386.03 139.784ZM1399.37 145.12C1400.79 145.971 1401.25 147.813 1400.4 149.235C1399.55 150.656 1397.71 151.119 1396.29 150.268L1399.37 145.12ZM1407.05 155.193C1405.49 154.621 1404.69 152.897 1405.27 151.342C1405.84 149.786 1407.56 148.99 1409.12 149.561L1407.05 155.193ZM1412.51 169.491C1412.01 171.07 1410.32 171.94 1408.74 171.436C1407.17 170.931 1406.3 169.243 1406.8 167.665L1412.51 169.491ZM1395.07 194.171C1395.92 192.746 1397.76 192.276 1399.18 193.122C1400.61 193.968 1401.08 195.808 1400.23 197.233L1395.07 194.171ZM1385.53 215.757C1384.3 216.867 1382.4 216.77 1381.29 215.54C1380.18 214.31 1380.28 212.413 1381.51 211.303L1385.53 215.757ZM1369.16 220.619C1370.55 219.721 1372.4 220.122 1373.3 221.515C1374.2 222.908 1373.8 224.764 1372.41 225.662L1369.16 220.619ZM1358.2 233.672C1356.71 234.403 1354.91 233.791 1354.18 232.304C1353.45 230.817 1354.06 229.019 1355.55 228.288L1358.2 233.672ZM1341.18 234.346C1342.74 233.801 1344.45 234.627 1345 236.192C1345.54 237.757 1344.71 239.467 1343.15 240.012L1341.18 234.346ZM1319.61 243.936C1317.95 243.857 1316.68 242.452 1316.75 240.797C1316.83 239.142 1318.24 237.864 1319.89 237.942L1319.61 243.936ZM1292.23 230.719C1293.76 231.37 1294.47 233.133 1293.82 234.656C1293.16 236.18 1291.4 236.888 1289.88 236.237L1292.23 230.719ZM1268.09 225.794C1266.6 225.061 1265.99 223.262 1266.72 221.777C1267.46 220.291 1269.25 219.68 1270.74 220.413L1268.09 225.794ZM1255.05 211.87C1256.45 212.76 1256.86 214.614 1255.97 216.012C1255.08 217.409 1253.22 217.82 1251.82 216.93L1255.05 211.87ZM1239.92 207.982C1238.64 206.932 1238.45 205.042 1239.5 203.761C1240.55 202.479 1242.44 202.292 1243.72 203.342L1239.92 207.982ZM1235.19 196.465C1236.49 197.483 1236.73 199.368 1235.71 200.675C1234.69 201.983 1232.81 202.217 1231.5 201.2L1235.19 196.465ZM1530.5 3.56437C1531.75 2.48389 1533.65 2.62623 1534.73 3.88231C1535.81 5.13838 1535.67 7.03254 1534.41 8.11302L1530.5 3.56437ZM1537.75 7.01209C1536.1 6.89155 1534.85 5.45424 1534.98 3.80178C1535.1 2.14931 1536.53 0.907446 1538.19 1.02799L1537.75 7.01209ZM1545.42 4.65953C1546.51 5.91263 1546.37 7.80717 1545.12 8.89109C1543.86 9.97502 1541.97 9.83787 1540.89 8.58476L1545.42 4.65953ZM1541.99 11.9073C1542.11 10.2549 1543.55 9.01306 1545.2 9.13366C1546.85 9.25426 1548.09 10.6916 1547.97 12.3441L1541.99 11.9073ZM1544.33 19.5809C1543.07 20.6614 1541.17 20.519 1540.09 19.263C1539.01 18.0069 1539.16 16.1127 1540.41 15.0323L1544.33 19.5809ZM1537.07 16.1332C1538.73 16.2537 1539.97 17.691 1539.85 19.3435C1539.73 20.996 1538.29 22.2378 1536.64 22.1173L1537.07 16.1332ZM1529.4 18.4858C1528.32 17.2326 1528.45 15.3381 1529.71 14.2542C1530.96 13.1703 1532.85 13.3074 1533.94 14.5605L1529.4 18.4858ZM1532.83 11.2379C1532.71 12.8904 1531.28 14.1322 1529.62 14.0116C1527.97 13.891 1526.73 12.4537 1526.85 10.8012L1532.83 11.2379ZM1538.86 15.539C1539.7 18.6852 1540.41 21.8931 1540.99 25.1439L1535.08 26.1935C1534.53 23.1073 1533.86 20.0663 1533.06 17.0887L1538.86 15.539ZM1542.84 44.6906C1542.93 51.2329 1542.5 57.8103 1541.53 64.2848L1535.6 63.3936C1536.52 57.2507 1536.93 50.9997 1536.84 44.7751L1542.84 44.6906ZM1536.91 83.4171C1535.85 86.5461 1534.63 89.614 1533.27 92.6018L1527.81 90.1098C1529.09 87.3106 1530.23 84.4291 1531.23 81.4824L1536.91 83.4171ZM1533.27 92.6018C1531.67 96.095 1530.03 99.6629 1528.33 103.24L1522.91 100.658C1524.6 97.128 1526.22 93.5973 1527.81 90.1098L1533.27 92.6018ZM1517.25 124.137C1515.17 127.561 1512.97 130.893 1510.62 134.075L1505.79 130.507C1508.02 127.495 1510.12 124.318 1512.12 121.023L1517.25 124.137ZM1510.62 134.075C1508.35 137.142 1505.7 139.884 1502.81 142.358L1498.91 137.805C1501.51 135.57 1503.84 133.152 1505.79 130.507L1510.62 134.075ZM1484.23 154.338C1480.93 156.035 1477.63 157.602 1474.48 159.078L1471.93 153.647C1475.07 152.174 1478.29 150.647 1481.48 149.003L1484.23 154.338ZM1474.48 159.078C1470.64 160.879 1466.41 162.154 1462.02 162.982L1460.91 157.085C1464.9 156.333 1468.63 155.195 1471.93 153.647L1474.48 159.078ZM1436.49 163.382C1432.09 162.768 1427.85 161.823 1423.97 160.591L1425.79 154.873C1429.31 155.993 1433.22 156.868 1437.32 157.44L1436.49 163.382ZM1423.97 160.591C1423.1 160.315 1422.16 160.026 1421.15 159.72L1422.88 153.977C1423.9 154.286 1424.88 154.584 1425.79 154.873L1423.97 160.591ZM1415.39 157.977C1414.44 157.684 1413.48 157.38 1412.5 157.064L1414.34 151.355C1415.29 151.661 1416.23 151.958 1417.16 152.245L1415.39 157.977ZM1410.48 153.613C1410.54 153.329 1410.59 153.045 1410.65 152.762L1416.54 153.91C1416.48 154.208 1416.42 154.506 1416.36 154.805L1410.48 153.613ZM1410.97 151.056C1411.02 150.771 1411.07 150.486 1411.12 150.203L1417.03 151.216C1416.98 151.515 1416.93 151.815 1416.87 152.116L1410.97 151.056ZM1411.12 150.203C1411.57 147.59 1412.29 144.854 1413.06 142.138L1418.83 143.79C1418.07 146.456 1417.42 148.937 1417.03 151.216L1411.12 150.203ZM1417.06 127.035C1417.51 124.445 1417.7 122.042 1417.53 119.858L1423.51 119.372C1423.74 122.23 1423.48 125.173 1422.97 128.066L1417.06 127.035ZM1417.53 119.858C1417.24 116.3 1416.28 113.262 1414.83 110.679L1420.06 107.743C1421.95 111.114 1423.15 114.994 1423.51 119.372L1417.53 119.858ZM1399.47 99.3382C1396.3 98.3721 1392.9 97.7925 1389.42 97.5876L1389.78 91.5979C1393.68 91.8279 1397.56 92.481 1401.22 93.5998L1399.47 99.3382ZM1389.42 97.5876C1386.54 97.4176 1384.54 97.8168 1383.17 98.4564L1380.63 93.0228C1383.16 91.8392 1386.22 91.3886 1389.78 91.5979L1389.42 97.5876ZM1379.6 108.983C1380.12 113.261 1381.7 118.231 1383.83 123.141L1378.33 125.528C1376.07 120.336 1374.26 114.773 1373.64 109.702L1379.6 108.983ZM1391.03 136.47C1392.73 139.039 1394.28 141.005 1395.46 142.186L1391.21 146.423C1389.63 144.843 1387.83 142.51 1386.03 139.784L1391.03 136.47ZM1395.46 142.186C1396.44 143.173 1397.76 144.154 1399.37 145.12L1396.29 150.268C1394.4 149.138 1392.65 147.866 1391.21 146.423L1395.46 142.186ZM1409.12 149.561C1410.84 150.195 1412.6 150.791 1414.34 151.355L1412.5 157.064C1410.7 156.484 1408.86 155.861 1407.05 155.193L1409.12 149.561ZM1416.36 154.805C1415.39 159.573 1414.1 164.523 1412.51 169.491L1406.8 167.665C1408.32 162.896 1409.56 158.157 1410.48 153.613L1416.36 154.805ZM1400.23 197.233C1397.55 201.755 1394.59 205.998 1391.39 209.774L1386.81 205.891C1389.77 202.412 1392.53 198.453 1395.07 194.171L1400.23 197.233ZM1391.39 209.774C1389.66 211.813 1387.68 213.814 1385.53 215.757L1381.51 211.303C1383.5 209.506 1385.28 207.695 1386.81 205.891L1391.39 209.774ZM1372.41 225.662C1367.87 228.585 1363.05 231.288 1358.2 233.672L1355.55 228.288C1360.21 225.999 1364.83 223.408 1369.16 220.619L1372.41 225.662ZM1343.15 240.012C1340.43 240.957 1337.79 241.763 1335.27 242.405L1333.79 236.59C1336.12 235.996 1338.6 235.242 1341.18 234.346L1343.15 240.012ZM1335.27 242.405C1330 243.747 1324.76 244.179 1319.61 243.936L1319.89 237.942C1324.51 238.16 1329.15 237.771 1333.79 236.59L1335.27 242.405ZM1289.88 236.237C1285.19 234.237 1280.63 232.019 1276.23 229.813L1278.92 224.45C1283.28 226.637 1287.72 228.79 1292.23 230.719L1289.88 236.237ZM1276.23 229.813C1273.51 228.449 1270.81 227.14 1268.09 225.794L1270.74 220.413C1273.42 221.736 1276.18 223.075 1278.92 224.45L1276.23 229.813ZM1251.82 216.93C1249.2 215.259 1246.63 213.447 1244.15 211.437L1247.93 206.775C1250.21 208.62 1252.58 210.3 1255.05 211.87L1251.82 216.93ZM1244.15 211.437C1242.74 210.292 1241.33 209.134 1239.92 207.982L1243.72 203.342C1245.13 204.497 1246.53 205.643 1247.93 206.775L1244.15 211.437ZM1527.95 6.82123C1528.6 5.54426 1529.47 4.44862 1530.5 3.56437L1534.41 8.11302C1533.97 8.49173 1533.59 8.96258 1533.31 9.52138L1527.95 6.82123ZM1538.19 1.02799C1539.54 1.12653 1540.89 1.48667 1542.17 2.12734L1539.47 7.49006C1538.91 7.20867 1538.33 7.05441 1537.75 7.01209L1538.19 1.02799ZM1542.17 2.12734C1543.44 2.76773 1544.54 3.63565 1545.42 4.65953L1540.89 8.58476C1540.51 8.14667 1540.03 7.7713 1539.47 7.49006L1542.17 2.12734ZM1547.97 12.3441C1547.87 13.6956 1547.51 15.0477 1546.87 16.3241L1541.51 13.6239C1541.79 13.0654 1541.95 12.4841 1541.99 11.9073L1547.97 12.3441ZM1546.87 16.3241C1546.23 17.601 1545.35 18.6967 1544.33 19.5809L1540.41 15.0323C1540.85 14.6536 1541.23 14.1827 1541.51 13.6239L1546.87 16.3241ZM1536.64 22.1173C1535.29 22.0187 1533.93 21.6586 1532.66 21.0179L1535.35 15.6552C1535.91 15.9366 1536.49 16.0909 1537.07 16.1332L1536.64 22.1173ZM1532.66 21.0179C1531.38 20.3776 1530.28 19.5096 1529.4 18.4858L1533.94 14.5605C1534.32 14.9986 1534.79 15.374 1535.35 15.6552L1532.66 21.0179ZM1526.85 10.8012C1526.95 9.44964 1527.31 8.09763 1527.95 6.82123L1533.31 9.52138C1533.03 10.0799 1532.88 10.6612 1532.83 11.2379L1526.85 10.8012Z" fill="#0AAAB6"/>
<circle cx="1536.5" cy="11.5" r="11.5" fill="#0AAAB6"/>
</svg>
