<svg width="1024" height="2306" viewBox="0 0 1024 2306" fill="none" xmlns="http://www.w3.org/2000/svg">
<mask id="mask0_200_5" style="mask-type:alpha" maskUnits="userSpaceOnUse" x="-382" y="148" width="1920" height="2156">
<rect x="-382" y="148" width="1920" height="2156" fill="#F2786A"/>
</mask>
<g mask="url(#mask0_200_5)">
<rect x="-382" y="148" width="1920" height="2156" fill="#F2786A"/>
<path fill-rule="evenodd" clip-rule="evenodd" d="M251.7 2063.63C256.944 2075.33 258.439 2089.41 255.829 2103.31C253.227 2117.24 246.79 2129.37 237.93 2137.66C229.207 2145.79 216.685 2151.31 202.509 2148.05C188.164 2144.75 178.405 2133.94 173.218 2122.36C167.975 2110.66 166.473 2096.59 169.083 2082.69C171.685 2068.76 178.122 2056.63 186.982 2048.34C195.711 2040.2 208.226 2034.69 222.402 2037.95C236.748 2041.25 246.506 2052.06 251.693 2063.64L251.7 2063.63ZM229.133 2070.19C226.001 2063.21 221.973 2060.53 219.043 2059.85C215.951 2059.15 210.978 2059.91 205.385 2065.12C199.953 2070.21 195.232 2078.5 193.288 2088.93C191.33 2099.39 192.677 2108.96 195.759 2115.85C198.891 2122.83 202.926 2125.49 205.863 2126.16C208.947 2126.87 213.921 2126.12 219.514 2120.9C224.946 2115.82 229.666 2107.53 231.611 2097.1C233.569 2086.64 232.215 2077.08 229.133 2070.19ZM225.927 2172.4C238.764 2174.78 250.871 2180.9 260.392 2189.83C270.946 2199.73 275.403 2213.32 277.936 2229.07C280.466 2244.91 281.446 2265.66 282.652 2292.07L284.085 2322.99C284.415 2329.77 284.655 2335.18 284.671 2339.39C284.698 2343.54 284.524 2347.49 283.543 2350.92C277.056 2374.01 249.208 2384.68 224.227 2372.83C220.343 2370.84 216.694 2368.43 213.367 2365.66C208.689 2361.9 204.075 2358.07 199.528 2354.18L199.314 2354C195.172 2350.38 190.914 2346.87 186.547 2343.49C174.33 2334.35 160.512 2327.36 145.909 2322.93C140.594 2321.43 135.247 2320.07 129.875 2318.88L129.609 2318.81C122.41 2317.08 116.645 2315.72 112.176 2314.47C107.966 2313.43 103.856 2311.92 99.944 2309.97C75.5954 2296.87 67.6899 2268.11 82.4489 2249.2C84.6289 2246.38 87.7242 2243.91 91.0687 2241.46C94.4696 2238.98 98.9794 2235.98 104.629 2232.21L130.378 2215.05C152.383 2200.38 169.661 2188.84 183.922 2181.52C198.112 2174.23 211.682 2169.76 225.927 2172.4ZM243.84 2204.7C238.294 2199.49 231.24 2195.92 223.761 2194.54C218.379 2193.54 210.888 2194.77 197.669 2201.55C184.621 2208.26 168.34 2219.1 145.602 2234.25L120.642 2250.89C114.761 2254.82 110.61 2257.59 107.58 2259.79C105.864 2260.92 104.305 2262.23 102.93 2263.7C96.127 2272.42 100.05 2285.17 110.461 2290.78C111.054 2291.09 112.605 2291.75 116.703 2292.87C122.272 2294.35 127.857 2295.73 133.456 2297.03L133.959 2297.15C141.969 2299.06 146.605 2300.16 151.125 2301.53C168.932 2306.93 185.782 2315.45 200.679 2326.6C204.476 2329.44 208.111 2332.52 214.411 2337.85L214.793 2338.17C220.696 2343.17 224.85 2346.67 228.069 2349.2C231.388 2351.83 232.864 2352.71 233.455 2352.99C244.136 2358.06 256.739 2353.65 259.736 2343C260.101 2341.02 260.231 2339 260.124 2336.95C260.03 2331.69 259.838 2326.43 259.55 2321.15L258.167 2291.19C256.915 2263.9 255.978 2244.36 253.652 2229.87C251.286 2215.2 247.832 2208.45 243.84 2204.7ZM298.325 2124.81C307.978 2114.47 320.209 2107.33 332.73 2104.63C345.136 2101.95 359.623 2103.4 370.781 2113C381.809 2122.49 384.788 2135.84 383.401 2147.69C381.995 2159.74 376.016 2172.12 366.341 2182.46C356.688 2192.8 344.464 2199.93 331.936 2202.64C319.531 2205.32 305.044 2203.87 293.886 2194.27C282.864 2184.77 279.886 2171.42 281.266 2159.58C282.693 2147.53 288.651 2135.15 298.325 2124.81ZM355.133 2128.69C352.855 2126.72 348.319 2125.04 340.835 2126.67C333.48 2128.26 324.952 2132.85 317.696 2140.61C310.44 2148.37 306.544 2157.07 305.697 2164.48C304.794 2172.07 307.133 2176.52 309.548 2178.59C311.811 2180.55 316.347 2182.23 323.832 2180.6C331.202 2179.01 339.714 2174.42 346.97 2166.66C354.233 2158.89 358.122 2150.2 358.984 2142.8C359.872 2135.2 357.533 2130.75 355.133 2128.69ZM135.251 2122.68C129.383 2113.33 119.816 2105.12 107.384 2102.99C94.9004 2100.84 84.3521 2105.66 77.3249 2112.93C70.2695 2120.22 65.9888 2130.58 65.2569 2142.15C64.5399 2153.72 67.4724 2165.26 73.3804 2174.68C79.2482 2184.02 88.8219 2192.22 101.247 2194.37C113.731 2196.51 124.279 2191.69 131.306 2184.42C138.361 2177.13 142.657 2166.78 143.374 2155.2C144.091 2143.63 141.159 2132.09 135.251 2122.68ZM114.341 2132.28C117.34 2137.07 119.331 2143.84 118.869 2151.38C118.393 2158.9 115.614 2164.81 112.162 2168.36C108.711 2171.95 105.391 2172.56 103.067 2172.17C100.677 2171.76 97.3346 2169.92 94.2894 2165.08C91.291 2160.29 89.3069 2153.5 89.7614 2145.98C90.2375 2138.45 93.0166 2132.55 96.4691 2128.99C99.9198 2125.41 103.239 2124.8 105.563 2125.19C107.954 2125.6 111.296 2127.44 114.341 2132.28ZM386.555 2244.18C377.462 2235.44 365.175 2232.61 354.177 2233.41C343.092 2234.23 332.065 2238.69 323.16 2246.14C314.277 2253.59 308.482 2263.18 306.777 2273.18C305.084 2283.14 307.452 2294.5 316.577 2303.28C325.663 2312.03 337.95 2314.86 348.948 2314.06C360.033 2313.24 371.06 2308.78 379.965 2301.33C388.864 2293.9 394.658 2284.3 396.349 2274.3C398.041 2264.33 395.673 2252.98 386.548 2244.19L386.555 2244.18ZM340.778 2263.62C346.558 2258.78 353.205 2256.35 358.831 2255.94C364.537 2255.53 368.006 2257.15 369.743 2258.81C371.442 2260.44 372.911 2263.49 372.082 2268.4C371.252 2273.28 368.15 2279 362.363 2283.86C356.574 2288.68 349.926 2291.11 344.294 2291.53C338.588 2291.95 335.134 2290.33 333.382 2288.66C331.683 2287.03 330.215 2283.98 331.043 2279.07C331.873 2274.19 334.975 2268.47 340.763 2263.61L340.778 2263.62Z" fill="#0AAAB6"/>
<path fill-rule="evenodd" clip-rule="evenodd" d="M251.7 2063.63C256.944 2075.33 258.439 2089.41 255.829 2103.31C253.227 2117.24 246.79 2129.37 237.93 2137.66C229.207 2145.79 216.685 2151.31 202.509 2148.05C188.164 2144.75 178.405 2133.94 173.218 2122.36C167.975 2110.66 166.473 2096.59 169.083 2082.69C171.685 2068.76 178.122 2056.63 186.982 2048.34C195.711 2040.2 208.226 2034.69 222.402 2037.95C236.748 2041.25 246.506 2052.06 251.693 2063.64L251.7 2063.63ZM229.133 2070.19C226.001 2063.21 221.973 2060.53 219.043 2059.85C215.951 2059.15 210.978 2059.91 205.385 2065.12C199.953 2070.21 195.232 2078.5 193.288 2088.93C191.33 2099.39 192.677 2108.96 195.759 2115.85C198.891 2122.83 202.926 2125.49 205.863 2126.16C208.947 2126.87 213.921 2126.12 219.514 2120.9C224.946 2115.82 229.666 2107.53 231.611 2097.1C233.569 2086.64 232.215 2077.08 229.133 2070.19ZM225.927 2172.4C238.764 2174.78 250.871 2180.9 260.392 2189.83C270.946 2199.73 275.403 2213.32 277.936 2229.07C280.466 2244.91 281.446 2265.66 282.652 2292.07L284.085 2322.99C284.415 2329.77 284.655 2335.18 284.671 2339.39C284.698 2343.54 284.524 2347.49 283.543 2350.92C277.056 2374.01 249.208 2384.68 224.227 2372.83C220.343 2370.84 216.694 2368.43 213.367 2365.66C208.689 2361.9 204.075 2358.07 199.528 2354.18L199.314 2354C195.172 2350.38 190.914 2346.87 186.547 2343.49C174.33 2334.35 160.512 2327.36 145.909 2322.93C140.594 2321.43 135.247 2320.07 129.875 2318.88L129.609 2318.81C122.41 2317.08 116.645 2315.72 112.176 2314.47C107.966 2313.43 103.856 2311.92 99.944 2309.97C75.5954 2296.87 67.6899 2268.11 82.4489 2249.2C84.6289 2246.38 87.7242 2243.91 91.0687 2241.46C94.4696 2238.98 98.9794 2235.98 104.629 2232.21L130.378 2215.05C152.383 2200.38 169.661 2188.84 183.922 2181.52C198.112 2174.23 211.682 2169.76 225.927 2172.4ZM243.84 2204.7C238.294 2199.49 231.24 2195.92 223.761 2194.54C218.379 2193.54 210.888 2194.77 197.669 2201.55C184.621 2208.26 168.34 2219.1 145.602 2234.25L120.642 2250.89C114.761 2254.82 110.61 2257.59 107.58 2259.79C105.864 2260.92 104.305 2262.23 102.93 2263.7C96.127 2272.42 100.05 2285.17 110.461 2290.78C111.054 2291.09 112.605 2291.75 116.703 2292.87C122.272 2294.35 127.857 2295.73 133.456 2297.03L133.959 2297.15C141.969 2299.06 146.605 2300.16 151.125 2301.53C168.932 2306.93 185.782 2315.45 200.679 2326.6C204.476 2329.44 208.111 2332.52 214.411 2337.85L214.793 2338.17C220.696 2343.17 224.85 2346.67 228.069 2349.2C231.388 2351.83 232.864 2352.71 233.455 2352.99C244.136 2358.06 256.739 2353.65 259.736 2343C260.101 2341.02 260.231 2339 260.124 2336.95C260.03 2331.69 259.838 2326.43 259.55 2321.15L258.167 2291.19C256.915 2263.9 255.978 2244.36 253.652 2229.87C251.286 2215.2 247.832 2208.45 243.84 2204.7ZM298.325 2124.81C307.978 2114.47 320.209 2107.33 332.73 2104.63C345.136 2101.95 359.623 2103.4 370.781 2113C381.809 2122.49 384.788 2135.84 383.401 2147.69C381.995 2159.74 376.016 2172.12 366.341 2182.46C356.688 2192.8 344.464 2199.93 331.936 2202.64C319.531 2205.32 305.044 2203.87 293.886 2194.27C282.864 2184.77 279.886 2171.42 281.266 2159.58C282.693 2147.53 288.651 2135.15 298.325 2124.81ZM355.133 2128.69C352.855 2126.72 348.319 2125.04 340.835 2126.67C333.48 2128.26 324.952 2132.85 317.696 2140.61C310.44 2148.37 306.544 2157.07 305.697 2164.48C304.794 2172.07 307.133 2176.52 309.548 2178.59C311.811 2180.55 316.347 2182.23 323.832 2180.6C331.202 2179.01 339.714 2174.42 346.97 2166.66C354.233 2158.89 358.122 2150.2 358.984 2142.8C359.872 2135.2 357.533 2130.75 355.133 2128.69ZM135.251 2122.68C129.383 2113.33 119.816 2105.12 107.384 2102.99C94.9004 2100.84 84.3521 2105.66 77.3249 2112.93C70.2695 2120.22 65.9888 2130.58 65.2569 2142.15C64.5399 2153.72 67.4724 2165.26 73.3804 2174.68C79.2482 2184.02 88.8219 2192.22 101.247 2194.37C113.731 2196.51 124.279 2191.69 131.306 2184.42C138.361 2177.13 142.657 2166.78 143.374 2155.2C144.091 2143.63 141.159 2132.09 135.251 2122.68ZM114.341 2132.28C117.34 2137.07 119.331 2143.84 118.869 2151.38C118.393 2158.9 115.614 2164.81 112.162 2168.36C108.711 2171.95 105.391 2172.56 103.067 2172.17C100.677 2171.76 97.3346 2169.92 94.2894 2165.08C91.291 2160.29 89.3069 2153.5 89.7614 2145.98C90.2375 2138.45 93.0166 2132.55 96.4691 2128.99C99.9198 2125.41 103.239 2124.8 105.563 2125.19C107.954 2125.6 111.296 2127.44 114.341 2132.28ZM386.555 2244.18C377.462 2235.44 365.175 2232.61 354.177 2233.41C343.092 2234.23 332.065 2238.69 323.16 2246.14C314.277 2253.59 308.482 2263.18 306.777 2273.18C305.084 2283.14 307.452 2294.5 316.577 2303.28C325.663 2312.03 337.95 2314.86 348.948 2314.06C360.033 2313.24 371.06 2308.78 379.965 2301.33C388.864 2293.9 394.658 2284.3 396.349 2274.3C398.041 2264.33 395.673 2252.98 386.548 2244.19L386.555 2244.18ZM340.778 2263.62C346.558 2258.78 353.205 2256.35 358.831 2255.94C364.537 2255.53 368.006 2257.15 369.743 2258.81C371.442 2260.44 372.911 2263.49 372.082 2268.4C371.252 2273.28 368.15 2279 362.363 2283.86C356.574 2288.68 349.926 2291.11 344.294 2291.53C338.588 2291.95 335.134 2290.33 333.382 2288.66C331.683 2287.03 330.215 2283.98 331.043 2279.07C331.873 2274.19 334.975 2268.47 340.763 2263.61L340.778 2263.62Z" fill="#0AAAB6"/>
<path fill-rule="evenodd" clip-rule="evenodd" d="M251.7 2063.63C256.944 2075.33 258.439 2089.41 255.829 2103.31C253.227 2117.24 246.79 2129.37 237.93 2137.66C229.207 2145.79 216.685 2151.31 202.509 2148.05C188.164 2144.75 178.405 2133.94 173.218 2122.36C167.975 2110.66 166.473 2096.59 169.083 2082.69C171.685 2068.76 178.122 2056.63 186.982 2048.34C195.711 2040.2 208.226 2034.69 222.402 2037.95C236.748 2041.25 246.506 2052.06 251.693 2063.64L251.7 2063.63ZM229.133 2070.19C226.001 2063.21 221.973 2060.53 219.043 2059.85C215.951 2059.15 210.978 2059.91 205.385 2065.12C199.953 2070.21 195.232 2078.5 193.288 2088.93C191.33 2099.39 192.677 2108.96 195.759 2115.85C198.891 2122.83 202.926 2125.49 205.863 2126.16C208.947 2126.87 213.921 2126.12 219.514 2120.9C224.946 2115.82 229.666 2107.53 231.611 2097.1C233.569 2086.64 232.215 2077.08 229.133 2070.19ZM225.927 2172.4C238.764 2174.78 250.871 2180.9 260.392 2189.83C270.946 2199.73 275.403 2213.32 277.936 2229.07C280.466 2244.91 281.446 2265.66 282.652 2292.07L284.085 2322.99C284.415 2329.77 284.655 2335.18 284.671 2339.39C284.698 2343.54 284.524 2347.49 283.543 2350.92C277.056 2374.01 249.208 2384.68 224.227 2372.83C220.343 2370.84 216.694 2368.43 213.367 2365.66C208.689 2361.9 204.075 2358.07 199.528 2354.18L199.314 2354C195.172 2350.38 190.914 2346.87 186.547 2343.49C174.33 2334.35 160.512 2327.36 145.909 2322.93C140.594 2321.43 135.247 2320.07 129.875 2318.88L129.609 2318.81C122.41 2317.08 116.645 2315.72 112.176 2314.47C107.966 2313.43 103.856 2311.92 99.944 2309.97C75.5954 2296.87 67.6899 2268.11 82.4489 2249.2C84.6289 2246.38 87.7242 2243.91 91.0687 2241.46C94.4696 2238.98 98.9794 2235.98 104.629 2232.21L130.378 2215.05C152.383 2200.38 169.661 2188.84 183.922 2181.52C198.112 2174.23 211.682 2169.76 225.927 2172.4ZM243.84 2204.7C238.294 2199.49 231.24 2195.92 223.761 2194.54C218.379 2193.54 210.888 2194.77 197.669 2201.55C184.621 2208.26 168.34 2219.1 145.602 2234.25L120.642 2250.89C114.761 2254.82 110.61 2257.59 107.58 2259.79C105.864 2260.92 104.305 2262.23 102.93 2263.7C96.127 2272.42 100.05 2285.17 110.461 2290.78C111.054 2291.09 112.605 2291.75 116.703 2292.87C122.272 2294.35 127.857 2295.73 133.456 2297.03L133.959 2297.15C141.969 2299.06 146.605 2300.16 151.125 2301.53C168.932 2306.93 185.782 2315.45 200.679 2326.6C204.476 2329.44 208.111 2332.52 214.411 2337.85L214.793 2338.17C220.696 2343.17 224.85 2346.67 228.069 2349.2C231.388 2351.83 232.864 2352.71 233.455 2352.99C244.136 2358.06 256.739 2353.65 259.736 2343C260.101 2341.02 260.231 2339 260.124 2336.95C260.03 2331.69 259.838 2326.43 259.55 2321.15L258.167 2291.19C256.915 2263.9 255.978 2244.36 253.652 2229.87C251.286 2215.2 247.832 2208.45 243.84 2204.7ZM298.325 2124.81C307.978 2114.47 320.209 2107.33 332.73 2104.63C345.136 2101.95 359.623 2103.4 370.781 2113C381.809 2122.49 384.788 2135.84 383.401 2147.69C381.995 2159.74 376.016 2172.12 366.341 2182.46C356.688 2192.8 344.464 2199.93 331.936 2202.64C319.531 2205.32 305.044 2203.87 293.886 2194.27C282.864 2184.77 279.886 2171.42 281.266 2159.58C282.693 2147.53 288.651 2135.15 298.325 2124.81ZM355.133 2128.69C352.855 2126.72 348.319 2125.04 340.835 2126.67C333.48 2128.26 324.952 2132.85 317.696 2140.61C310.44 2148.37 306.544 2157.07 305.697 2164.48C304.794 2172.07 307.133 2176.52 309.548 2178.59C311.811 2180.55 316.347 2182.23 323.832 2180.6C331.202 2179.01 339.714 2174.42 346.97 2166.66C354.233 2158.89 358.122 2150.2 358.984 2142.8C359.872 2135.2 357.533 2130.75 355.133 2128.69ZM135.251 2122.68C129.383 2113.33 119.816 2105.12 107.384 2102.99C94.9004 2100.84 84.3521 2105.66 77.3249 2112.93C70.2695 2120.22 65.9888 2130.58 65.2569 2142.15C64.5399 2153.72 67.4724 2165.26 73.3804 2174.68C79.2482 2184.02 88.8219 2192.22 101.247 2194.37C113.731 2196.51 124.279 2191.69 131.306 2184.42C138.361 2177.13 142.657 2166.78 143.374 2155.2C144.091 2143.63 141.159 2132.09 135.251 2122.68ZM114.341 2132.28C117.34 2137.07 119.331 2143.84 118.869 2151.38C118.393 2158.9 115.614 2164.81 112.162 2168.36C108.711 2171.95 105.391 2172.56 103.067 2172.17C100.677 2171.76 97.3346 2169.92 94.2894 2165.08C91.291 2160.29 89.3069 2153.5 89.7614 2145.98C90.2375 2138.45 93.0166 2132.55 96.4691 2128.99C99.9198 2125.41 103.239 2124.8 105.563 2125.19C107.954 2125.6 111.296 2127.44 114.341 2132.28ZM386.555 2244.18C377.462 2235.44 365.175 2232.61 354.177 2233.41C343.092 2234.23 332.065 2238.69 323.16 2246.14C314.277 2253.59 308.482 2263.18 306.777 2273.18C305.084 2283.14 307.452 2294.5 316.577 2303.28C325.663 2312.03 337.95 2314.86 348.948 2314.06C360.033 2313.24 371.06 2308.78 379.965 2301.33C388.864 2293.9 394.658 2284.3 396.349 2274.3C398.041 2264.33 395.673 2252.98 386.548 2244.19L386.555 2244.18ZM340.778 2263.62C346.558 2258.78 353.205 2256.35 358.831 2255.94C364.537 2255.53 368.006 2257.15 369.743 2258.81C371.442 2260.44 372.911 2263.49 372.082 2268.4C371.252 2273.28 368.15 2279 362.363 2283.86C356.574 2288.68 349.926 2291.11 344.294 2291.53C338.588 2291.95 335.134 2290.33 333.382 2288.66C331.683 2287.03 330.215 2283.98 331.043 2279.07C331.873 2274.19 334.975 2268.47 340.763 2263.61L340.778 2263.62Z" fill="#0AAAB6"/>
<path fill-rule="evenodd" clip-rule="evenodd" d="M251.7 2063.63C256.944 2075.33 258.439 2089.41 255.829 2103.31C253.227 2117.24 246.79 2129.37 237.93 2137.66C229.207 2145.79 216.685 2151.31 202.509 2148.05C188.164 2144.75 178.405 2133.94 173.218 2122.36C167.975 2110.66 166.473 2096.59 169.083 2082.69C171.685 2068.76 178.122 2056.63 186.982 2048.34C195.711 2040.2 208.226 2034.69 222.402 2037.95C236.748 2041.25 246.506 2052.06 251.693 2063.64L251.7 2063.63ZM229.133 2070.19C226.001 2063.21 221.973 2060.53 219.043 2059.85C215.951 2059.15 210.978 2059.91 205.385 2065.12C199.953 2070.21 195.232 2078.5 193.288 2088.93C191.33 2099.39 192.677 2108.96 195.759 2115.85C198.891 2122.83 202.926 2125.49 205.863 2126.16C208.947 2126.87 213.921 2126.12 219.514 2120.9C224.946 2115.82 229.666 2107.53 231.611 2097.1C233.569 2086.64 232.215 2077.08 229.133 2070.19ZM225.927 2172.4C238.764 2174.78 250.871 2180.9 260.392 2189.83C270.946 2199.73 275.403 2213.32 277.936 2229.07C280.466 2244.91 281.446 2265.66 282.652 2292.07L284.085 2322.99C284.415 2329.77 284.655 2335.18 284.671 2339.39C284.698 2343.54 284.524 2347.49 283.543 2350.92C277.056 2374.01 249.208 2384.68 224.227 2372.83C220.343 2370.84 216.694 2368.43 213.367 2365.66C208.689 2361.9 204.075 2358.07 199.528 2354.18L199.314 2354C195.172 2350.38 190.914 2346.87 186.547 2343.49C174.33 2334.35 160.512 2327.36 145.909 2322.93C140.594 2321.43 135.247 2320.07 129.875 2318.88L129.609 2318.81C122.41 2317.08 116.645 2315.72 112.176 2314.47C107.966 2313.43 103.856 2311.92 99.944 2309.97C75.5954 2296.87 67.6899 2268.11 82.4489 2249.2C84.6289 2246.38 87.7242 2243.91 91.0687 2241.46C94.4696 2238.98 98.9794 2235.98 104.629 2232.21L130.378 2215.05C152.383 2200.38 169.661 2188.84 183.922 2181.52C198.112 2174.23 211.682 2169.76 225.927 2172.4ZM243.84 2204.7C238.294 2199.49 231.24 2195.92 223.761 2194.54C218.379 2193.54 210.888 2194.77 197.669 2201.55C184.621 2208.26 168.34 2219.1 145.602 2234.25L120.642 2250.89C114.761 2254.82 110.61 2257.59 107.58 2259.79C105.864 2260.92 104.305 2262.23 102.93 2263.7C96.127 2272.42 100.05 2285.17 110.461 2290.78C111.054 2291.09 112.605 2291.75 116.703 2292.87C122.272 2294.35 127.857 2295.73 133.456 2297.03L133.959 2297.15C141.969 2299.06 146.605 2300.16 151.125 2301.53C168.932 2306.93 185.782 2315.45 200.679 2326.6C204.476 2329.44 208.111 2332.52 214.411 2337.85L214.793 2338.17C220.696 2343.17 224.85 2346.67 228.069 2349.2C231.388 2351.83 232.864 2352.71 233.455 2352.99C244.136 2358.06 256.739 2353.65 259.736 2343C260.101 2341.02 260.231 2339 260.124 2336.95C260.03 2331.69 259.838 2326.43 259.55 2321.15L258.167 2291.19C256.915 2263.9 255.978 2244.36 253.652 2229.87C251.286 2215.2 247.832 2208.45 243.84 2204.7ZM298.325 2124.81C307.978 2114.47 320.209 2107.33 332.73 2104.63C345.136 2101.95 359.623 2103.4 370.781 2113C381.809 2122.49 384.788 2135.84 383.401 2147.69C381.995 2159.74 376.016 2172.12 366.341 2182.46C356.688 2192.8 344.464 2199.93 331.936 2202.64C319.531 2205.32 305.044 2203.87 293.886 2194.27C282.864 2184.77 279.886 2171.42 281.266 2159.58C282.693 2147.53 288.651 2135.15 298.325 2124.81ZM355.133 2128.69C352.855 2126.72 348.319 2125.04 340.835 2126.67C333.48 2128.26 324.952 2132.85 317.696 2140.61C310.44 2148.37 306.544 2157.07 305.697 2164.48C304.794 2172.07 307.133 2176.52 309.548 2178.59C311.811 2180.55 316.347 2182.23 323.832 2180.6C331.202 2179.01 339.714 2174.42 346.97 2166.66C354.233 2158.89 358.122 2150.2 358.984 2142.8C359.872 2135.2 357.533 2130.75 355.133 2128.69ZM135.251 2122.68C129.383 2113.33 119.816 2105.12 107.384 2102.99C94.9004 2100.84 84.3521 2105.66 77.3249 2112.93C70.2695 2120.22 65.9888 2130.58 65.2569 2142.15C64.5399 2153.72 67.4724 2165.26 73.3804 2174.68C79.2482 2184.02 88.8219 2192.22 101.247 2194.37C113.731 2196.51 124.279 2191.69 131.306 2184.42C138.361 2177.13 142.657 2166.78 143.374 2155.2C144.091 2143.63 141.159 2132.09 135.251 2122.68ZM114.341 2132.28C117.34 2137.07 119.331 2143.84 118.869 2151.38C118.393 2158.9 115.614 2164.81 112.162 2168.36C108.711 2171.95 105.391 2172.56 103.067 2172.17C100.677 2171.76 97.3346 2169.92 94.2894 2165.08C91.291 2160.29 89.3069 2153.5 89.7614 2145.98C90.2375 2138.45 93.0166 2132.55 96.4691 2128.99C99.9198 2125.41 103.239 2124.8 105.563 2125.19C107.954 2125.6 111.296 2127.44 114.341 2132.28ZM386.555 2244.18C377.462 2235.44 365.175 2232.61 354.177 2233.41C343.092 2234.23 332.065 2238.69 323.16 2246.14C314.277 2253.59 308.482 2263.18 306.777 2273.18C305.084 2283.14 307.452 2294.5 316.577 2303.28C325.663 2312.03 337.95 2314.86 348.948 2314.06C360.033 2313.24 371.06 2308.78 379.965 2301.33C388.864 2293.9 394.658 2284.3 396.349 2274.3C398.041 2264.33 395.673 2252.98 386.548 2244.19L386.555 2244.18ZM340.778 2263.62C346.558 2258.78 353.205 2256.35 358.831 2255.94C364.537 2255.53 368.006 2257.15 369.743 2258.81C371.442 2260.44 372.911 2263.49 372.082 2268.4C371.252 2273.28 368.15 2279 362.363 2283.86C356.574 2288.68 349.926 2291.11 344.294 2291.53C338.588 2291.95 335.134 2290.33 333.382 2288.66C331.683 2287.03 330.215 2283.98 331.043 2279.07C331.873 2274.19 334.975 2268.47 340.763 2263.61L340.778 2263.62Z" fill="#0AAAB6"/>
</g>
<path d="M-25.2027 39.9824C-324.371 -32.4296 -624.726 9.81074 -737.507 39.9824L-873 148H2584V83.9894C2499.87 118.829 2289.32 163.503 2120.23 63.4861C1908.86 -61.5346 1664.97 118.495 1479.93 106.993C1294.88 95.4913 1191.13 19.9789 992.928 39.9824C834.363 55.9852 731.75 75.9883 700.264 83.9894C583.095 99.4921 273.965 112.394 -25.2027 39.9824Z" fill="#F2786A"/>
<path d="M-166.203 2197.98C-465.371 2125.57 -765.726 2167.81 -878.507 2197.98L-1014 2306H2443V2241.99C2358.87 2276.83 2148.32 2321.5 1979.23 2221.49C1767.86 2096.47 1523.97 2276.5 1338.93 2264.99C1153.88 2253.49 1050.13 2177.98 851.928 2197.98C693.363 2213.99 590.75 2233.99 559.264 2241.99C442.095 2257.49 132.965 2270.39 -166.203 2197.98Z" fill="white"/>
<path d="M247.54 368.851C238.77 358.28 226.218 351.561 212.566 350.128C211.699 342.233 209.068 334.635 204.867 327.897C200.666 321.159 195.003 315.454 188.299 311.206C181.595 306.957 174.021 304.274 166.14 303.355C158.258 302.436 150.271 303.305 142.771 305.898C135.271 308.491 128.45 312.74 122.814 318.331C117.179 323.922 112.873 330.712 110.217 338.196C107.56 345.68 106.622 353.666 107.47 361.563C108.318 369.46 110.932 377.064 115.117 383.812C115.123 383.851 115.123 383.89 115.117 383.929L11.8834 487.333H11.7365C4.99511 483.144 -2.60207 480.528 -10.4915 479.678C-18.3808 478.829 -26.36 479.769 -33.8371 482.428C-41.3141 485.087 -48.0972 489.396 -53.6831 495.037C-59.2691 500.678 -63.5146 507.505 -66.1047 515.012C-68.6948 522.519 -69.5631 530.514 -68.6451 538.403C-67.7271 546.292 -65.0464 553.873 -60.8018 560.583C-56.5573 567.294 -50.8578 572.961 -44.1262 577.166C-37.3945 581.371 -29.8035 584.005 -21.9161 584.872C-21.0494 592.767 -18.418 600.365 -14.2171 607.103C-10.0163 613.841 -4.35372 619.546 2.35046 623.794C9.05463 628.043 16.6284 630.726 24.51 631.645C32.3916 632.564 40.3787 631.695 47.879 629.102C55.3792 626.509 62.2001 622.26 67.8356 616.669C73.4711 611.078 77.7767 604.288 80.433 596.804C83.0893 589.32 84.0281 581.334 83.1798 573.437C82.3315 565.54 79.7178 557.936 75.5327 551.188C75.5298 551.149 75.5298 551.11 75.5327 551.071L178.825 447.667H178.972C189.639 454.392 202.356 457.08 214.828 455.245C227.301 453.41 238.708 447.174 246.99 437.661C255.273 428.149 259.886 415.986 259.998 403.369C260.109 390.751 255.712 378.509 247.599 368.851H247.54ZM229.084 422.154C224.491 427.419 218.174 430.872 211.266 431.896C204.359 432.919 197.313 431.445 191.393 427.739C186.887 424.877 181.54 423.636 176.235 424.221C170.929 424.806 165.981 427.182 162.204 430.958L58.8385 534.42C55.0754 538.207 52.7125 543.163 52.1387 548.474C51.565 553.784 52.8145 559.131 55.6817 563.636C58.1817 567.661 59.6722 572.232 60.0259 576.958C60.3797 581.685 59.5863 586.427 57.7134 590.78C55.8405 595.133 52.9436 598.968 49.2698 601.959C45.596 604.949 41.2542 607.006 36.6146 607.953C31.975 608.901 27.1752 608.712 22.6245 607.401C18.0739 606.091 13.9072 603.699 10.4799 600.428C7.05264 597.158 4.46633 593.106 2.94153 588.619C1.41673 584.132 0.998657 579.342 1.72296 574.658C1.98605 572.98 1.88261 571.264 1.41977 569.63C0.956932 567.995 0.145683 566.481 -0.958107 565.19C-2.0619 563.9 -3.43202 562.864 -4.97413 562.154C-6.51624 561.444 -8.1937 561.077 -9.89101 561.079C-10.4958 561.084 -11.0993 561.133 -11.697 561.226C-16.3717 561.945 -21.1508 561.524 -25.6279 559.998C-30.1049 558.471 -34.1474 555.885 -37.4114 552.459C-40.6754 549.033 -43.0644 544.869 -44.3751 540.32C-45.6857 535.771 -45.8794 530.973 -44.9394 526.333C-43.9995 521.694 -41.9539 517.35 -38.9766 513.672C-35.9992 509.993 -32.1783 507.089 -27.8388 505.207C-23.4993 503.324 -18.7697 502.518 -14.0523 502.858C-9.33484 503.198 -4.76919 504.673 -0.743721 507.158C3.76318 510.02 9.1096 511.261 14.4152 510.676C19.7207 510.091 24.6691 507.715 28.4454 503.94L131.811 400.477C135.56 396.694 137.914 391.749 138.488 386.452C139.061 381.154 137.82 375.819 134.968 371.32C132.468 367.295 130.978 362.724 130.624 357.998C130.27 353.271 131.063 348.529 132.936 344.176C134.809 339.823 137.706 335.988 141.38 332.997C145.054 330.007 149.396 327.95 154.035 327.003C158.675 326.055 163.475 326.244 168.025 327.555C172.576 328.865 176.743 331.257 180.17 334.528C183.597 337.798 186.183 341.85 187.708 346.337C189.233 350.824 189.651 355.614 188.927 360.298C188.641 362.127 188.791 363.998 189.364 365.758C189.938 367.519 190.918 369.118 192.226 370.428C193.534 371.737 195.133 372.718 196.891 373.292C198.65 373.866 200.519 374.016 202.347 373.73C208.326 372.762 214.459 373.668 219.904 376.324C225.349 378.981 229.84 383.257 232.761 388.568C235.683 393.88 236.892 399.965 236.223 405.991C235.554 412.017 233.04 417.688 229.025 422.228L229.084 422.154Z" fill="#F8D432" fill-opacity="0.9"/>
<path fill-rule="evenodd" clip-rule="evenodd" d="M789.17 746.238C802.379 746.24 816.255 750.775 828.233 759.095C840.233 767.415 848.931 778.586 852.994 790.415C856.966 802.048 856.884 816.153 847.843 828.109C838.696 840.208 824.421 844.826 811.34 844.818C798.132 844.815 784.265 840.293 772.288 831.973C760.288 823.652 751.59 812.481 747.526 800.652C743.545 789.008 743.637 774.914 752.677 762.959C761.824 750.859 776.099 746.241 789.18 746.25L789.17 746.238ZM785.829 770.227C777.945 770.227 773.731 772.887 771.856 775.355C769.899 777.969 768.513 782.964 771.063 790.424C773.557 797.678 779.366 805.614 788.356 811.843C797.366 818.095 806.941 820.868 814.72 820.876C822.604 820.875 826.808 818.204 828.673 815.724C830.641 813.122 832.026 808.127 829.476 800.666C826.983 793.413 821.174 785.476 812.183 779.248C803.174 772.996 793.608 770.234 785.829 770.227ZM880.615 816.36C888.258 805.29 899.119 796.487 911.531 791.302C925.29 785.552 939.946 787.092 955.829 791.356C971.787 795.655 991.722 803.489 1017.07 813.498L1046.75 825.189C1053.27 827.743 1058.46 829.797 1062.42 831.558C1066.34 833.284 1069.98 835.113 1072.79 837.482C1091.78 853.326 1090.09 884.016 1068.42 902.51C1064.9 905.321 1061.1 907.736 1057.09 909.695C1051.58 912.509 1046.04 915.234 1040.46 917.867L1040.21 917.994C1035.06 920.362 1029.96 922.887 1024.94 925.566C1011.2 933.199 998.801 943.246 988.487 955.112C984.83 959.475 981.306 963.933 977.918 968.48L977.741 968.701C973.083 974.743 969.372 979.59 966.317 983.267C963.566 986.787 960.411 990.014 956.929 992.87C934.349 1010.24 903.972 1005.55 892.404 983.689C890.669 980.449 889.646 976.494 888.755 972.317C887.853 968.072 886.931 962.565 885.77 955.664L880.477 924.21C875.948 897.325 872.375 876.21 871.495 859.709C870.613 843.287 872.128 828.641 880.615 816.36ZM918.539 813.138C911.307 816.158 904.979 821.287 900.527 827.736C897.314 832.374 895.316 839.938 896.131 855.233C896.945 870.334 900.274 890.214 904.946 917.99L910.085 948.485C911.3 955.672 912.16 960.745 912.949 964.52C913.29 966.612 913.866 968.63 914.667 970.543C920.007 980.622 933.646 982.308 943.308 974.884C943.856 974.46 945.124 973.277 947.908 969.897C951.64 965.282 955.296 960.614 958.876 955.895L959.204 955.475C964.375 948.747 967.365 944.852 970.558 941.18C983.134 926.709 998.249 914.459 1015.01 905.151C1019.28 902.777 1023.71 900.658 1031.37 896.981L1031.84 896.759C1039.03 893.316 1044.07 890.889 1047.81 888.928C1051.68 886.915 1053.12 885.897 1053.64 885.46C1062.91 877.557 1064.07 863.841 1055.31 856.53C1053.61 855.354 1051.76 854.376 1049.79 853.612C1044.8 851.484 1039.77 849.443 1034.69 847.491L1005.92 836.149C979.728 825.816 960.955 818.454 946.349 814.53C931.555 810.566 923.75 810.966 918.539 813.138ZM866.354 728.197C860.694 714.757 859.131 700.243 861.873 687.331C864.573 674.532 872.047 661.523 885.778 655.08C899.347 648.71 913.154 651.539 923.721 657.845C934.457 664.247 943.581 675.092 949.236 688.555C954.896 701.995 956.449 716.498 953.716 729.421C951.017 742.22 943.543 755.229 929.811 761.673C916.234 768.03 902.426 765.202 891.868 758.908C881.137 752.483 872.009 741.66 866.354 728.197ZM893.935 676.41C891.123 677.721 887.638 681.281 886.015 689.006C884.416 696.596 885.133 706.548 889.374 716.645C893.616 726.742 900.164 734.079 906.771 737.999C913.528 742.05 918.702 741.729 921.668 740.332C924.467 739.031 927.951 735.471 929.575 727.746C931.188 720.146 930.457 710.204 926.216 700.107C921.964 689.998 915.426 682.673 908.832 678.742C902.062 674.703 896.888 675.024 893.935 676.41ZM795.645 880.658C784.383 882.235 772.633 887.769 765.388 898.56C758.112 909.395 758.2 921.348 762.078 931.024C765.961 940.734 773.902 949.13 784.473 954.697C795.057 960.254 807.146 962.364 818.49 960.78C829.752 959.204 841.493 953.657 848.747 942.878C856.024 932.043 855.935 920.09 852.057 910.415C848.174 900.705 840.246 892.298 829.662 886.741C819.078 881.184 806.989 879.074 795.645 880.658ZM795.868 904.373C801.633 903.572 808.848 904.56 815.74 908.172C822.618 911.794 827 916.898 828.886 921.643C830.804 926.401 829.98 929.78 828.633 931.801C827.242 933.877 824.106 936.245 818.267 937.066C812.502 937.866 805.278 936.867 798.395 933.267C791.517 929.644 787.135 924.54 785.249 919.795C783.331 915.037 784.155 911.658 785.502 909.637C786.893 907.561 790.029 905.193 795.868 904.373ZM1015.8 695.58C1003.75 700.446 995.914 710.807 992.03 721.487C988.131 732.257 987.683 744.509 990.937 756.026C994.196 767.521 1000.78 777.017 1009.46 782.838C1018.12 788.635 1029.8 791.197 1041.91 786.321C1053.96 781.467 1061.8 771.106 1065.69 760.426C1069.58 749.656 1070.03 737.404 1066.78 725.887C1063.53 714.382 1056.95 704.885 1048.25 699.076C1039.59 693.279 1027.92 690.717 1015.81 695.592L1015.8 695.58ZM1014.8 746.832C1012.68 739.353 1013.2 732.078 1015.18 726.615C1017.2 721.073 1020.19 718.495 1022.48 717.564C1024.73 716.653 1028.21 716.558 1032.48 719.409C1036.72 722.247 1040.8 727.579 1042.93 735.07C1045.03 742.549 1044.51 749.824 1042.53 755.299C1040.52 760.841 1037.54 763.407 1035.23 764.35C1032.99 765.26 1029.5 765.356 1025.23 762.505C1020.99 759.666 1016.92 754.334 1014.79 746.843L1014.8 746.832Z" fill="#0AAAB6"/>
<path fill-rule="evenodd" clip-rule="evenodd" d="M789.17 746.238C802.379 746.24 816.255 750.775 828.233 759.095C840.233 767.415 848.931 778.586 852.994 790.415C856.966 802.048 856.884 816.153 847.843 828.109C838.696 840.208 824.421 844.826 811.34 844.818C798.132 844.815 784.265 840.293 772.288 831.973C760.288 823.652 751.59 812.481 747.526 800.652C743.545 789.008 743.637 774.914 752.677 762.959C761.824 750.859 776.099 746.241 789.18 746.25L789.17 746.238ZM785.829 770.227C777.945 770.227 773.731 772.887 771.856 775.355C769.899 777.969 768.513 782.964 771.063 790.424C773.557 797.678 779.366 805.614 788.356 811.843C797.366 818.095 806.941 820.868 814.72 820.876C822.604 820.875 826.808 818.204 828.673 815.724C830.641 813.122 832.026 808.127 829.476 800.666C826.983 793.413 821.174 785.476 812.183 779.248C803.174 772.996 793.608 770.234 785.829 770.227ZM880.615 816.36C888.258 805.29 899.119 796.487 911.531 791.302C925.29 785.552 939.946 787.092 955.829 791.356C971.787 795.655 991.722 803.489 1017.07 813.498L1046.75 825.189C1053.27 827.743 1058.46 829.797 1062.42 831.558C1066.34 833.284 1069.98 835.113 1072.79 837.482C1091.78 853.326 1090.09 884.016 1068.42 902.51C1064.9 905.321 1061.1 907.736 1057.09 909.695C1051.58 912.509 1046.04 915.234 1040.46 917.867L1040.21 917.994C1035.06 920.362 1029.96 922.887 1024.94 925.566C1011.2 933.199 998.801 943.246 988.487 955.112C984.83 959.475 981.306 963.933 977.918 968.48L977.741 968.701C973.083 974.743 969.372 979.59 966.317 983.267C963.566 986.787 960.411 990.014 956.929 992.87C934.349 1010.24 903.972 1005.55 892.404 983.689C890.669 980.449 889.646 976.494 888.755 972.317C887.853 968.072 886.931 962.565 885.77 955.664L880.477 924.21C875.948 897.325 872.375 876.21 871.495 859.709C870.613 843.287 872.128 828.641 880.615 816.36ZM918.539 813.138C911.307 816.158 904.979 821.287 900.527 827.736C897.314 832.374 895.316 839.938 896.131 855.233C896.945 870.334 900.274 890.214 904.946 917.99L910.085 948.485C911.3 955.672 912.16 960.745 912.949 964.52C913.29 966.612 913.866 968.63 914.667 970.543C920.007 980.622 933.646 982.308 943.308 974.884C943.856 974.46 945.124 973.277 947.908 969.897C951.64 965.282 955.296 960.614 958.876 955.895L959.204 955.475C964.375 948.747 967.365 944.852 970.558 941.18C983.134 926.709 998.249 914.459 1015.01 905.151C1019.28 902.777 1023.71 900.658 1031.37 896.981L1031.84 896.759C1039.03 893.316 1044.07 890.889 1047.81 888.928C1051.68 886.915 1053.12 885.897 1053.64 885.46C1062.91 877.557 1064.07 863.841 1055.31 856.53C1053.61 855.354 1051.76 854.376 1049.79 853.612C1044.8 851.484 1039.77 849.443 1034.69 847.491L1005.92 836.149C979.728 825.816 960.955 818.454 946.349 814.53C931.555 810.566 923.75 810.966 918.539 813.138ZM866.354 728.197C860.694 714.757 859.131 700.243 861.873 687.331C864.573 674.532 872.047 661.523 885.778 655.08C899.347 648.71 913.154 651.539 923.721 657.845C934.457 664.247 943.581 675.092 949.236 688.555C954.896 701.995 956.449 716.498 953.716 729.421C951.017 742.22 943.543 755.229 929.811 761.673C916.234 768.03 902.426 765.202 891.868 758.908C881.137 752.483 872.009 741.66 866.354 728.197ZM893.935 676.41C891.123 677.721 887.638 681.281 886.015 689.006C884.416 696.596 885.133 706.548 889.374 716.645C893.616 726.742 900.164 734.079 906.771 737.999C913.528 742.05 918.702 741.729 921.668 740.332C924.467 739.031 927.951 735.471 929.575 727.746C931.188 720.146 930.457 710.204 926.216 700.107C921.964 689.998 915.426 682.673 908.832 678.742C902.062 674.703 896.888 675.024 893.935 676.41ZM795.645 880.658C784.383 882.235 772.633 887.769 765.388 898.56C758.112 909.395 758.2 921.348 762.078 931.024C765.961 940.734 773.902 949.13 784.473 954.697C795.057 960.254 807.146 962.364 818.49 960.78C829.752 959.204 841.493 953.657 848.747 942.878C856.024 932.043 855.935 920.09 852.057 910.415C848.174 900.705 840.246 892.298 829.662 886.741C819.078 881.184 806.989 879.074 795.645 880.658ZM795.868 904.373C801.633 903.572 808.848 904.56 815.74 908.172C822.618 911.794 827 916.898 828.886 921.643C830.804 926.401 829.98 929.78 828.633 931.801C827.242 933.877 824.106 936.245 818.267 937.066C812.502 937.866 805.278 936.867 798.395 933.267C791.517 929.644 787.135 924.54 785.249 919.795C783.331 915.037 784.155 911.658 785.502 909.637C786.893 907.561 790.029 905.193 795.868 904.373ZM1015.8 695.58C1003.75 700.446 995.914 710.807 992.03 721.487C988.131 732.257 987.683 744.509 990.937 756.026C994.196 767.521 1000.78 777.017 1009.46 782.838C1018.12 788.635 1029.8 791.197 1041.91 786.321C1053.96 781.467 1061.8 771.106 1065.69 760.426C1069.58 749.656 1070.03 737.404 1066.78 725.887C1063.53 714.382 1056.95 704.885 1048.25 699.076C1039.59 693.279 1027.92 690.717 1015.81 695.592L1015.8 695.58ZM1014.8 746.832C1012.68 739.353 1013.2 732.078 1015.18 726.615C1017.2 721.073 1020.19 718.495 1022.48 717.564C1024.73 716.653 1028.21 716.558 1032.48 719.409C1036.72 722.247 1040.8 727.579 1042.93 735.07C1045.03 742.549 1044.51 749.824 1042.53 755.299C1040.52 760.841 1037.54 763.407 1035.23 764.35C1032.99 765.26 1029.5 765.356 1025.23 762.505C1020.99 759.666 1016.92 754.334 1014.79 746.843L1014.8 746.832Z" fill="#0AAAB6"/>
<path fill-rule="evenodd" clip-rule="evenodd" d="M789.17 746.238C802.379 746.24 816.255 750.775 828.233 759.095C840.233 767.415 848.931 778.586 852.994 790.415C856.966 802.048 856.884 816.153 847.843 828.109C838.696 840.208 824.421 844.826 811.34 844.818C798.132 844.815 784.265 840.293 772.288 831.973C760.288 823.652 751.59 812.481 747.526 800.652C743.545 789.008 743.637 774.914 752.677 762.959C761.824 750.859 776.099 746.241 789.18 746.25L789.17 746.238ZM785.829 770.227C777.945 770.227 773.731 772.887 771.856 775.355C769.899 777.969 768.513 782.964 771.063 790.424C773.557 797.678 779.366 805.614 788.356 811.843C797.366 818.095 806.941 820.868 814.72 820.876C822.604 820.875 826.808 818.204 828.673 815.724C830.641 813.122 832.026 808.127 829.476 800.666C826.983 793.413 821.174 785.476 812.183 779.248C803.174 772.996 793.608 770.234 785.829 770.227ZM880.615 816.36C888.258 805.29 899.119 796.487 911.531 791.302C925.29 785.552 939.946 787.092 955.829 791.356C971.787 795.655 991.722 803.489 1017.07 813.498L1046.75 825.189C1053.27 827.743 1058.46 829.797 1062.42 831.558C1066.34 833.284 1069.98 835.113 1072.79 837.482C1091.78 853.326 1090.09 884.016 1068.42 902.51C1064.9 905.321 1061.1 907.736 1057.09 909.695C1051.58 912.509 1046.04 915.234 1040.46 917.867L1040.21 917.994C1035.06 920.362 1029.96 922.887 1024.94 925.566C1011.2 933.199 998.801 943.246 988.487 955.112C984.83 959.475 981.306 963.933 977.918 968.48L977.741 968.701C973.083 974.743 969.372 979.59 966.317 983.267C963.566 986.787 960.411 990.014 956.929 992.87C934.349 1010.24 903.972 1005.55 892.404 983.689C890.669 980.449 889.646 976.494 888.755 972.317C887.853 968.072 886.931 962.565 885.77 955.664L880.477 924.21C875.948 897.325 872.375 876.21 871.495 859.709C870.613 843.287 872.128 828.641 880.615 816.36ZM918.539 813.138C911.307 816.158 904.979 821.287 900.527 827.736C897.314 832.374 895.316 839.938 896.131 855.233C896.945 870.334 900.274 890.214 904.946 917.99L910.085 948.485C911.3 955.672 912.16 960.745 912.949 964.52C913.29 966.612 913.866 968.63 914.667 970.543C920.007 980.622 933.646 982.308 943.308 974.884C943.856 974.46 945.124 973.277 947.908 969.897C951.64 965.282 955.296 960.614 958.876 955.895L959.204 955.475C964.375 948.747 967.365 944.852 970.558 941.18C983.134 926.709 998.249 914.459 1015.01 905.151C1019.28 902.777 1023.71 900.658 1031.37 896.981L1031.84 896.759C1039.03 893.316 1044.07 890.889 1047.81 888.928C1051.68 886.915 1053.12 885.897 1053.64 885.46C1062.91 877.557 1064.07 863.841 1055.31 856.53C1053.61 855.354 1051.76 854.376 1049.79 853.612C1044.8 851.484 1039.77 849.443 1034.69 847.491L1005.92 836.149C979.728 825.816 960.955 818.454 946.349 814.53C931.555 810.566 923.75 810.966 918.539 813.138ZM866.354 728.197C860.694 714.757 859.131 700.243 861.873 687.331C864.573 674.532 872.047 661.523 885.778 655.08C899.347 648.71 913.154 651.539 923.721 657.845C934.457 664.247 943.581 675.092 949.236 688.555C954.896 701.995 956.449 716.498 953.716 729.421C951.017 742.22 943.543 755.229 929.811 761.673C916.234 768.03 902.426 765.202 891.868 758.908C881.137 752.483 872.009 741.66 866.354 728.197ZM893.935 676.41C891.123 677.721 887.638 681.281 886.015 689.006C884.416 696.596 885.133 706.548 889.374 716.645C893.616 726.742 900.164 734.079 906.771 737.999C913.528 742.05 918.702 741.729 921.668 740.332C924.467 739.031 927.951 735.471 929.575 727.746C931.188 720.146 930.457 710.204 926.216 700.107C921.964 689.998 915.426 682.673 908.832 678.742C902.062 674.703 896.888 675.024 893.935 676.41ZM795.645 880.658C784.383 882.235 772.633 887.769 765.388 898.56C758.112 909.395 758.2 921.348 762.078 931.024C765.961 940.734 773.902 949.13 784.473 954.697C795.057 960.254 807.146 962.364 818.49 960.78C829.752 959.204 841.493 953.657 848.747 942.878C856.024 932.043 855.935 920.09 852.057 910.415C848.174 900.705 840.246 892.298 829.662 886.741C819.078 881.184 806.989 879.074 795.645 880.658ZM795.868 904.373C801.633 903.572 808.848 904.56 815.74 908.172C822.618 911.794 827 916.898 828.886 921.643C830.804 926.401 829.98 929.78 828.633 931.801C827.242 933.877 824.106 936.245 818.267 937.066C812.502 937.866 805.278 936.867 798.395 933.267C791.517 929.644 787.135 924.54 785.249 919.795C783.331 915.037 784.155 911.658 785.502 909.637C786.893 907.561 790.029 905.193 795.868 904.373ZM1015.8 695.58C1003.75 700.446 995.914 710.807 992.03 721.487C988.131 732.257 987.683 744.509 990.937 756.026C994.196 767.521 1000.78 777.017 1009.46 782.838C1018.12 788.635 1029.8 791.197 1041.91 786.321C1053.96 781.467 1061.8 771.106 1065.69 760.426C1069.58 749.656 1070.03 737.404 1066.78 725.887C1063.53 714.382 1056.95 704.885 1048.25 699.076C1039.59 693.279 1027.92 690.717 1015.81 695.592L1015.8 695.58ZM1014.8 746.832C1012.68 739.353 1013.2 732.078 1015.18 726.615C1017.2 721.073 1020.19 718.495 1022.48 717.564C1024.73 716.653 1028.21 716.558 1032.48 719.409C1036.72 722.247 1040.8 727.579 1042.93 735.07C1045.03 742.549 1044.51 749.824 1042.53 755.299C1040.52 760.841 1037.54 763.407 1035.23 764.35C1032.99 765.26 1029.5 765.356 1025.23 762.505C1020.99 759.666 1016.92 754.334 1014.79 746.843L1014.8 746.832Z" fill="#0AAAB6"/>
<path fill-rule="evenodd" clip-rule="evenodd" d="M789.17 746.238C802.379 746.24 816.255 750.775 828.233 759.095C840.233 767.415 848.931 778.586 852.994 790.415C856.966 802.048 856.884 816.153 847.843 828.109C838.696 840.208 824.421 844.826 811.34 844.818C798.132 844.815 784.265 840.293 772.288 831.973C760.288 823.652 751.59 812.481 747.526 800.652C743.545 789.008 743.637 774.914 752.677 762.959C761.824 750.859 776.099 746.241 789.18 746.25L789.17 746.238ZM785.829 770.227C777.945 770.227 773.731 772.887 771.856 775.355C769.899 777.969 768.513 782.964 771.063 790.424C773.557 797.678 779.366 805.614 788.356 811.843C797.366 818.095 806.941 820.868 814.72 820.876C822.604 820.875 826.808 818.204 828.673 815.724C830.641 813.122 832.026 808.127 829.476 800.666C826.983 793.413 821.174 785.476 812.183 779.248C803.174 772.996 793.608 770.234 785.829 770.227ZM880.615 816.36C888.258 805.29 899.119 796.487 911.531 791.302C925.29 785.552 939.946 787.092 955.829 791.356C971.787 795.655 991.722 803.489 1017.07 813.498L1046.75 825.189C1053.27 827.743 1058.46 829.797 1062.42 831.558C1066.34 833.284 1069.98 835.113 1072.79 837.482C1091.78 853.326 1090.09 884.016 1068.42 902.51C1064.9 905.321 1061.1 907.736 1057.09 909.695C1051.58 912.509 1046.04 915.234 1040.46 917.867L1040.21 917.994C1035.06 920.362 1029.96 922.887 1024.94 925.566C1011.2 933.199 998.801 943.246 988.487 955.112C984.83 959.475 981.306 963.933 977.918 968.48L977.741 968.701C973.083 974.743 969.372 979.59 966.317 983.267C963.566 986.787 960.411 990.014 956.929 992.87C934.349 1010.24 903.972 1005.55 892.404 983.689C890.669 980.449 889.646 976.494 888.755 972.317C887.853 968.072 886.931 962.565 885.77 955.664L880.477 924.21C875.948 897.325 872.375 876.21 871.495 859.709C870.613 843.287 872.128 828.641 880.615 816.36ZM918.539 813.138C911.307 816.158 904.979 821.287 900.527 827.736C897.314 832.374 895.316 839.938 896.131 855.233C896.945 870.334 900.274 890.214 904.946 917.99L910.085 948.485C911.3 955.672 912.16 960.745 912.949 964.52C913.29 966.612 913.866 968.63 914.667 970.543C920.007 980.622 933.646 982.308 943.308 974.884C943.856 974.46 945.124 973.277 947.908 969.897C951.64 965.282 955.296 960.614 958.876 955.895L959.204 955.475C964.375 948.747 967.365 944.852 970.558 941.18C983.134 926.709 998.249 914.459 1015.01 905.151C1019.28 902.777 1023.71 900.658 1031.37 896.981L1031.84 896.759C1039.03 893.316 1044.07 890.889 1047.81 888.928C1051.68 886.915 1053.12 885.897 1053.64 885.46C1062.91 877.557 1064.07 863.841 1055.31 856.53C1053.61 855.354 1051.76 854.376 1049.79 853.612C1044.8 851.484 1039.77 849.443 1034.69 847.491L1005.92 836.149C979.728 825.816 960.955 818.454 946.349 814.53C931.555 810.566 923.75 810.966 918.539 813.138ZM866.354 728.197C860.694 714.757 859.131 700.243 861.873 687.331C864.573 674.532 872.047 661.523 885.778 655.08C899.347 648.71 913.154 651.539 923.721 657.845C934.457 664.247 943.581 675.092 949.236 688.555C954.896 701.995 956.449 716.498 953.716 729.421C951.017 742.22 943.543 755.229 929.811 761.673C916.234 768.03 902.426 765.202 891.868 758.908C881.137 752.483 872.009 741.66 866.354 728.197ZM893.935 676.41C891.123 677.721 887.638 681.281 886.015 689.006C884.416 696.596 885.133 706.548 889.374 716.645C893.616 726.742 900.164 734.079 906.771 737.999C913.528 742.05 918.702 741.729 921.668 740.332C924.467 739.031 927.951 735.471 929.575 727.746C931.188 720.146 930.457 710.204 926.216 700.107C921.964 689.998 915.426 682.673 908.832 678.742C902.062 674.703 896.888 675.024 893.935 676.41ZM795.645 880.658C784.383 882.235 772.633 887.769 765.388 898.56C758.112 909.395 758.2 921.348 762.078 931.024C765.961 940.734 773.902 949.13 784.473 954.697C795.057 960.254 807.146 962.364 818.49 960.78C829.752 959.204 841.493 953.657 848.747 942.878C856.024 932.043 855.935 920.09 852.057 910.415C848.174 900.705 840.246 892.298 829.662 886.741C819.078 881.184 806.989 879.074 795.645 880.658ZM795.868 904.373C801.633 903.572 808.848 904.56 815.74 908.172C822.618 911.794 827 916.898 828.886 921.643C830.804 926.401 829.98 929.78 828.633 931.801C827.242 933.877 824.106 936.245 818.267 937.066C812.502 937.866 805.278 936.867 798.395 933.267C791.517 929.644 787.135 924.54 785.249 919.795C783.331 915.037 784.155 911.658 785.502 909.637C786.893 907.561 790.029 905.193 795.868 904.373ZM1015.8 695.58C1003.75 700.446 995.914 710.807 992.03 721.487C988.131 732.257 987.683 744.509 990.937 756.026C994.196 767.521 1000.78 777.017 1009.46 782.838C1018.12 788.635 1029.8 791.197 1041.91 786.321C1053.96 781.467 1061.8 771.106 1065.69 760.426C1069.58 749.656 1070.03 737.404 1066.78 725.887C1063.53 714.382 1056.95 704.885 1048.25 699.076C1039.59 693.279 1027.92 690.717 1015.81 695.592L1015.8 695.58ZM1014.8 746.832C1012.68 739.353 1013.2 732.078 1015.18 726.615C1017.2 721.073 1020.19 718.495 1022.48 717.564C1024.73 716.653 1028.21 716.558 1032.48 719.409C1036.72 722.247 1040.8 727.579 1042.93 735.07C1045.03 742.549 1044.51 749.824 1042.53 755.299C1040.52 760.841 1037.54 763.407 1035.23 764.35C1032.99 765.26 1029.5 765.356 1025.23 762.505C1020.99 759.666 1016.92 754.334 1014.79 746.843L1014.8 746.832Z" fill="#0AAAB6"/>
<path d="M829.327 1689.16C818.515 1699.99 812.367 1714.61 812.197 1729.9C803.531 1731.68 795.378 1735.39 788.341 1740.75C781.305 1746.11 775.567 1752.98 771.551 1760.86C767.536 1768.73 765.348 1777.41 765.148 1786.25C764.947 1795.08 766.741 1803.85 770.396 1811.9C774.051 1819.95 779.472 1827.07 786.259 1832.74C793.045 1838.41 801.023 1842.48 809.599 1844.65C818.175 1846.82 827.13 1847.03 835.8 1845.27C844.47 1843.51 852.632 1839.82 859.68 1834.47C859.723 1834.46 859.767 1834.46 859.811 1834.46L985.219 1938.21L985.234 1938.37C981.288 1946.28 979.177 1954.98 979.055 1963.82C978.933 1972.66 980.804 1981.41 984.53 1989.43C988.255 1997.44 993.74 2004.52 1000.58 2010.13C1007.41 2015.73 1015.43 2019.73 1024.02 2021.83C1032.62 2023.92 1041.57 2024.05 1050.23 2022.21C1058.88 2020.37 1067.01 2016.61 1074.01 2011.21C1081.01 2005.8 1086.71 1998.89 1090.67 1990.99C1094.63 1983.09 1096.77 1974.4 1096.91 1965.56C1105.57 1963.78 1113.73 1960.07 1120.76 1954.71C1127.8 1949.35 1133.54 1942.48 1137.55 1934.6C1141.57 1926.72 1143.76 1918.05 1143.96 1909.21C1144.16 1900.37 1142.36 1891.6 1138.71 1883.56C1135.05 1875.51 1129.63 1868.38 1122.85 1862.71C1116.06 1857.05 1108.08 1852.98 1099.51 1850.81C1090.93 1848.64 1081.97 1848.43 1073.3 1850.19C1064.63 1851.95 1056.47 1855.64 1049.42 1860.98C1049.38 1860.99 1049.34 1860.99 1049.29 1861L923.88 1757.18L923.864 1757.02C930.214 1744.49 931.873 1730.11 928.542 1716.47C925.211 1702.82 917.11 1690.82 905.699 1682.62C894.288 1674.43 880.32 1670.57 866.315 1671.76C852.309 1672.95 839.189 1679.1 829.321 1689.1L829.327 1689.16ZM890.362 1704.09C896.677 1708.64 901.164 1715.29 903.017 1722.84C904.87 1730.4 903.968 1738.36 900.472 1745.31C897.766 1750.61 896.945 1756.67 898.145 1762.49C899.345 1768.32 902.495 1773.56 907.075 1777.35L1032.56 1881.24C1037.15 1885.02 1042.9 1887.13 1048.84 1887.21C1054.79 1887.29 1060.59 1885.35 1065.29 1881.71C1069.5 1878.51 1074.41 1876.39 1079.62 1875.5C1084.82 1874.62 1090.16 1875.01 1095.18 1876.63C1100.21 1878.26 1104.76 1881.07 1108.46 1884.83C1112.16 1888.6 1114.89 1893.2 1116.42 1898.25C1117.96 1903.29 1118.25 1908.64 1117.27 1913.82C1116.29 1919 1114.06 1923.87 1110.79 1928.01C1107.52 1932.15 1103.3 1935.44 1098.48 1937.6C1093.66 1939.76 1088.39 1940.72 1083.12 1940.4C1081.23 1940.29 1079.34 1940.58 1077.58 1941.26C1075.81 1941.95 1074.22 1943 1072.9 1944.36C1071.58 1945.72 1070.58 1947.35 1069.95 1949.13C1069.32 1950.91 1069.09 1952.81 1069.27 1954.69C1069.34 1955.37 1069.46 1956.03 1069.62 1956.68C1070.9 1961.79 1070.93 1967.14 1069.71 1972.26C1068.48 1977.38 1066.03 1982.14 1062.57 1986.11C1059.11 1990.09 1054.74 1993.17 1049.83 1995.1C1044.92 1997.02 1039.62 1997.74 1034.38 1997.18C1029.13 1996.62 1024.1 1994.8 1019.72 1991.88C1015.33 1988.96 1011.71 1985.02 1009.17 1980.41C1006.63 1975.79 1005.25 1970.63 1005.13 1965.36C1005.02 1960.09 1006.18 1954.88 1008.52 1950.15C1011.22 1944.86 1012.05 1938.8 1010.84 1932.98C1009.64 1927.15 1006.5 1921.91 1001.92 1918.12L876.429 1814.23C871.844 1810.46 866.114 1808.37 860.18 1808.28C854.245 1808.2 848.457 1810.13 843.763 1813.76C839.559 1816.95 834.645 1819.08 829.44 1819.96C824.235 1820.84 818.893 1820.46 813.87 1818.83C808.848 1817.21 804.293 1814.39 800.595 1810.63C796.897 1806.86 794.165 1802.26 792.632 1797.22C791.098 1792.17 790.81 1786.83 791.79 1781.64C792.77 1776.46 794.991 1771.59 798.262 1767.45C801.533 1763.31 805.757 1760.02 810.575 1757.86C815.393 1755.7 820.662 1754.74 825.932 1755.06C827.99 1755.19 830.05 1754.82 831.943 1754.01C833.835 1753.19 835.508 1751.93 836.824 1750.35C838.14 1748.76 839.062 1746.89 839.516 1744.88C839.97 1742.87 839.942 1740.78 839.435 1738.78C837.739 1732.25 838.107 1725.35 840.487 1719.04C842.868 1712.72 847.144 1707.3 852.731 1703.51C858.318 1699.71 864.941 1697.74 871.694 1697.86C878.446 1697.97 884.997 1700.17 890.449 1704.15L890.362 1704.09Z" fill="#F8D432" fill-opacity="0.9"/>
</svg>
