<svg width="96" height="96" viewBox="0 0 96 96" fill="none" xmlns="http://www.w3.org/2000/svg">
<path d="M92.3642 19.2148C89.8052 16.1305 86.1427 14.1698 82.159 13.7516C81.9061 11.4479 81.1383 9.23085 79.9125 7.26478C78.6867 5.2987 77.0344 3.63408 75.0782 2.3944C73.122 1.15472 70.912 0.371779 68.6122 0.103664C66.3124 -0.164451 63.9818 0.0891375 61.7933 0.845617C59.6048 1.6021 57.6145 2.84206 55.9701 4.47352C54.3257 6.10498 53.0693 8.08608 52.2942 10.2699C51.5192 12.4537 51.2452 14.7841 51.4928 17.0883C51.7403 19.3925 52.5029 21.6114 53.7241 23.5803C53.726 23.5917 53.726 23.6033 53.7241 23.6146L23.6012 53.787H23.5584C21.5913 52.5647 19.3745 51.8014 17.0724 51.5536C14.7703 51.3058 12.4421 51.58 10.2603 52.3558C8.07856 53.1316 6.0993 54.3892 4.46936 56.0351C2.83941 57.681 1.60061 59.6732 0.84483 61.8637C0.0890546 64.0543 -0.164298 66.3871 0.103567 68.689C0.371433 70.9909 1.15364 73.203 2.39217 75.161C3.6307 77.1191 5.29377 78.7729 7.25801 79.9998C9.22226 81.2268 11.4373 81.9953 13.7388 82.2484C13.9917 84.5521 14.7595 86.7692 15.9853 88.7352C17.2111 90.7013 18.8634 92.3659 20.8196 93.6056C22.7758 94.8453 24.9858 95.6282 27.2856 95.8963C29.5854 96.1645 31.916 95.9109 34.1045 95.1544C36.293 94.3979 38.2833 93.1579 39.9277 91.5265C41.5721 89.895 42.8285 87.9139 43.6036 85.7301C44.3786 83.5463 44.6526 81.2159 44.405 78.9117C44.1575 76.6075 43.3949 74.3886 42.1737 72.4197C42.1728 72.4083 42.1728 72.3968 42.1737 72.3854L72.3137 42.213H72.3566C75.4691 44.1752 79.1798 44.9594 82.8192 44.4241C86.4586 43.8887 89.787 42.069 92.2039 39.2933C94.6207 36.5176 95.9668 32.9687 95.9994 29.2869C96.0319 25.6051 94.7488 22.0329 92.3814 19.2148H92.3642ZM86.9789 34.7685C85.6386 36.3045 83.7954 37.3123 81.7799 37.6109C79.7643 37.9095 77.7085 37.4795 75.9811 36.398C74.666 35.5628 73.1059 35.2007 71.5578 35.3714C70.0097 35.5421 68.5658 36.2354 67.4639 37.3372L37.3024 67.5267C36.2044 68.6318 35.5149 70.078 35.3475 71.6275C35.1801 73.177 35.5447 74.7374 36.3813 76.0519C37.1108 77.2264 37.5457 78.5601 37.6489 79.9392C37.7521 81.3183 37.5206 82.702 36.9741 83.9722C36.4276 85.2424 35.5823 86.3615 34.5103 87.2341C33.4383 88.1067 32.1714 88.7068 30.8176 88.9833C29.4638 89.2599 28.0633 89.2046 26.7354 88.8223C25.4076 88.44 24.1918 87.7419 23.1917 86.7876C22.1917 85.8333 21.437 84.6511 20.9921 83.3417C20.5471 82.0324 20.4251 80.6348 20.6365 79.2681C20.7133 78.7783 20.6831 78.2778 20.548 77.8008C20.413 77.3239 20.1762 76.8819 19.8542 76.5053C19.5321 76.1287 19.1323 75.8265 18.6823 75.6194C18.2323 75.4123 17.7429 75.3053 17.2476 75.3057C17.0711 75.3072 16.895 75.3215 16.7206 75.3486C15.3566 75.5585 13.9621 75.4356 12.6557 74.9902C11.3493 74.5448 10.1698 73.7902 9.21734 72.7905C8.26492 71.7908 7.56784 70.5756 7.18539 69.2484C6.80295 67.9211 6.74645 66.521 7.02071 65.1672C7.29497 63.8134 7.89187 62.5459 8.76064 61.4726C9.6294 60.3993 10.7443 59.5519 12.0106 59.0025C13.2768 58.4531 14.6569 58.218 16.0334 58.3172C17.4099 58.4163 18.7421 58.8468 19.9167 59.572C21.2318 60.4072 22.7919 60.7693 24.34 60.5986C25.8881 60.4279 27.332 59.7346 28.4339 58.6328L58.5954 28.4433C59.6893 27.3394 60.3762 25.8964 60.5435 24.3506C60.7109 22.8049 60.3488 21.2481 59.5165 19.9353C58.787 18.7607 58.3521 17.4271 58.2489 16.0479C58.1457 14.6688 58.3772 13.2851 58.9237 12.0149C59.4702 10.7447 60.3155 9.6256 61.3875 8.75304C62.4595 7.88048 63.7264 7.28035 65.0802 7.0038C66.434 6.72726 67.8345 6.78251 69.1624 7.16484C70.4902 7.54718 71.706 8.24526 72.7061 9.19956C73.7061 10.1539 74.4608 11.3361 74.9057 12.6454C75.3507 13.9547 75.4727 15.3523 75.2613 16.7191C75.1779 17.2528 75.2216 17.7988 75.3889 18.3124C75.5562 18.8261 75.8424 19.2929 76.224 19.6749C76.6057 20.057 77.0721 20.3434 77.5853 20.5108C78.0985 20.6783 78.6439 20.722 79.1772 20.6386C80.922 20.356 82.7114 20.6203 84.3002 21.3955C85.889 22.1706 87.1994 23.4186 88.0519 24.9683C88.9044 26.518 89.2573 28.2938 89.0621 30.0521C88.8669 31.8104 88.1333 33.4653 86.9617 34.7899L86.9789 34.7685Z" fill="#F8D432" fill-opacity="0.9"/>
</svg>
