<svg width="58" height="58" viewBox="0 0 58 58" fill="none" xmlns="http://www.w3.org/2000/svg">
<path d="M53.4688 19.0312H4.53125C3.81019 19.0312 3.11867 18.7448 2.6088 18.2349C2.09894 17.7251 1.8125 17.0336 1.8125 16.3125C1.8125 15.5914 2.09894 14.8999 2.6088 14.3901C3.11867 13.8802 3.81019 13.5938 4.53125 13.5938H53.4688C54.1898 13.5938 54.8813 13.8802 55.3912 14.3901C55.9011 14.8999 56.1875 15.5914 56.1875 16.3125C56.1875 17.0336 55.9011 17.7251 55.3912 18.2349C54.8813 18.7448 54.1898 19.0312 53.4688 19.0312ZM44.4062 31.7188H13.5938C12.8727 31.7188 12.1812 31.4323 11.6713 30.9224C11.1614 30.4126 10.875 29.7211 10.875 29C10.875 28.2789 11.1614 27.5874 11.6713 27.0776C12.1812 26.5677 12.8727 26.2812 13.5938 26.2812H44.4062C45.1273 26.2812 45.8188 26.5677 46.3287 27.0776C46.8386 27.5874 47.125 28.2789 47.125 29C47.125 29.7211 46.8386 30.4126 46.3287 30.9224C45.8188 31.4323 45.1273 31.7188 44.4062 31.7188ZM33.5312 44.4062H24.4688C23.7477 44.4062 23.0562 44.1198 22.5463 43.6099C22.0364 43.1001 21.75 42.4086 21.75 41.6875C21.75 40.9664 22.0364 40.2749 22.5463 39.7651C23.0562 39.2552 23.7477 38.9688 24.4688 38.9688H33.5312C34.2523 38.9688 34.9438 39.2552 35.4537 39.7651C35.9636 40.2749 36.25 40.9664 36.25 41.6875C36.25 42.4086 35.9636 43.1001 35.4537 43.6099C34.9438 44.1198 34.2523 44.4062 33.5312 44.4062Z" fill="white"/>
</svg>
