<svg width="50" height="50" viewBox="0 0 50 50" fill="none" xmlns="http://www.w3.org/2000/svg">
<path d="M27.5705 0.00307588C29.3948 -0.00392443 31.2191 0.0144102 33.0428 0.0580742L33.5278 0.0755735C34.0878 0.0955728 34.6403 0.120572 35.3077 0.150571C37.9677 0.275567 39.7826 0.695553 41.375 1.31303C43.025 1.94801 44.4149 2.80798 45.8049 4.19793C47.0758 5.44691 48.0594 6.95771 48.6873 8.62528C49.3048 10.2177 49.7248 12.0352 49.8498 14.6951C49.8798 15.3601 49.9047 15.915 49.9247 16.475L49.9398 16.96C49.9842 18.7829 50.0033 20.6064 49.9972 22.4298L49.9997 24.2948V27.5696C50.0059 29.3939 49.9867 31.2182 49.9422 33.042L49.9272 33.5269C49.9073 34.0869 49.8823 34.6394 49.8523 35.3069C49.7273 37.9668 49.3023 39.7817 48.6873 41.3742C48.0614 43.0435 47.0776 44.5556 45.8049 45.804C44.5548 47.0748 43.0433 48.0583 41.375 48.6864C39.7826 49.3039 37.9677 49.7239 35.3077 49.8489C34.6403 49.8789 34.0878 49.9039 33.5278 49.9239L33.0428 49.9389C31.2191 49.9833 29.3948 50.0025 27.5705 49.9964L25.7056 49.9989H22.4332C20.6089 50.005 18.7846 49.9859 16.9609 49.9414L16.4759 49.9264C15.8824 49.9049 15.2891 49.8799 14.6959 49.8514C12.036 49.7264 10.2211 49.3014 8.62615 48.6864C6.95792 48.0598 5.44685 47.076 4.1988 45.804C2.92646 44.5548 1.94194 43.043 1.3139 41.3742C0.696419 39.7817 0.276433 37.9668 0.151437 35.3069C0.123595 34.7137 0.0985961 34.1204 0.0764398 33.5269L0.0639406 33.042C0.0178511 31.2182 -0.00298377 29.3939 0.00144245 27.5696V22.4298C-0.00553473 20.6064 0.0127999 18.7829 0.0564408 16.96L0.0739401 16.475C0.0939394 15.915 0.118938 15.3601 0.148937 14.6951C0.273933 12.0327 0.693919 10.2202 1.3114 8.62528C1.93981 6.95689 2.92625 5.4465 4.2013 4.20043C5.44849 2.92736 6.95861 1.94194 8.62615 1.31303C10.2211 0.695553 12.0335 0.275567 14.6959 0.150571L16.4759 0.0755735L16.9609 0.0630743C18.7838 0.0170079 20.6072 -0.003827 22.4307 0.00057615L27.5705 0.00307588ZM25.0006 12.5027C23.3444 12.4792 21.7001 12.7852 20.1632 13.4028C18.6263 14.0204 17.2275 14.9373 16.048 16.1002C14.8685 17.2631 13.932 18.6488 13.2927 20.1768C12.6534 21.7048 12.3243 23.3446 12.3243 25.001C12.3243 26.6573 12.6534 28.2971 13.2927 29.8252C13.932 31.3532 14.8685 32.7389 16.048 33.9018C17.2275 35.0647 18.6263 35.9816 20.1632 36.5992C21.7001 37.2168 23.3444 37.5227 25.0006 37.4993C28.3157 37.4993 31.495 36.1824 33.8391 33.8383C36.1833 31.4941 37.5002 28.3148 37.5002 24.9997C37.5002 21.6846 36.1833 18.5053 33.8391 16.1612C31.495 13.8171 28.3157 12.5027 25.0006 12.5027ZM25.0006 17.5025C25.9968 17.4841 26.9867 17.6645 27.9125 18.033C28.8382 18.4015 29.6813 18.9508 30.3924 19.6488C31.1034 20.3468 31.6683 21.1794 32.054 22.0982C32.4396 23.0169 32.6383 24.0033 32.6385 24.9997C32.6387 25.9961 32.4403 26.9826 32.0549 27.9014C31.6696 28.8203 31.105 29.6532 30.3941 30.3514C29.6833 31.0496 28.8404 31.5992 27.9148 31.968C26.9892 32.3368 25.9993 32.5175 25.0031 32.4995C23.014 32.4995 21.1064 31.7093 19.7 30.3028C18.2935 28.8964 17.5033 26.9888 17.5033 24.9997C17.5033 23.0107 18.2935 21.1031 19.7 19.6966C21.1064 18.2901 23.014 17.5 25.0031 17.5L25.0006 17.5025ZM38.1251 8.75278C37.3187 8.78506 36.5559 9.12814 35.9967 9.71017C35.4375 10.2922 35.1252 11.068 35.1252 11.8752C35.1252 12.6823 35.4375 13.4581 35.9967 14.0402C36.5559 14.6222 37.3187 14.9653 38.1251 14.9976C38.9539 14.9976 39.7488 14.6683 40.3348 14.0823C40.9208 13.4963 41.25 12.7014 41.25 11.8727C41.25 11.0439 40.9208 10.2491 40.3348 9.66304C39.7488 9.07701 38.9539 8.74778 38.1251 8.74778V8.75278Z" fill="#F2786A"/>
</svg>
