<svg width="114" height="110" viewBox="0 0 114 110" fill="none" xmlns="http://www.w3.org/2000/svg">
<path fill-rule="evenodd" clip-rule="evenodd" d="M64.1886 8.67055C65.9704 12.4244 66.4786 16.9447 65.5916 21.4074C64.7075 25.8766 62.5202 29.7705 59.5095 32.4312C56.5455 35.0407 52.2905 36.8129 47.4734 35.7658C42.5987 34.7069 39.2828 31.2384 37.5203 27.5201C35.7384 23.7663 35.228 19.2501 36.115 14.7874C36.9991 10.3182 39.1864 6.42435 42.1971 3.76363C45.1633 1.14995 49.4161 -0.618126 54.2332 0.428995C59.1079 1.48791 62.4238 4.95641 64.1863 8.67473L64.1886 8.67055ZM56.5201 10.7749C55.4561 8.53449 54.0871 7.67572 53.0915 7.4572C52.0411 7.2335 50.3511 7.47577 48.4506 9.15004C46.6046 10.7822 45.0007 13.4431 44.3398 16.7909C43.6745 20.147 44.1323 23.221 45.1798 25.4325C46.2438 27.6729 47.615 28.5275 48.6129 28.7418C49.6611 28.9697 51.3511 28.7274 53.2516 27.0531C55.0975 25.421 56.7014 22.76 57.3623 19.4123C58.0276 16.0561 57.5676 12.9864 56.5201 10.7749ZM55.4308 43.5829C59.7928 44.3454 63.9071 46.3111 67.1421 49.1783C70.7286 52.3563 72.243 56.7171 73.1037 61.7733C73.9633 66.8552 74.2965 73.5174 74.7061 81.9954L75.1932 91.9169C75.3052 94.0961 75.3868 95.8304 75.3922 97.1818C75.4013 98.5141 75.3425 99.7824 75.009 100.883C72.8046 108.295 63.3417 111.721 54.8531 107.917C53.5333 107.277 52.2934 106.503 51.1629 105.613C49.5732 104.407 48.0054 103.178 46.4602 101.928L46.3877 101.873C44.9801 100.71 43.5332 99.5845 42.0495 98.4981C37.898 95.564 33.2025 93.3206 28.2404 91.9004C26.4344 91.4166 24.6173 90.9826 22.7921 90.5989L22.7017 90.5767C20.2554 90.022 18.2963 89.5846 16.7777 89.1845C15.3472 88.8509 13.9507 88.3654 12.6213 87.7393C4.34758 83.5343 1.66127 74.3044 6.67643 68.2347C7.41722 67.3289 8.46899 66.535 9.60548 65.7502C10.7611 64.9534 12.2936 63.9903 14.2132 62.7818L22.9628 57.2733C30.4404 52.5638 36.3114 48.8605 41.1574 46.5099C45.9793 44.1687 50.5904 42.7346 55.4308 43.5829ZM61.5178 53.9494C59.6331 52.2789 57.2361 51.1337 54.6948 50.6894C52.866 50.3668 50.3204 50.7619 45.8286 52.9406C41.3948 55.0945 35.8626 58.5712 28.1362 63.4348L19.6545 68.7774C17.6561 70.0375 16.2458 70.9277 15.2162 71.6325C14.6331 71.9956 14.1034 72.4164 13.636 72.8877C11.3243 75.6881 12.6573 79.7786 16.195 81.5791C16.3964 81.6805 16.9235 81.8904 18.3161 82.2513C20.2083 82.7242 22.1062 83.169 24.0089 83.5856L24.1796 83.6252C26.9016 84.2381 28.477 84.592 30.0128 85.0318C36.0637 86.7634 41.7893 89.499 46.8515 93.077C48.1417 93.9874 49.377 94.9765 51.5177 96.6869L51.6475 96.7908C53.6534 98.3948 55.0648 99.5205 56.1587 100.332C57.2866 101.175 57.7881 101.457 57.9889 101.547C61.6183 103.177 65.901 101.759 66.9193 98.3403C67.0432 97.7066 67.0874 97.0557 67.0512 96.3983C67.0191 94.7111 66.9541 93.0212 66.856 91.3294L66.3862 81.71C65.9606 72.9514 65.6422 66.6795 64.8518 62.0295C64.0481 57.3207 62.8744 55.1538 61.5178 53.9494ZM80.0321 28.3068C83.3122 24.9875 87.4682 22.6956 91.7231 21.8313C95.9384 20.9691 100.861 21.4368 104.653 24.5185C108.4 27.5633 109.412 31.8469 108.941 35.6527C108.463 39.5183 106.432 43.4917 103.144 46.8127C99.8639 50.132 95.7102 52.4197 91.4531 53.2882C87.2378 54.1504 82.3151 53.6827 78.5235 50.601C74.7784 47.552 73.7662 43.2684 74.2352 39.4668C74.7202 35.5994 76.7447 31.6278 80.0321 28.3068ZM99.3357 29.5518C98.5616 28.9196 97.0203 28.3826 94.477 28.9047C91.9777 29.4164 89.0799 30.8871 86.6143 33.3779C84.1488 35.8686 82.8249 38.6634 82.537 41.0399C82.2303 43.4757 83.0251 44.9052 83.8456 45.5701C84.6146 46.2 86.1559 46.7369 88.6992 46.2148C91.2036 45.7055 94.0963 44.2324 96.5618 41.7416C99.0297 39.2467 100.351 36.4561 100.644 34.082C100.946 31.6438 100.151 30.2144 99.3357 29.5518ZM24.6186 27.6227C22.6247 24.6231 19.3738 21.9887 15.1494 21.3035C10.9075 20.6152 7.32313 22.162 4.93526 24.4957C2.53782 26.8353 1.08323 30.1607 0.834507 33.8733C0.590878 37.5884 1.58734 41.2923 3.5949 44.3142C5.58881 47.3138 8.84199 49.9441 13.0641 50.6334C17.306 51.3218 20.8904 49.7749 23.2783 47.4413C25.6757 45.1017 27.1354 41.7787 27.379 38.0636C27.6226 34.3485 26.6262 30.6446 24.6186 27.6227ZM17.5136 30.7048C18.5325 32.2413 19.209 34.4173 19.0523 36.8355C18.8905 39.2513 17.9462 41.1462 16.773 42.2862C15.6004 43.437 14.4724 43.6329 13.6827 43.5075C12.8703 43.3766 11.7346 42.7867 10.6999 41.2321C9.68102 39.6956 9.0068 37.5155 9.16124 35.1014C9.32301 32.6856 10.2674 30.7907 11.4405 29.6507C12.6131 28.4999 13.7411 28.304 14.5308 28.4294C15.3432 28.5604 16.4789 29.1502 17.5136 30.7048ZM110.013 66.6222C106.923 63.8181 102.748 62.9097 99.0105 63.1658C95.2439 63.4289 91.497 64.8613 88.471 67.2523C85.4523 69.6414 83.4835 72.7212 82.9038 75.9293C82.3286 79.129 83.1335 82.7729 86.234 85.5927C89.3215 88.401 93.4967 89.3094 97.234 89.0533C101.001 88.7902 104.748 87.3578 107.774 84.9668C110.797 82.5801 112.766 79.5004 113.341 76.2898C113.916 73.0901 113.111 69.4462 110.011 66.6264L110.013 66.6222ZM94.4575 72.8627C96.4218 71.3082 98.6805 70.5293 100.592 70.3983C102.531 70.2644 103.71 70.7857 104.3 71.3196C104.877 71.842 105.376 72.8205 105.095 74.3971C104.813 75.9628 103.759 77.8 101.792 79.3588C99.825 80.9068 97.5663 81.6856 95.6523 81.8208C93.7134 81.9547 92.5397 81.4358 91.9444 80.8995C91.3673 80.3771 90.8681 79.3986 91.1496 77.822C91.4317 76.2563 92.4859 74.419 94.4524 72.8603L94.4575 72.8627Z" fill="#0AAAB6"/>
<path fill-rule="evenodd" clip-rule="evenodd" d="M64.1886 8.67055C65.9704 12.4244 66.4786 16.9447 65.5916 21.4074C64.7075 25.8766 62.5202 29.7705 59.5095 32.4312C56.5455 35.0407 52.2905 36.8129 47.4734 35.7658C42.5987 34.7069 39.2828 31.2384 37.5203 27.5201C35.7384 23.7663 35.228 19.2501 36.115 14.7874C36.9991 10.3182 39.1864 6.42435 42.1971 3.76363C45.1633 1.14995 49.4161 -0.618126 54.2332 0.428995C59.1079 1.48791 62.4238 4.95641 64.1863 8.67473L64.1886 8.67055ZM56.5201 10.7749C55.4561 8.53449 54.0871 7.67572 53.0915 7.4572C52.0411 7.2335 50.3511 7.47577 48.4506 9.15004C46.6046 10.7822 45.0007 13.4431 44.3398 16.7909C43.6745 20.147 44.1323 23.221 45.1798 25.4325C46.2438 27.6729 47.615 28.5275 48.6129 28.7418C49.6611 28.9697 51.3511 28.7274 53.2516 27.0531C55.0975 25.421 56.7014 22.76 57.3623 19.4123C58.0276 16.0561 57.5676 12.9864 56.5201 10.7749ZM55.4308 43.5829C59.7928 44.3454 63.9071 46.3111 67.1421 49.1783C70.7286 52.3563 72.243 56.7171 73.1037 61.7733C73.9633 66.8552 74.2965 73.5174 74.7061 81.9954L75.1932 91.9169C75.3052 94.0961 75.3868 95.8304 75.3922 97.1818C75.4013 98.5141 75.3425 99.7824 75.009 100.883C72.8046 108.295 63.3417 111.721 54.8531 107.917C53.5333 107.277 52.2934 106.503 51.1629 105.613C49.5732 104.407 48.0054 103.178 46.4602 101.928L46.3877 101.873C44.9801 100.71 43.5332 99.5845 42.0495 98.4981C37.898 95.564 33.2025 93.3206 28.2404 91.9004C26.4344 91.4166 24.6173 90.9826 22.7921 90.5989L22.7017 90.5767C20.2554 90.022 18.2963 89.5846 16.7777 89.1845C15.3472 88.8509 13.9507 88.3654 12.6213 87.7393C4.34758 83.5343 1.66127 74.3044 6.67643 68.2347C7.41722 67.3289 8.46899 66.535 9.60548 65.7502C10.7611 64.9534 12.2936 63.9903 14.2132 62.7818L22.9628 57.2733C30.4404 52.5638 36.3114 48.8605 41.1574 46.5099C45.9793 44.1687 50.5904 42.7346 55.4308 43.5829ZM61.5178 53.9494C59.6331 52.2789 57.2361 51.1337 54.6948 50.6894C52.866 50.3668 50.3204 50.7619 45.8286 52.9406C41.3948 55.0945 35.8626 58.5712 28.1362 63.4348L19.6545 68.7774C17.6561 70.0375 16.2458 70.9277 15.2162 71.6325C14.6331 71.9956 14.1034 72.4164 13.636 72.8877C11.3243 75.6881 12.6573 79.7786 16.195 81.5791C16.3964 81.6805 16.9235 81.8904 18.3161 82.2513C20.2083 82.7242 22.1062 83.169 24.0089 83.5856L24.1796 83.6252C26.9016 84.2381 28.477 84.592 30.0128 85.0318C36.0637 86.7634 41.7893 89.499 46.8515 93.077C48.1417 93.9874 49.377 94.9765 51.5177 96.6869L51.6475 96.7908C53.6534 98.3948 55.0648 99.5205 56.1587 100.332C57.2866 101.175 57.7881 101.457 57.9889 101.547C61.6183 103.177 65.901 101.759 66.9193 98.3403C67.0432 97.7066 67.0874 97.0557 67.0512 96.3983C67.0191 94.7111 66.9541 93.0212 66.856 91.3294L66.3862 81.71C65.9606 72.9514 65.6422 66.6795 64.8518 62.0295C64.0481 57.3207 62.8744 55.1538 61.5178 53.9494ZM80.0321 28.3068C83.3122 24.9875 87.4682 22.6956 91.7231 21.8313C95.9384 20.9691 100.861 21.4368 104.653 24.5185C108.4 27.5633 109.412 31.8469 108.941 35.6527C108.463 39.5183 106.432 43.4917 103.144 46.8127C99.8639 50.132 95.7102 52.4197 91.4531 53.2882C87.2378 54.1504 82.3151 53.6827 78.5235 50.601C74.7784 47.552 73.7662 43.2684 74.2352 39.4668C74.7202 35.5994 76.7447 31.6278 80.0321 28.3068ZM99.3357 29.5518C98.5616 28.9196 97.0203 28.3826 94.477 28.9047C91.9777 29.4164 89.0799 30.8871 86.6143 33.3779C84.1488 35.8686 82.8249 38.6634 82.537 41.0399C82.2303 43.4757 83.0251 44.9052 83.8456 45.5701C84.6146 46.2 86.1559 46.7369 88.6992 46.2148C91.2036 45.7055 94.0963 44.2324 96.5618 41.7416C99.0297 39.2467 100.351 36.4561 100.644 34.082C100.946 31.6438 100.151 30.2144 99.3357 29.5518ZM24.6186 27.6227C22.6247 24.6231 19.3738 21.9887 15.1494 21.3035C10.9075 20.6152 7.32313 22.162 4.93526 24.4957C2.53782 26.8353 1.08323 30.1607 0.834507 33.8733C0.590878 37.5884 1.58734 41.2923 3.5949 44.3142C5.58881 47.3138 8.84199 49.9441 13.0641 50.6334C17.306 51.3218 20.8904 49.7749 23.2783 47.4413C25.6757 45.1017 27.1354 41.7787 27.379 38.0636C27.6226 34.3485 26.6262 30.6446 24.6186 27.6227ZM17.5136 30.7048C18.5325 32.2413 19.209 34.4173 19.0523 36.8355C18.8905 39.2513 17.9462 41.1462 16.773 42.2862C15.6004 43.437 14.4724 43.6329 13.6827 43.5075C12.8703 43.3766 11.7346 42.7867 10.6999 41.2321C9.68102 39.6956 9.0068 37.5155 9.16124 35.1014C9.32301 32.6856 10.2674 30.7907 11.4405 29.6507C12.6131 28.4999 13.7411 28.304 14.5308 28.4294C15.3432 28.5604 16.4789 29.1502 17.5136 30.7048ZM110.013 66.6222C106.923 63.8181 102.748 62.9097 99.0105 63.1658C95.2439 63.4289 91.497 64.8613 88.471 67.2523C85.4523 69.6414 83.4835 72.7212 82.9038 75.9293C82.3286 79.129 83.1335 82.7729 86.234 85.5927C89.3215 88.401 93.4967 89.3094 97.234 89.0533C101.001 88.7902 104.748 87.3578 107.774 84.9668C110.797 82.5801 112.766 79.5004 113.341 76.2898C113.916 73.0901 113.111 69.4462 110.011 66.6264L110.013 66.6222ZM94.4575 72.8627C96.4218 71.3082 98.6805 70.5293 100.592 70.3983C102.531 70.2644 103.71 70.7857 104.3 71.3196C104.877 71.842 105.376 72.8205 105.095 74.3971C104.813 75.9628 103.759 77.8 101.792 79.3588C99.825 80.9068 97.5663 81.6856 95.6523 81.8208C93.7134 81.9547 92.5397 81.4358 91.9444 80.8995C91.3673 80.3771 90.8681 79.3986 91.1496 77.822C91.4317 76.2563 92.4859 74.419 94.4524 72.8603L94.4575 72.8627Z" fill="#0AAAB6"/>
<path fill-rule="evenodd" clip-rule="evenodd" d="M64.1886 8.67055C65.9704 12.4244 66.4786 16.9447 65.5916 21.4074C64.7075 25.8766 62.5202 29.7705 59.5095 32.4312C56.5455 35.0407 52.2905 36.8129 47.4734 35.7658C42.5987 34.7069 39.2828 31.2384 37.5203 27.5201C35.7384 23.7663 35.228 19.2501 36.115 14.7874C36.9991 10.3182 39.1864 6.42435 42.1971 3.76363C45.1633 1.14995 49.4161 -0.618126 54.2332 0.428995C59.1079 1.48791 62.4238 4.95641 64.1863 8.67473L64.1886 8.67055ZM56.5201 10.7749C55.4561 8.53449 54.0871 7.67572 53.0915 7.4572C52.0411 7.2335 50.3511 7.47577 48.4506 9.15004C46.6046 10.7822 45.0007 13.4431 44.3398 16.7909C43.6745 20.147 44.1323 23.221 45.1798 25.4325C46.2438 27.6729 47.615 28.5275 48.6129 28.7418C49.6611 28.9697 51.3511 28.7274 53.2516 27.0531C55.0975 25.421 56.7014 22.76 57.3623 19.4123C58.0276 16.0561 57.5676 12.9864 56.5201 10.7749ZM55.4308 43.5829C59.7928 44.3454 63.9071 46.3111 67.1421 49.1783C70.7286 52.3563 72.243 56.7171 73.1037 61.7733C73.9633 66.8552 74.2965 73.5174 74.7061 81.9954L75.1932 91.9169C75.3052 94.0961 75.3868 95.8304 75.3922 97.1818C75.4013 98.5141 75.3425 99.7824 75.009 100.883C72.8046 108.295 63.3417 111.721 54.8531 107.917C53.5333 107.277 52.2934 106.503 51.1629 105.613C49.5732 104.407 48.0054 103.178 46.4602 101.928L46.3877 101.873C44.9801 100.71 43.5332 99.5845 42.0495 98.4981C37.898 95.564 33.2025 93.3206 28.2404 91.9004C26.4344 91.4166 24.6173 90.9826 22.7921 90.5989L22.7017 90.5767C20.2554 90.022 18.2963 89.5846 16.7777 89.1845C15.3472 88.8509 13.9507 88.3654 12.6213 87.7393C4.34758 83.5343 1.66127 74.3044 6.67643 68.2347C7.41722 67.3289 8.46899 66.535 9.60548 65.7502C10.7611 64.9534 12.2936 63.9903 14.2132 62.7818L22.9628 57.2733C30.4404 52.5638 36.3114 48.8605 41.1574 46.5099C45.9793 44.1687 50.5904 42.7346 55.4308 43.5829ZM61.5178 53.9494C59.6331 52.2789 57.2361 51.1337 54.6948 50.6894C52.866 50.3668 50.3204 50.7619 45.8286 52.9406C41.3948 55.0945 35.8626 58.5712 28.1362 63.4348L19.6545 68.7774C17.6561 70.0375 16.2458 70.9277 15.2162 71.6325C14.6331 71.9956 14.1034 72.4164 13.636 72.8877C11.3243 75.6881 12.6573 79.7786 16.195 81.5791C16.3964 81.6805 16.9235 81.8904 18.3161 82.2513C20.2083 82.7242 22.1062 83.169 24.0089 83.5856L24.1796 83.6252C26.9016 84.2381 28.477 84.592 30.0128 85.0318C36.0637 86.7634 41.7893 89.499 46.8515 93.077C48.1417 93.9874 49.377 94.9765 51.5177 96.6869L51.6475 96.7908C53.6534 98.3948 55.0648 99.5205 56.1587 100.332C57.2866 101.175 57.7881 101.457 57.9889 101.547C61.6183 103.177 65.901 101.759 66.9193 98.3403C67.0432 97.7066 67.0874 97.0557 67.0512 96.3983C67.0191 94.7111 66.9541 93.0212 66.856 91.3294L66.3862 81.71C65.9606 72.9514 65.6422 66.6795 64.8518 62.0295C64.0481 57.3207 62.8744 55.1538 61.5178 53.9494ZM80.0321 28.3068C83.3122 24.9875 87.4682 22.6956 91.7231 21.8313C95.9384 20.9691 100.861 21.4368 104.653 24.5185C108.4 27.5633 109.412 31.8469 108.941 35.6527C108.463 39.5183 106.432 43.4917 103.144 46.8127C99.8639 50.132 95.7102 52.4197 91.4531 53.2882C87.2378 54.1504 82.3151 53.6827 78.5235 50.601C74.7784 47.552 73.7662 43.2684 74.2352 39.4668C74.7202 35.5994 76.7447 31.6278 80.0321 28.3068ZM99.3357 29.5518C98.5616 28.9196 97.0203 28.3826 94.477 28.9047C91.9777 29.4164 89.0799 30.8871 86.6143 33.3779C84.1488 35.8686 82.8249 38.6634 82.537 41.0399C82.2303 43.4757 83.0251 44.9052 83.8456 45.5701C84.6146 46.2 86.1559 46.7369 88.6992 46.2148C91.2036 45.7055 94.0963 44.2324 96.5618 41.7416C99.0297 39.2467 100.351 36.4561 100.644 34.082C100.946 31.6438 100.151 30.2144 99.3357 29.5518ZM24.6186 27.6227C22.6247 24.6231 19.3738 21.9887 15.1494 21.3035C10.9075 20.6152 7.32313 22.162 4.93526 24.4957C2.53782 26.8353 1.08323 30.1607 0.834507 33.8733C0.590878 37.5884 1.58734 41.2923 3.5949 44.3142C5.58881 47.3138 8.84199 49.9441 13.0641 50.6334C17.306 51.3218 20.8904 49.7749 23.2783 47.4413C25.6757 45.1017 27.1354 41.7787 27.379 38.0636C27.6226 34.3485 26.6262 30.6446 24.6186 27.6227ZM17.5136 30.7048C18.5325 32.2413 19.209 34.4173 19.0523 36.8355C18.8905 39.2513 17.9462 41.1462 16.773 42.2862C15.6004 43.437 14.4724 43.6329 13.6827 43.5075C12.8703 43.3766 11.7346 42.7867 10.6999 41.2321C9.68102 39.6956 9.0068 37.5155 9.16124 35.1014C9.32301 32.6856 10.2674 30.7907 11.4405 29.6507C12.6131 28.4999 13.7411 28.304 14.5308 28.4294C15.3432 28.5604 16.4789 29.1502 17.5136 30.7048ZM110.013 66.6222C106.923 63.8181 102.748 62.9097 99.0105 63.1658C95.2439 63.4289 91.497 64.8613 88.471 67.2523C85.4523 69.6414 83.4835 72.7212 82.9038 75.9293C82.3286 79.129 83.1335 82.7729 86.234 85.5927C89.3215 88.401 93.4967 89.3094 97.234 89.0533C101.001 88.7902 104.748 87.3578 107.774 84.9668C110.797 82.5801 112.766 79.5004 113.341 76.2898C113.916 73.0901 113.111 69.4462 110.011 66.6264L110.013 66.6222ZM94.4575 72.8627C96.4218 71.3082 98.6805 70.5293 100.592 70.3983C102.531 70.2644 103.71 70.7857 104.3 71.3196C104.877 71.842 105.376 72.8205 105.095 74.3971C104.813 75.9628 103.759 77.8 101.792 79.3588C99.825 80.9068 97.5663 81.6856 95.6523 81.8208C93.7134 81.9547 92.5397 81.4358 91.9444 80.8995C91.3673 80.3771 90.8681 79.3986 91.1496 77.822C91.4317 76.2563 92.4859 74.419 94.4524 72.8603L94.4575 72.8627Z" fill="#0AAAB6"/>
<path fill-rule="evenodd" clip-rule="evenodd" d="M64.1886 8.67055C65.9704 12.4244 66.4786 16.9447 65.5916 21.4074C64.7075 25.8766 62.5202 29.7705 59.5095 32.4312C56.5455 35.0407 52.2905 36.8129 47.4734 35.7658C42.5987 34.7069 39.2828 31.2384 37.5203 27.5201C35.7384 23.7663 35.228 19.2501 36.115 14.7874C36.9991 10.3182 39.1864 6.42435 42.1971 3.76363C45.1633 1.14995 49.4161 -0.618126 54.2332 0.428995C59.1079 1.48791 62.4238 4.95641 64.1863 8.67473L64.1886 8.67055ZM56.5201 10.7749C55.4561 8.53449 54.0871 7.67572 53.0915 7.4572C52.0411 7.2335 50.3511 7.47577 48.4506 9.15004C46.6046 10.7822 45.0007 13.4431 44.3398 16.7909C43.6745 20.147 44.1323 23.221 45.1798 25.4325C46.2438 27.6729 47.615 28.5275 48.6129 28.7418C49.6611 28.9697 51.3511 28.7274 53.2516 27.0531C55.0975 25.421 56.7014 22.76 57.3623 19.4123C58.0276 16.0561 57.5676 12.9864 56.5201 10.7749ZM55.4308 43.5829C59.7928 44.3454 63.9071 46.3111 67.1421 49.1783C70.7286 52.3563 72.243 56.7171 73.1037 61.7733C73.9633 66.8552 74.2965 73.5174 74.7061 81.9954L75.1932 91.9169C75.3052 94.0961 75.3868 95.8304 75.3922 97.1818C75.4013 98.5141 75.3425 99.7824 75.009 100.883C72.8046 108.295 63.3417 111.721 54.8531 107.917C53.5333 107.277 52.2934 106.503 51.1629 105.613C49.5732 104.407 48.0054 103.178 46.4602 101.928L46.3877 101.873C44.9801 100.71 43.5332 99.5845 42.0495 98.4981C37.898 95.564 33.2025 93.3206 28.2404 91.9004C26.4344 91.4166 24.6173 90.9826 22.7921 90.5989L22.7017 90.5767C20.2554 90.022 18.2963 89.5846 16.7777 89.1845C15.3472 88.8509 13.9507 88.3654 12.6213 87.7393C4.34758 83.5343 1.66127 74.3044 6.67643 68.2347C7.41722 67.3289 8.46899 66.535 9.60548 65.7502C10.7611 64.9534 12.2936 63.9903 14.2132 62.7818L22.9628 57.2733C30.4404 52.5638 36.3114 48.8605 41.1574 46.5099C45.9793 44.1687 50.5904 42.7346 55.4308 43.5829ZM61.5178 53.9494C59.6331 52.2789 57.2361 51.1337 54.6948 50.6894C52.866 50.3668 50.3204 50.7619 45.8286 52.9406C41.3948 55.0945 35.8626 58.5712 28.1362 63.4348L19.6545 68.7774C17.6561 70.0375 16.2458 70.9277 15.2162 71.6325C14.6331 71.9956 14.1034 72.4164 13.636 72.8877C11.3243 75.6881 12.6573 79.7786 16.195 81.5791C16.3964 81.6805 16.9235 81.8904 18.3161 82.2513C20.2083 82.7242 22.1062 83.169 24.0089 83.5856L24.1796 83.6252C26.9016 84.2381 28.477 84.592 30.0128 85.0318C36.0637 86.7634 41.7893 89.499 46.8515 93.077C48.1417 93.9874 49.377 94.9765 51.5177 96.6869L51.6475 96.7908C53.6534 98.3948 55.0648 99.5205 56.1587 100.332C57.2866 101.175 57.7881 101.457 57.9889 101.547C61.6183 103.177 65.901 101.759 66.9193 98.3403C67.0432 97.7066 67.0874 97.0557 67.0512 96.3983C67.0191 94.7111 66.9541 93.0212 66.856 91.3294L66.3862 81.71C65.9606 72.9514 65.6422 66.6795 64.8518 62.0295C64.0481 57.3207 62.8744 55.1538 61.5178 53.9494ZM80.0321 28.3068C83.3122 24.9875 87.4682 22.6956 91.7231 21.8313C95.9384 20.9691 100.861 21.4368 104.653 24.5185C108.4 27.5633 109.412 31.8469 108.941 35.6527C108.463 39.5183 106.432 43.4917 103.144 46.8127C99.8639 50.132 95.7102 52.4197 91.4531 53.2882C87.2378 54.1504 82.3151 53.6827 78.5235 50.601C74.7784 47.552 73.7662 43.2684 74.2352 39.4668C74.7202 35.5994 76.7447 31.6278 80.0321 28.3068ZM99.3357 29.5518C98.5616 28.9196 97.0203 28.3826 94.477 28.9047C91.9777 29.4164 89.0799 30.8871 86.6143 33.3779C84.1488 35.8686 82.8249 38.6634 82.537 41.0399C82.2303 43.4757 83.0251 44.9052 83.8456 45.5701C84.6146 46.2 86.1559 46.7369 88.6992 46.2148C91.2036 45.7055 94.0963 44.2324 96.5618 41.7416C99.0297 39.2467 100.351 36.4561 100.644 34.082C100.946 31.6438 100.151 30.2144 99.3357 29.5518ZM24.6186 27.6227C22.6247 24.6231 19.3738 21.9887 15.1494 21.3035C10.9075 20.6152 7.32313 22.162 4.93526 24.4957C2.53782 26.8353 1.08323 30.1607 0.834507 33.8733C0.590878 37.5884 1.58734 41.2923 3.5949 44.3142C5.58881 47.3138 8.84199 49.9441 13.0641 50.6334C17.306 51.3218 20.8904 49.7749 23.2783 47.4413C25.6757 45.1017 27.1354 41.7787 27.379 38.0636C27.6226 34.3485 26.6262 30.6446 24.6186 27.6227ZM17.5136 30.7048C18.5325 32.2413 19.209 34.4173 19.0523 36.8355C18.8905 39.2513 17.9462 41.1462 16.773 42.2862C15.6004 43.437 14.4724 43.6329 13.6827 43.5075C12.8703 43.3766 11.7346 42.7867 10.6999 41.2321C9.68102 39.6956 9.0068 37.5155 9.16124 35.1014C9.32301 32.6856 10.2674 30.7907 11.4405 29.6507C12.6131 28.4999 13.7411 28.304 14.5308 28.4294C15.3432 28.5604 16.4789 29.1502 17.5136 30.7048ZM110.013 66.6222C106.923 63.8181 102.748 62.9097 99.0105 63.1658C95.2439 63.4289 91.497 64.8613 88.471 67.2523C85.4523 69.6414 83.4835 72.7212 82.9038 75.9293C82.3286 79.129 83.1335 82.7729 86.234 85.5927C89.3215 88.401 93.4967 89.3094 97.234 89.0533C101.001 88.7902 104.748 87.3578 107.774 84.9668C110.797 82.5801 112.766 79.5004 113.341 76.2898C113.916 73.0901 113.111 69.4462 110.011 66.6264L110.013 66.6222ZM94.4575 72.8627C96.4218 71.3082 98.6805 70.5293 100.592 70.3983C102.531 70.2644 103.71 70.7857 104.3 71.3196C104.877 71.842 105.376 72.8205 105.095 74.3971C104.813 75.9628 103.759 77.8 101.792 79.3588C99.825 80.9068 97.5663 81.6856 95.6523 81.8208C93.7134 81.9547 92.5397 81.4358 91.9444 80.8995C91.3673 80.3771 90.8681 79.3986 91.1496 77.822C91.4317 76.2563 92.4859 74.419 94.4524 72.8603L94.4575 72.8627Z" fill="#0AAAB6"/>
</svg>
