<svg width="45" height="50" viewBox="0 0 45 50" fill="none" xmlns="http://www.w3.org/2000/svg">
<path d="M35.8476 7.83333C33.9294 5.66562 32.8723 2.88176 32.8731 0H24.2022V34.4444C24.1353 36.3084 23.3404 38.0739 21.9847 39.3693C20.6291 40.6646 18.8185 41.3886 16.9344 41.3889C12.9497 41.3889 9.63843 38.1667 9.63843 34.1667C9.63843 29.3889 14.2966 25.8056 19.0951 27.2778V18.5C9.41394 17.2222 0.939453 24.6667 0.939453 34.1667C0.939453 43.4167 8.68435 50 16.9063 50C25.7175 50 32.8731 42.9167 32.8731 34.1667V16.6944C36.3892 19.194 40.6106 20.5351 44.9395 20.5278V11.9444C44.9395 11.9444 39.6639 12.1944 35.8476 7.83333Z" fill="#F2786A"/>
</svg>
